<?xml version="1.0" encoding="UTF-8" standalone="no"?>
<!DOCTYPE svg PUBLIC "-//W3C//DTD SVG 1.1//EN" "http://www.w3.org/Graphics/SVG/1.1/DTD/svg11.dtd">
<svg width="100%" height="100%" viewBox="0 0 699 87" version="1.1" xmlns="http://www.w3.org/2000/svg" xmlns:xlink="http://www.w3.org/1999/xlink" xml:space="preserve" xmlns:serif="http://www.serif.com/" style="fill-rule:evenodd;clip-rule:evenodd;stroke-linejoin:round;stroke-miterlimit:2;">
    <g transform="matrix(1,0,0,1,-76.8233,-205.195)">
        <g transform="matrix(1,0,0,1,-7.81995,113.658)">
            <path d="M105.475,158.785C111.779,158.785 116.619,157.433 119.995,154.729C123.371,152.025 125.059,148.081 125.059,142.897C125.059,140.561 124.603,138.465 123.691,136.609C122.779,134.753 121.483,133.169 119.803,131.857C118.123,130.545 116.075,129.537 113.659,128.833C111.243,128.129 108.531,127.777 105.523,127.777L87.283,127.777L87.283,158.785L105.475,158.785ZM87.283,95.569L87.283,125.761L103.267,125.761C106.659,125.761 109.547,125.305 111.931,124.393C114.315,123.481 116.267,122.297 117.787,120.841C119.307,119.385 120.411,117.753 121.099,115.945C121.787,114.137 122.131,112.353 122.131,110.593C122.131,105.761 120.555,102.049 117.403,99.457C114.251,96.865 109.427,95.569 102.931,95.569L87.283,95.569ZM102.931,93.457C110.291,93.457 115.763,94.929 119.347,97.873C122.931,100.817 124.723,104.993 124.723,110.401C124.723,112.289 124.371,114.105 123.667,115.849C122.963,117.593 121.979,119.185 120.715,120.625C119.451,122.065 117.915,123.297 116.107,124.321C114.299,125.345 112.291,126.065 110.083,126.481C112.835,126.769 115.299,127.353 117.475,128.233C119.651,129.113 121.499,130.249 123.019,131.641C124.539,133.033 125.699,134.681 126.499,136.585C127.299,138.489 127.699,140.609 127.699,142.945C127.699,145.825 127.203,148.377 126.211,150.601C125.219,152.825 123.771,154.705 121.867,156.241C119.963,157.777 117.635,158.945 114.883,159.745C112.131,160.545 108.995,160.945 105.475,160.945L84.643,160.945L84.643,93.457L102.931,93.457Z" style="fill-rule:nonzero;"/>
            <path d="M175.603,132.721C175.603,129.873 175.195,127.337 174.379,125.113C173.563,122.889 172.443,121.009 171.019,119.473C169.595,117.937 167.907,116.769 165.955,115.969C164.003,115.169 161.891,114.769 159.619,114.769C156.931,114.769 154.523,115.193 152.395,116.041C150.267,116.889 148.435,118.097 146.899,119.665C145.363,121.233 144.123,123.121 143.179,125.329C142.235,127.537 141.619,130.001 141.331,132.721L175.603,132.721ZM176.659,155.137C176.019,155.937 175.123,156.721 173.971,157.489C172.819,158.257 171.499,158.937 170.011,159.529C168.523,160.121 166.907,160.601 165.163,160.969C163.419,161.337 161.635,161.521 159.811,161.521C156.579,161.521 153.659,160.953 151.051,159.817C148.443,158.681 146.219,157.041 144.379,154.897C142.539,152.753 141.123,150.121 140.131,147.001C139.139,143.881 138.643,140.321 138.643,136.321C138.643,132.865 139.115,129.705 140.059,126.841C141.003,123.977 142.371,121.505 144.163,119.425C145.955,117.345 148.147,115.729 150.739,114.577C153.331,113.425 156.275,112.849 159.571,112.849C162.131,112.849 164.523,113.297 166.747,114.193C168.971,115.089 170.915,116.409 172.579,118.153C174.243,119.897 175.547,122.049 176.491,124.609C177.435,127.169 177.907,130.097 177.907,133.393C177.907,134.065 177.619,134.401 177.043,134.401L141.187,134.401C141.155,134.721 141.139,135.033 141.139,135.337L141.139,136.321C141.139,140.097 141.587,143.425 142.483,146.305C143.379,149.185 144.643,151.601 146.275,153.553C147.907,155.505 149.883,156.985 152.203,157.993C154.523,159.001 157.107,159.505 159.955,159.505C162.483,159.505 164.675,159.225 166.531,158.665C168.387,158.105 169.939,157.489 171.187,156.817C172.435,156.145 173.403,155.529 174.091,154.969C174.779,154.409 175.219,154.129 175.411,154.129C175.667,154.129 175.875,154.225 176.035,154.417L176.659,155.137Z" style="fill-rule:nonzero;"/>
            <path d="M203.347,161.713C200.403,161.713 198.099,160.905 196.435,159.289C194.771,157.673 193.939,155.073 193.939,151.489L193.939,117.361L186.547,117.361C185.939,117.361 185.635,117.121 185.635,116.641L185.635,115.777L193.939,115.441L194.659,97.201C194.691,97.009 194.771,96.825 194.899,96.649C195.027,96.473 195.203,96.385 195.427,96.385L196.483,96.385L196.483,115.441L212.131,115.441L212.131,117.361L196.483,117.361L196.483,151.393C196.483,152.865 196.675,154.121 197.059,155.161C197.443,156.201 197.955,157.057 198.595,157.729C199.235,158.401 199.995,158.889 200.875,159.193C201.755,159.497 202.707,159.649 203.731,159.649C204.979,159.649 206.075,159.457 207.019,159.073C207.963,158.689 208.771,158.273 209.443,157.825C210.115,157.377 210.659,156.961 211.075,156.577C211.491,156.193 211.795,156.001 211.987,156.001C212.147,156.001 212.323,156.097 212.515,156.289L213.139,157.201C212.595,157.873 211.963,158.481 211.243,159.025C210.523,159.569 209.731,160.041 208.867,160.441C208.003,160.841 207.107,161.153 206.179,161.377C205.251,161.601 204.307,161.713 203.347,161.713Z" style="fill-rule:nonzero;"/>
            <path d="M284.563,113.617L256.963,176.833C256.803,177.153 256.611,177.441 256.387,177.697C256.163,177.953 255.843,178.081 255.427,178.081L253.747,178.081L261.907,159.793L241.651,113.617L243.571,113.617C243.923,113.617 244.203,113.713 244.411,113.905C244.619,114.097 244.755,114.289 244.819,114.481L262.483,154.993C262.803,155.697 263.043,156.433 263.203,157.201C263.427,156.529 263.699,155.793 264.019,154.993L281.587,114.481C281.715,114.225 281.883,114.017 282.091,113.857C282.299,113.697 282.531,113.617 282.787,113.617L284.563,113.617Z" style="fill-rule:nonzero;"/>
            <path d="M312.355,112.849C315.715,112.849 318.699,113.433 321.307,114.601C323.915,115.769 326.115,117.417 327.907,119.545C329.699,121.673 331.059,124.241 331.987,127.249C332.915,130.257 333.379,133.601 333.379,137.281C333.379,140.961 332.915,144.297 331.987,147.289C331.059,150.281 329.699,152.833 327.907,154.945C326.115,157.057 323.915,158.681 321.307,159.817C318.699,160.953 315.715,161.521 312.355,161.521C308.995,161.521 306.011,160.953 303.403,159.817C300.795,158.681 298.595,157.057 296.803,154.945C295.011,152.833 293.651,150.281 292.723,147.289C291.795,144.297 291.331,140.961 291.331,137.281C291.331,133.601 291.795,130.257 292.723,127.249C293.651,124.241 295.011,121.673 296.803,119.545C298.595,117.417 300.795,115.769 303.403,114.601C306.011,113.433 308.995,112.849 312.355,112.849ZM312.355,159.505C315.427,159.505 318.115,158.977 320.419,157.921C322.723,156.865 324.651,155.361 326.203,153.409C327.755,151.457 328.915,149.121 329.683,146.401C330.451,143.681 330.835,140.641 330.835,137.281C330.835,133.921 330.451,130.865 329.683,128.113C328.915,125.361 327.755,123.001 326.203,121.033C324.651,119.065 322.723,117.545 320.419,116.473C318.115,115.401 315.427,114.865 312.355,114.865C309.283,114.865 306.595,115.401 304.291,116.473C301.987,117.545 300.059,119.065 298.507,121.033C296.955,123.001 295.795,125.361 295.027,128.113C294.259,130.865 293.875,133.921 293.875,137.281C293.875,140.641 294.259,143.681 295.027,146.401C295.795,149.121 296.955,151.457 298.507,153.409C300.059,155.361 301.987,156.865 304.291,157.921C306.595,158.977 309.283,159.505 312.355,159.505Z" style="fill-rule:nonzero;"/>
            <path d="M382.915,113.617L382.915,160.945L381.763,160.945C381.187,160.945 380.851,160.625 380.755,159.985L380.515,151.729C378.275,154.769 375.635,157.193 372.595,159.001C369.555,160.809 366.211,161.713 362.563,161.713C359.939,161.713 357.643,161.305 355.675,160.489C353.707,159.673 352.075,158.505 350.779,156.985C349.483,155.465 348.507,153.601 347.851,151.393C347.195,149.185 346.867,146.689 346.867,143.905L346.867,113.617L349.411,113.617L349.411,143.905C349.411,146.369 349.683,148.577 350.227,150.529C350.771,152.481 351.611,154.137 352.747,155.497C353.883,156.857 355.307,157.897 357.019,158.617C358.731,159.337 360.739,159.697 363.043,159.697C366.467,159.697 369.643,158.793 372.571,156.985C375.499,155.177 378.115,152.673 380.419,149.473L380.419,113.617L382.915,113.617Z" style="fill-rule:nonzero;"/>
            <path d="M428.995,126.289C429.699,124.145 430.531,122.241 431.491,120.577C432.451,118.913 433.563,117.505 434.827,116.353C436.091,115.201 437.523,114.329 439.123,113.737C440.723,113.145 442.531,112.849 444.547,112.849C445.475,112.849 446.427,112.921 447.403,113.065C448.379,113.209 449.251,113.505 450.019,113.953L449.731,115.441C449.603,115.793 449.379,115.969 449.059,115.969C448.707,115.969 448.171,115.849 447.451,115.609C446.731,115.369 445.667,115.249 444.259,115.249C442.275,115.249 440.507,115.561 438.955,116.185C437.403,116.809 436.027,117.729 434.827,118.945C433.627,120.161 432.563,121.681 431.635,123.505C430.707,125.329 429.859,127.457 429.091,129.889L429.091,160.945L426.547,160.945L426.547,113.617L427.699,113.617C428.339,113.617 428.675,113.969 428.707,114.673L428.995,126.289Z" style="fill-rule:nonzero;"/>
            <path d="M490.915,132.721C490.915,129.873 490.507,127.337 489.691,125.113C488.875,122.889 487.755,121.009 486.331,119.473C484.907,117.937 483.219,116.769 481.267,115.969C479.315,115.169 477.203,114.769 474.931,114.769C472.243,114.769 469.835,115.193 467.707,116.041C465.579,116.889 463.747,118.097 462.211,119.665C460.675,121.233 459.435,123.121 458.491,125.329C457.547,127.537 456.931,130.001 456.643,132.721L490.915,132.721ZM491.971,155.137C491.331,155.937 490.435,156.721 489.283,157.489C488.131,158.257 486.811,158.937 485.323,159.529C483.835,160.121 482.219,160.601 480.475,160.969C478.731,161.337 476.947,161.521 475.123,161.521C471.891,161.521 468.971,160.953 466.363,159.817C463.755,158.681 461.531,157.041 459.691,154.897C457.851,152.753 456.435,150.121 455.443,147.001C454.451,143.881 453.955,140.321 453.955,136.321C453.955,132.865 454.427,129.705 455.371,126.841C456.315,123.977 457.683,121.505 459.475,119.425C461.267,117.345 463.459,115.729 466.051,114.577C468.643,113.425 471.587,112.849 474.883,112.849C477.443,112.849 479.835,113.297 482.059,114.193C484.283,115.089 486.227,116.409 487.891,118.153C489.555,119.897 490.859,122.049 491.803,124.609C492.747,127.169 493.219,130.097 493.219,133.393C493.219,134.065 492.931,134.401 492.355,134.401L456.499,134.401C456.467,134.721 456.451,135.033 456.451,135.337L456.451,136.321C456.451,140.097 456.899,143.425 457.795,146.305C458.691,149.185 459.955,151.601 461.587,153.553C463.219,155.505 465.195,156.985 467.515,157.993C469.835,159.001 472.419,159.505 475.267,159.505C477.795,159.505 479.987,159.225 481.843,158.665C483.699,158.105 485.251,157.489 486.499,156.817C487.747,156.145 488.715,155.529 489.403,154.969C490.091,154.409 490.531,154.129 490.723,154.129C490.979,154.129 491.187,154.225 491.347,154.417L491.971,155.137Z" style="fill-rule:nonzero;"/>
            <path d="M533.539,137.233C523.875,137.553 516.731,138.753 512.107,140.833C507.483,142.913 505.171,145.841 505.171,149.617C505.171,151.377 505.467,152.897 506.059,154.177C506.651,155.457 507.435,156.521 508.411,157.369C509.387,158.217 510.499,158.841 511.747,159.241C512.995,159.641 514.275,159.841 515.587,159.841C517.635,159.841 519.507,159.609 521.203,159.145C522.899,158.681 524.467,158.049 525.907,157.249C527.347,156.449 528.691,155.505 529.939,154.417C531.187,153.329 532.387,152.177 533.539,150.961L533.539,137.233ZM505.219,120.337C507.587,117.905 510.067,116.049 512.659,114.769C515.251,113.489 518.211,112.849 521.539,112.849C524.003,112.849 526.147,113.241 527.971,114.025C529.795,114.809 531.307,115.937 532.507,117.409C533.707,118.881 534.595,120.665 535.171,122.761C535.747,124.857 536.035,127.217 536.035,129.841L536.035,160.945L535.171,160.945C534.531,160.945 534.163,160.609 534.067,159.937L533.587,152.929C532.275,154.273 530.963,155.489 529.651,156.577C528.339,157.665 526.947,158.585 525.475,159.337C524.003,160.089 522.419,160.673 520.723,161.089C519.027,161.505 517.155,161.713 515.107,161.713C513.603,161.713 512.115,161.489 510.643,161.041C509.171,160.593 507.843,159.889 506.659,158.929C505.475,157.969 504.523,156.729 503.803,155.209C503.083,153.689 502.723,151.857 502.723,149.713C502.723,147.633 503.323,145.745 504.523,144.049C505.723,142.353 507.587,140.889 510.115,139.657C512.643,138.425 515.843,137.449 519.715,136.729C523.587,136.009 528.195,135.585 533.539,135.457L533.539,129.841C533.539,125.105 532.515,121.425 530.467,118.801C528.419,116.177 525.379,114.865 521.347,114.865C518.947,114.865 516.883,115.209 515.155,115.897C513.427,116.585 511.987,117.353 510.835,118.201C509.683,119.049 508.763,119.817 508.075,120.505C507.387,121.193 506.867,121.537 506.515,121.537C506.195,121.537 505.907,121.361 505.651,121.009L505.219,120.337Z" style="fill-rule:nonzero;"/>
            <path d="M585.475,123.169C583.491,120.129 581.299,117.977 578.899,116.713C576.499,115.449 573.747,114.817 570.643,114.817C567.539,114.817 564.835,115.385 562.531,116.521C560.227,117.657 558.307,119.233 556.771,121.249C555.235,123.265 554.083,125.649 553.315,128.401C552.547,131.153 552.163,134.145 552.163,137.377C552.163,144.897 553.579,150.465 556.411,154.081C559.243,157.697 563.379,159.505 568.819,159.505C572.147,159.505 575.227,158.593 578.059,156.769C580.891,154.945 583.363,152.417 585.475,149.185L585.475,123.169ZM588.019,91.537L588.019,160.945L586.867,160.945C586.227,160.945 585.891,160.625 585.859,159.985L585.571,151.537C583.459,154.641 580.939,157.081 578.011,158.857C575.083,160.633 571.843,161.521 568.291,161.521C562.275,161.521 557.651,159.537 554.419,155.569C551.187,151.601 549.571,145.537 549.571,137.377C549.571,133.921 550.011,130.705 550.891,127.729C551.771,124.753 553.083,122.161 554.827,119.953C556.571,117.745 558.731,116.009 561.307,114.745C563.883,113.481 566.867,112.849 570.259,112.849C573.651,112.849 576.587,113.497 579.067,114.793C581.547,116.089 583.683,118.033 585.475,120.625L585.475,91.537L588.019,91.537Z" style="fill-rule:nonzero;"/>
            <path d="M643.843,161.713C640.899,161.713 638.595,160.905 636.931,159.289C635.267,157.673 634.435,155.073 634.435,151.489L634.435,117.361L627.043,117.361C626.435,117.361 626.131,117.121 626.131,116.641L626.131,115.777L634.435,115.441L635.155,97.201C635.187,97.009 635.267,96.825 635.395,96.649C635.523,96.473 635.699,96.385 635.923,96.385L636.979,96.385L636.979,115.441L652.627,115.441L652.627,117.361L636.979,117.361L636.979,151.393C636.979,152.865 637.171,154.121 637.555,155.161C637.939,156.201 638.451,157.057 639.091,157.729C639.731,158.401 640.491,158.889 641.371,159.193C642.251,159.497 643.203,159.649 644.227,159.649C645.475,159.649 646.571,159.457 647.515,159.073C648.459,158.689 649.267,158.273 649.939,157.825C650.611,157.377 651.155,156.961 651.571,156.577C651.987,156.193 652.291,156.001 652.483,156.001C652.643,156.001 652.819,156.097 653.011,156.289L653.635,157.201C653.091,157.873 652.459,158.481 651.739,159.025C651.019,159.569 650.227,160.041 649.363,160.441C648.499,160.841 647.603,161.153 646.675,161.377C645.747,161.601 644.803,161.713 643.843,161.713Z" style="fill-rule:nonzero;"/>
            <path d="M666.355,122.641C668.563,119.665 671.187,117.289 674.227,115.513C677.267,113.737 680.579,112.849 684.163,112.849C686.787,112.849 689.083,113.257 691.051,114.073C693.019,114.889 694.651,116.057 695.947,117.577C697.243,119.097 698.219,120.961 698.875,123.169C699.531,125.377 699.859,127.873 699.859,130.657L699.859,160.945L697.315,160.945L697.315,130.657C697.315,128.193 697.043,125.985 696.499,124.033C695.955,122.081 695.115,120.425 693.979,119.065C692.843,117.705 691.427,116.665 689.731,115.945C688.035,115.225 686.035,114.865 683.731,114.865C680.275,114.865 677.083,115.769 674.155,117.577C671.227,119.385 668.627,121.889 666.355,125.089L666.355,160.945L663.811,160.945L663.811,91.537L666.355,91.537L666.355,122.641Z" style="fill-rule:nonzero;"/>
            <path d="M719.299,113.617L719.299,160.945L716.803,160.945L716.803,113.617L719.299,113.617ZM721.363,96.529C721.363,96.977 721.267,97.393 721.075,97.777C720.883,98.161 720.635,98.505 720.331,98.809C720.027,99.113 719.675,99.353 719.275,99.529C718.875,99.705 718.467,99.793 718.051,99.793C717.155,99.793 716.379,99.465 715.723,98.809C715.067,98.153 714.739,97.393 714.739,96.529C714.739,95.633 715.067,94.857 715.723,94.201C716.379,93.545 717.155,93.217 718.051,93.217C718.467,93.217 718.875,93.305 719.275,93.481C719.675,93.657 720.027,93.897 720.331,94.201C720.635,94.505 720.883,94.857 721.075,95.257C721.267,95.657 721.363,96.081 721.363,96.529Z" style="fill-rule:nonzero;"/>
            <path d="M761.923,118.465C761.763,118.753 761.523,118.897 761.203,118.897C760.915,118.897 760.507,118.681 759.979,118.249C759.451,117.817 758.723,117.353 757.795,116.857C756.867,116.361 755.707,115.897 754.315,115.465C752.923,115.033 751.203,114.817 749.155,114.817C747.267,114.817 745.547,115.097 743.995,115.657C742.443,116.217 741.107,116.961 739.987,117.889C738.867,118.817 738.003,119.905 737.395,121.153C736.787,122.401 736.483,123.697 736.483,125.041C736.483,126.641 736.875,127.985 737.659,129.073C738.443,130.161 739.475,131.081 740.755,131.833C742.035,132.585 743.491,133.225 745.123,133.753C746.755,134.281 748.419,134.809 750.115,135.337C751.811,135.865 753.475,136.433 755.107,137.041C756.739,137.649 758.195,138.401 759.475,139.297C760.755,140.193 761.787,141.297 762.571,142.609C763.355,143.921 763.747,145.537 763.747,147.457C763.747,149.441 763.395,151.297 762.691,153.025C761.987,154.753 760.955,156.265 759.595,157.561C758.235,158.857 756.571,159.873 754.603,160.609C752.635,161.345 750.387,161.713 747.859,161.713C746.163,161.713 744.627,161.577 743.251,161.305C741.875,161.033 740.595,160.649 739.411,160.153C738.227,159.657 737.123,159.057 736.099,158.353C735.075,157.649 734.083,156.865 733.123,156.001L733.747,155.185C733.875,155.025 733.995,154.905 734.107,154.825C734.219,154.745 734.403,154.705 734.659,154.705C734.979,154.705 735.435,154.969 736.027,155.497C736.619,156.025 737.419,156.609 738.427,157.249C739.435,157.889 740.707,158.473 742.243,159.001C743.779,159.529 745.667,159.793 747.907,159.793C750.115,159.793 752.059,159.481 753.739,158.857C755.419,158.233 756.827,157.377 757.963,156.289C759.099,155.201 759.955,153.929 760.531,152.473C761.107,151.017 761.395,149.473 761.395,147.841C761.395,146.113 761.003,144.673 760.219,143.521C759.435,142.369 758.403,141.401 757.123,140.617C755.843,139.833 754.387,139.169 752.755,138.625C751.123,138.081 749.459,137.553 747.763,137.041C746.067,136.529 744.403,135.977 742.771,135.385C741.139,134.793 739.683,134.057 738.403,133.177C737.123,132.297 736.091,131.217 735.307,129.937C734.523,128.657 734.131,127.057 734.131,125.137C734.131,123.537 734.491,121.993 735.211,120.505C735.931,119.017 736.947,117.705 738.259,116.569C739.571,115.433 741.147,114.529 742.987,113.857C744.827,113.185 746.883,112.849 749.155,112.849C751.907,112.849 754.339,113.233 756.451,114.001C758.563,114.769 760.563,115.985 762.451,117.649L761.923,118.465Z" style="fill-rule:nonzero;"/>
            <path d="M776.275,158.113C776.275,157.089 776.619,156.217 777.307,155.497C777.995,154.777 778.851,154.417 779.875,154.417C780.899,154.417 781.771,154.777 782.491,155.497C783.211,156.217 783.571,157.089 783.571,158.113C783.571,159.137 783.211,159.993 782.491,160.681C781.771,161.369 780.899,161.713 779.875,161.713C778.851,161.713 777.995,161.369 777.307,160.681C776.619,159.993 776.275,159.137 776.275,158.113Z" style="fill-rule:nonzero;"/>
        </g>
    </g>
</svg>
