<?xml version="1.0" encoding="UTF-8" standalone="no"?>
<!DOCTYPE svg PUBLIC "-//W3C//DTD SVG 1.1//EN" "http://www.w3.org/Graphics/SVG/1.1/DTD/svg11.dtd">
<svg width="100%" height="100%" viewBox="0 0 178 44" version="1.1" xmlns="http://www.w3.org/2000/svg" xmlns:xlink="http://www.w3.org/1999/xlink" xml:space="preserve" xmlns:serif="http://www.serif.com/" style="fill-rule:evenodd;clip-rule:evenodd;stroke-linejoin:round;stroke-miterlimit:2;">
    <g transform="matrix(1,0,0,1,-316.142,-579.96)">
        <g transform="matrix(1,0,0,1,237.187,453.935)">
            <path d="M89.947,158.977C92.923,158.977 95.175,158.333 96.703,157.045C98.231,155.757 98.995,153.945 98.995,151.609C98.995,150.537 98.791,149.573 98.383,148.717C97.975,147.861 97.387,147.133 96.619,146.533C95.851,145.933 94.907,145.473 93.787,145.153C92.667,144.833 91.395,144.673 89.971,144.673L81.427,144.673L81.427,158.977L89.947,158.977ZM81.427,128.929L81.427,142.873L88.771,142.873C90.339,142.873 91.679,142.673 92.791,142.273C93.903,141.873 94.815,141.345 95.527,140.689C96.239,140.033 96.763,139.289 97.099,138.457C97.435,137.625 97.603,136.769 97.603,135.889C97.603,133.601 96.879,131.869 95.431,130.693C93.983,129.517 91.747,128.929 88.723,128.929L81.427,128.929ZM88.723,126.985C90.659,126.985 92.339,127.177 93.763,127.561C95.187,127.945 96.363,128.509 97.291,129.253C98.219,129.997 98.907,130.905 99.355,131.977C99.803,133.049 100.027,134.265 100.027,135.625C100.027,136.521 99.871,137.385 99.559,138.217C99.247,139.049 98.799,139.817 98.215,140.521C97.631,141.225 96.911,141.837 96.055,142.357C95.199,142.877 94.219,143.273 93.115,143.545C95.787,143.929 97.839,144.813 99.271,146.197C100.703,147.581 101.419,149.401 101.419,151.657C101.419,153.097 101.163,154.393 100.651,155.545C100.139,156.697 99.395,157.673 98.419,158.473C97.443,159.273 96.243,159.885 94.819,160.309C93.395,160.733 91.779,160.945 89.971,160.945L78.955,160.945L78.955,126.985L88.723,126.985Z" style="fill-rule:nonzero;"/>
            <path d="M109.795,142.825C110.163,141.849 110.583,140.981 111.055,140.221C111.527,139.461 112.071,138.817 112.687,138.289C113.303,137.761 113.991,137.357 114.751,137.077C115.511,136.797 116.355,136.657 117.283,136.657C117.779,136.657 118.267,136.701 118.747,136.789C119.227,136.877 119.651,137.033 120.019,137.257L119.827,138.841C119.747,139.097 119.595,139.225 119.371,139.225C119.179,139.225 118.887,139.169 118.495,139.057C118.103,138.945 117.587,138.889 116.947,138.889C116.019,138.889 115.199,139.029 114.487,139.309C113.775,139.589 113.135,140.009 112.567,140.569C111.999,141.129 111.503,141.821 111.079,142.645C110.655,143.469 110.267,144.417 109.915,145.489L109.915,160.945L107.611,160.945L107.611,137.065L108.835,137.065C109.107,137.065 109.299,137.121 109.411,137.233C109.523,137.345 109.595,137.537 109.627,137.809L109.795,142.825Z" style="fill-rule:nonzero;"/>
            <path d="M137.443,149.401C135.171,149.481 133.215,149.661 131.575,149.941C129.935,150.221 128.583,150.601 127.519,151.081C126.455,151.561 125.667,152.133 125.155,152.797C124.643,153.461 124.387,154.217 124.387,155.065C124.387,155.865 124.519,156.557 124.783,157.141C125.047,157.725 125.399,158.205 125.839,158.581C126.279,158.957 126.787,159.233 127.363,159.409C127.939,159.585 128.539,159.673 129.163,159.673C130.091,159.673 130.943,159.573 131.719,159.373C132.495,159.173 133.215,158.893 133.879,158.533C134.543,158.173 135.163,157.745 135.739,157.249C136.315,156.753 136.883,156.217 137.443,155.641L137.443,149.401ZM123.403,140.449C124.651,139.201 125.963,138.257 127.339,137.617C128.715,136.977 130.275,136.657 132.019,136.657C133.299,136.657 134.419,136.861 135.379,137.269C136.339,137.677 137.135,138.261 137.767,139.021C138.399,139.781 138.875,140.701 139.195,141.781C139.515,142.861 139.675,144.065 139.675,145.393L139.675,160.945L138.763,160.945C138.283,160.945 137.987,160.721 137.875,160.273L137.539,157.201C136.883,157.841 136.231,158.417 135.583,158.929C134.935,159.441 134.259,159.873 133.555,160.225C132.851,160.577 132.091,160.849 131.275,161.041C130.459,161.233 129.563,161.329 128.587,161.329C127.771,161.329 126.979,161.209 126.211,160.969C125.443,160.729 124.759,160.361 124.159,159.865C123.559,159.369 123.079,158.733 122.719,157.957C122.359,157.181 122.179,156.249 122.179,155.161C122.179,154.153 122.467,153.217 123.043,152.353C123.619,151.489 124.523,150.737 125.755,150.097C126.987,149.457 128.567,148.945 130.495,148.561C132.423,148.177 134.739,147.953 137.443,147.889L137.443,145.393C137.443,143.185 136.967,141.485 136.015,140.293C135.063,139.101 133.651,138.505 131.779,138.505C130.627,138.505 129.647,138.665 128.839,138.985C128.031,139.305 127.347,139.657 126.787,140.041C126.227,140.425 125.771,140.777 125.419,141.097C125.067,141.417 124.771,141.577 124.531,141.577C124.355,141.577 124.211,141.537 124.099,141.457C123.987,141.377 123.891,141.273 123.811,141.145L123.403,140.449Z" style="fill-rule:nonzero;"/>
            <path d="M149.491,141.241C150.595,139.865 151.871,138.761 153.319,137.929C154.767,137.097 156.379,136.681 158.155,136.681C159.467,136.681 160.623,136.889 161.623,137.305C162.623,137.721 163.451,138.321 164.107,139.105C164.763,139.889 165.259,140.833 165.595,141.937C165.931,143.041 166.099,144.289 166.099,145.681L166.099,160.945L163.795,160.945L163.795,145.681C163.795,143.441 163.283,141.685 162.259,140.413C161.235,139.141 159.675,138.505 157.579,138.505C156.027,138.505 154.575,138.901 153.223,139.693C151.871,140.485 150.667,141.585 149.611,142.993L149.611,160.945L147.307,160.945L147.307,137.065L148.579,137.065C148.979,137.065 149.211,137.265 149.275,137.665L149.491,141.241Z" style="fill-rule:nonzero;"/>
            <path d="M190.003,142.201C189.091,140.825 188.079,139.857 186.967,139.297C185.855,138.737 184.587,138.457 183.163,138.457C181.755,138.457 180.523,138.713 179.467,139.225C178.411,139.737 177.527,140.461 176.815,141.397C176.103,142.333 175.567,143.453 175.207,144.757C174.847,146.061 174.667,147.497 174.667,149.065C174.667,152.617 175.319,155.229 176.623,156.901C177.927,158.573 179.811,159.409 182.275,159.409C183.843,159.409 185.275,159.001 186.571,158.185C187.867,157.369 189.011,156.225 190.003,154.753L190.003,142.201ZM192.283,126.025L192.283,160.945L191.035,160.945C190.619,160.945 190.379,160.737 190.315,160.321L190.075,156.553C189.019,157.993 187.787,159.137 186.379,159.985C184.971,160.833 183.387,161.257 181.627,161.257C178.683,161.257 176.395,160.241 174.763,158.209C173.131,156.177 172.315,153.129 172.315,149.065C172.315,147.321 172.543,145.693 172.999,144.181C173.455,142.669 174.123,141.357 175.003,140.245C175.883,139.133 176.967,138.257 178.255,137.617C179.543,136.977 181.027,136.657 182.707,136.657C184.323,136.657 185.723,136.953 186.907,137.545C188.091,138.137 189.123,139.017 190.003,140.185L190.003,126.025L192.283,126.025Z" style="fill-rule:nonzero;"/>
            <path d="M202.699,137.065L202.699,160.945L200.419,160.945L200.419,137.065L202.699,137.065ZM203.683,128.833C203.683,129.121 203.623,129.389 203.503,129.637C203.383,129.885 203.227,130.105 203.035,130.297C202.843,130.489 202.619,130.641 202.363,130.753C202.107,130.865 201.835,130.921 201.547,130.921C201.259,130.921 200.987,130.865 200.731,130.753C200.475,130.641 200.251,130.489 200.059,130.297C199.867,130.105 199.715,129.885 199.603,129.637C199.491,129.389 199.435,129.121 199.435,128.833C199.435,128.545 199.491,128.269 199.603,128.005C199.715,127.741 199.867,127.513 200.059,127.321C200.251,127.129 200.475,126.977 200.731,126.865C200.987,126.753 201.259,126.697 201.547,126.697C201.835,126.697 202.107,126.753 202.363,126.865C202.619,126.977 202.843,127.129 203.035,127.321C203.227,127.513 203.383,127.741 203.503,128.005C203.623,128.269 203.683,128.545 203.683,128.833Z" style="fill-rule:nonzero;"/>
            <path d="M213.019,141.241C214.123,139.865 215.399,138.761 216.847,137.929C218.295,137.097 219.907,136.681 221.683,136.681C222.995,136.681 224.151,136.889 225.151,137.305C226.151,137.721 226.979,138.321 227.635,139.105C228.291,139.889 228.787,140.833 229.123,141.937C229.459,143.041 229.627,144.289 229.627,145.681L229.627,160.945L227.323,160.945L227.323,145.681C227.323,143.441 226.811,141.685 225.787,140.413C224.763,139.141 223.203,138.505 221.107,138.505C219.555,138.505 218.103,138.901 216.751,139.693C215.399,140.485 214.195,141.585 213.139,142.993L213.139,160.945L210.835,160.945L210.835,137.065L212.107,137.065C212.507,137.065 212.739,137.265 212.803,137.665L213.019,141.241Z" style="fill-rule:nonzero;"/>
            <path d="M245.035,150.385C246.059,150.385 246.971,150.237 247.771,149.941C248.571,149.645 249.243,149.233 249.787,148.705C250.331,148.177 250.747,147.545 251.035,146.809C251.323,146.073 251.467,145.257 251.467,144.361C251.467,143.465 251.319,142.645 251.023,141.901C250.727,141.157 250.303,140.521 249.751,139.993C249.199,139.465 248.527,139.057 247.735,138.769C246.943,138.481 246.043,138.337 245.035,138.337C244.027,138.337 243.127,138.481 242.335,138.769C241.543,139.057 240.871,139.465 240.319,139.993C239.767,140.521 239.347,141.157 239.059,141.901C238.771,142.645 238.627,143.465 238.627,144.361C238.627,145.257 238.771,146.073 239.059,146.809C239.347,147.545 239.767,148.177 240.319,148.705C240.871,149.233 241.543,149.645 242.335,149.941C243.127,150.237 244.027,150.385 245.035,150.385ZM253.963,162.553C253.963,161.801 253.767,161.197 253.375,160.741C252.983,160.285 252.459,159.929 251.803,159.673C251.147,159.417 250.391,159.237 249.535,159.133C248.679,159.029 247.783,158.953 246.847,158.905C245.911,158.857 244.971,158.809 244.027,158.761C243.083,158.713 242.195,158.617 241.363,158.473C240.755,158.713 240.195,158.989 239.683,159.301C239.171,159.613 238.731,159.969 238.363,160.369C237.995,160.769 237.707,161.205 237.499,161.677C237.291,162.149 237.187,162.657 237.187,163.201C237.187,163.905 237.367,164.557 237.727,165.157C238.087,165.757 238.615,166.277 239.311,166.717C240.007,167.157 240.859,167.505 241.867,167.761C242.875,168.017 244.035,168.145 245.347,168.145C246.563,168.145 247.695,168.009 248.743,167.737C249.791,167.465 250.703,167.081 251.479,166.585C252.255,166.089 252.863,165.497 253.303,164.809C253.743,164.121 253.963,163.369 253.963,162.553ZM256.459,138.121L256.459,138.913C256.459,139.265 256.235,139.481 255.787,139.561L252.139,139.825C252.587,140.433 252.931,141.113 253.171,141.865C253.411,142.617 253.531,143.433 253.531,144.313C253.531,145.465 253.327,146.509 252.919,147.445C252.511,148.381 251.935,149.181 251.191,149.845C250.447,150.509 249.551,151.025 248.503,151.393C247.455,151.761 246.299,151.945 245.035,151.945C243.675,151.945 242.435,151.737 241.315,151.321C240.643,151.705 240.111,152.157 239.719,152.677C239.327,153.197 239.131,153.713 239.131,154.225C239.131,154.913 239.375,155.441 239.863,155.809C240.351,156.177 240.991,156.445 241.783,156.613C242.575,156.781 243.479,156.889 244.495,156.937C245.511,156.985 246.547,157.037 247.603,157.093C248.659,157.149 249.695,157.249 250.711,157.393C251.727,157.537 252.631,157.789 253.423,158.149C254.215,158.509 254.855,159.013 255.343,159.661C255.831,160.309 256.075,161.169 256.075,162.241C256.075,163.233 255.827,164.185 255.331,165.097C254.835,166.009 254.119,166.817 253.183,167.521C252.247,168.225 251.115,168.789 249.787,169.213C248.459,169.637 246.971,169.849 245.323,169.849C243.643,169.849 242.171,169.677 240.907,169.333C239.643,168.989 238.583,168.525 237.727,167.941C236.871,167.357 236.227,166.681 235.795,165.913C235.363,165.145 235.147,164.329 235.147,163.465C235.147,162.201 235.563,161.117 236.395,160.213C237.227,159.309 238.363,158.601 239.803,158.089C239.003,157.817 238.359,157.421 237.871,156.901C237.383,156.381 237.139,155.673 237.139,154.777C237.139,154.441 237.203,154.089 237.331,153.721C237.459,153.353 237.651,152.989 237.907,152.629C238.163,152.269 238.475,151.929 238.843,151.609C239.211,151.289 239.627,151.001 240.091,150.745C238.955,150.089 238.071,149.217 237.439,148.129C236.807,147.041 236.491,145.769 236.491,144.313C236.491,143.161 236.695,142.117 237.103,141.181C237.511,140.245 238.091,139.441 238.843,138.769C239.595,138.097 240.495,137.577 241.543,137.209C242.591,136.841 243.755,136.657 245.035,136.657C246.091,136.657 247.063,136.785 247.951,137.041C248.839,137.297 249.635,137.657 250.339,138.121L256.459,138.121Z" style="fill-rule:nonzero;"/>
        </g>
    </g>
</svg>
