<?xml version="1.0" encoding="UTF-8" standalone="no"?>
<!DOCTYPE svg PUBLIC "-//W3C//DTD SVG 1.1//EN" "http://www.w3.org/Graphics/SVG/1.1/DTD/svg11.dtd">
<svg width="100%" height="100%" viewBox="0 0 360 68" version="1.1" xmlns="http://www.w3.org/2000/svg" xmlns:xlink="http://www.w3.org/1999/xlink" xml:space="preserve" xmlns:serif="http://www.serif.com/" style="fill-rule:evenodd;clip-rule:evenodd;stroke-linejoin:round;stroke-miterlimit:2;">
    <g transform="matrix(1,0,0,1,-72.2977,-280.946)">
        <g transform="matrix(1,0,0,1,-11.0495,186.433)">
            <path d="M118.291,126.385C123.091,123.601 126.259,118.801 126.259,112.465C126.259,102.577 118.003,95.665 107.731,95.665L83.347,95.665L83.347,160.945L109.363,160.945C120.787,160.945 129.235,153.457 129.235,142.801C129.235,135.505 124.915,129.169 118.291,126.385ZM89.587,101.425L107.251,101.425C114.547,101.425 120.019,105.649 120.019,112.465C120.019,119.953 115.315,124.081 107.539,124.081L89.587,124.081L89.587,101.425ZM109.171,155.185L89.587,155.185L89.587,129.841L109.555,129.841C117.331,129.841 122.995,134.929 122.995,142.417C122.995,150.289 117.139,155.185 109.171,155.185Z" style="fill-rule:nonzero;"/>
            <path d="M168.115,162.097C181.843,162.097 192.979,153.937 192.979,138.577L192.979,95.665L186.739,95.665L186.739,138.481C186.739,150.481 178.963,156.337 168.115,156.337C157.075,156.337 149.395,150.481 149.395,138.481L149.395,95.665L143.155,95.665L143.155,138.577C143.155,153.937 154.291,162.097 168.115,162.097Z" style="fill-rule:nonzero;"/>
            <path d="M211.123,160.945L232.147,160.945C252.211,160.945 265.363,147.313 265.363,128.401C265.363,109.393 251.827,95.665 232.051,95.665L211.123,95.665L211.123,160.945ZM217.363,155.185L217.363,101.425L232.051,101.425C248.371,101.425 259.123,113.137 259.123,128.401C259.123,143.569 248.467,155.185 232.147,155.185L217.363,155.185Z" style="fill-rule:nonzero;"/>
            <path d="M308.851,126.289L308.851,132.049L329.683,132.049L329.683,147.697C324.979,153.265 317.971,156.337 309.811,156.337C293.203,156.337 282.259,144.337 282.259,128.209C282.259,112.465 292.531,100.273 309.043,100.273C317.299,100.273 324.211,103.537 329.683,109.681L333.811,105.745C327.475,98.449 319.027,94.513 309.043,94.513C288.787,94.513 275.923,109.681 275.923,128.209C275.923,147.601 289.843,162.097 309.331,162.097C320.371,162.097 329.587,157.489 335.539,149.425L335.539,126.289L308.851,126.289Z" style="fill-rule:nonzero;"/>
            <path d="M356.563,155.185L356.563,130.225L385.267,130.225L385.267,124.657L356.563,124.657L356.563,101.425L389.299,101.425L389.299,95.665L350.323,95.665L350.323,160.945L390.163,160.945L390.163,155.185L356.563,155.185Z" style="fill-rule:nonzero;"/>
            <path d="M442.675,95.665L396.211,95.665L396.211,101.425L416.371,101.425L416.371,160.945L422.611,160.945L422.611,101.425L442.675,101.425L442.675,95.665Z" style="fill-rule:nonzero;"/>
        </g>
    </g>
</svg>
