<?xml version="1.0" encoding="UTF-8" standalone="no"?>
<!DOCTYPE svg PUBLIC "-//W3C//DTD SVG 1.1//EN" "http://www.w3.org/Graphics/SVG/1.1/DTD/svg11.dtd">
<svg width="100%" height="100%" viewBox="0 0 556 68" version="1.1" xmlns="http://www.w3.org/2000/svg" xmlns:xlink="http://www.w3.org/1999/xlink" xml:space="preserve" xmlns:serif="http://www.serif.com/" style="fill-rule:evenodd;clip-rule:evenodd;stroke-linejoin:round;stroke-miterlimit:2;">
    <g transform="matrix(1,0,0,1,-414.88,-361.135)">
        <g transform="matrix(1.2371,0,0,0.273421,409.312,359.215)">
            <path d="M54.708,9.129L53.156,9.129L36.627,130.612C35.541,138.687 34.455,146.763 33.368,155.892C32.282,146.763 31.195,138.687 30.109,130.612L13.502,9.129L11.95,9.129L4.501,249.988L9.467,249.988L14.511,84.617C14.744,77.595 15.055,70.221 15.21,62.146L17.926,82.159L32.825,191.002L33.911,191.002L48.656,82.51C49.587,76.19 50.596,69.168 51.527,61.795C51.604,69.519 51.837,77.595 52.07,84.617L57.192,249.988L62.158,249.988L54.708,9.129Z" style="fill-rule:nonzero;"/>
            <rect x="74.264" y="11.235" width="5.044" height="238.753" style="fill-rule:nonzero;"/>
            <path d="M94.517,249.988L125.014,249.988L125.014,228.922L99.561,228.922L99.561,11.235L94.517,11.235L94.517,249.988Z" style="fill-rule:nonzero;"/>
            <path d="M139.836,228.922L139.836,137.634L163.039,137.634L163.039,117.27L139.836,117.27L139.836,32.302L166.298,32.302L166.298,11.235L134.792,11.235L134.792,249.988L166.996,249.988L166.996,228.922L139.836,228.922Z" style="fill-rule:nonzero;"/>
            <path d="M192.294,254.202C201.994,254.202 209.754,229.273 209.754,187.491C209.754,147.465 202.227,129.559 193.536,115.865C187.172,105.683 180.732,95.15 180.732,65.657C180.732,40.377 186.319,28.089 191.984,28.089C196.95,28.089 201.218,34.76 205.409,48.102L207.737,30.897C202.693,14.044 197.649,7.022 191.751,7.022C183.215,7.022 175.688,29.142 175.688,66.71C175.688,107.088 183.913,124.643 191.673,136.581C198.58,147.816 204.71,159.403 204.71,188.545C204.71,216.984 198.89,233.135 192.294,233.135C186.241,233.135 180.732,223.304 176.774,207.153L174.136,225.411C178.636,242.615 185.155,254.202 192.294,254.202Z" style="fill-rule:nonzero;"/>
            <path d="M251.581,11.235L214.022,11.235L214.022,32.302L230.318,32.302L230.318,249.988L235.362,249.988L235.362,32.302L251.581,32.302L251.581,11.235Z" style="fill-rule:nonzero;"/>
            <path d="M280.759,254.202C296.589,254.202 307.453,198.376 307.453,130.261C307.453,59.337 296.589,7.022 280.759,7.022C265.161,7.022 254.064,59.337 254.064,130.261C254.064,198.376 265.161,254.202 280.759,254.202ZM280.759,233.135C267.877,233.135 259.108,186.789 259.108,130.261C259.108,71.275 267.877,28.089 280.759,28.089C293.718,28.089 302.409,71.275 302.409,130.261C302.409,186.789 293.718,233.135 280.759,233.135Z" style="fill-rule:nonzero;"/>
            <path d="M358.049,11.235L358.049,179.065C358.049,186.789 358.049,195.216 358.126,204.344C356.807,196.971 355.488,190.3 354.324,183.98L321.499,9.48L319.326,9.48L319.326,249.988L324.37,249.988L324.37,79.701C324.37,71.626 324.293,63.901 324.137,56.528C325.379,63.199 326.776,70.221 327.94,76.19L360.842,251.744L363.093,251.744L363.093,11.235L358.049,11.235Z" style="fill-rule:nonzero;"/>
            <path d="M383.269,228.922L383.269,137.634L406.472,137.634L406.472,117.27L383.269,117.27L383.269,32.302L409.731,32.302L409.731,11.235L378.225,11.235L378.225,249.988L410.429,249.988L410.429,228.922L383.269,228.922Z" style="fill-rule:nonzero;"/>
            <path d="M435.727,254.202C445.427,254.202 453.187,229.273 453.187,187.491C453.187,147.465 445.66,129.559 436.969,115.865C430.605,105.683 424.165,95.15 424.165,65.657C424.165,40.377 429.752,28.089 435.417,28.089C440.383,28.089 444.651,34.76 448.841,48.102L451.169,30.897C446.125,14.044 441.081,7.022 435.184,7.022C426.648,7.022 419.12,29.142 419.12,66.71C419.12,107.088 427.346,124.643 435.106,136.581C442.013,147.816 448.143,159.403 448.143,188.545C448.143,216.984 442.323,233.135 435.727,233.135C429.674,233.135 424.165,223.304 420.207,207.153L417.568,225.411C422.069,242.615 428.588,254.202 435.727,254.202Z" style="fill-rule:nonzero;"/>
        </g>
    </g>
</svg>
