<?xml version="1.0" encoding="UTF-8" standalone="no"?>
<!DOCTYPE svg PUBLIC "-//W3C//DTD SVG 1.1//EN" "http://www.w3.org/Graphics/SVG/1.1/DTD/svg11.dtd">
<svg width="100%" height="100%" viewBox="0 0 875 69" version="1.1" xmlns="http://www.w3.org/2000/svg" xmlns:xlink="http://www.w3.org/1999/xlink" xml:space="preserve" xmlns:serif="http://www.serif.com/" style="fill-rule:evenodd;clip-rule:evenodd;stroke-linejoin:round;stroke-miterlimit:2;">
    <g transform="matrix(1,0,0,1,-25.5131,-1008.71)">
        <g transform="matrix(1,0,0,1,-53.8021,914.578)">
            <path d="M79.315,160.945L98.899,160.945L98.899,141.361L106.387,141.361C120.403,141.361 130.195,132.337 130.195,118.705C130.195,105.073 120.403,95.665 106.387,95.665L79.315,95.665L79.315,160.945ZM98.899,125.425L98.899,111.985L103.027,111.985C107.923,111.985 110.515,114.481 110.515,118.705C110.515,122.929 107.923,125.425 103.027,125.425L98.899,125.425Z" style="fill-rule:nonzero;"/>
            <path d="M177.523,136.849C184.627,132.817 189.043,125.905 189.043,117.937C189.043,105.073 179.827,95.665 164.563,95.665L137.203,95.665L137.203,160.945L156.787,160.945L156.787,140.305L159.379,140.305L169.843,160.945L191.827,160.945L191.827,160.657L177.523,136.849ZM161.875,125.233L156.787,125.233L156.787,111.793L161.875,111.793C166.387,111.793 169.267,114.481 169.267,118.417C169.267,122.545 166.387,125.233 161.875,125.233Z" style="fill-rule:nonzero;"/>
            <path d="M217.267,144.241L217.267,136.369L238.579,136.369L238.579,120.145L217.267,120.145L217.267,112.369L241.939,112.369L241.939,95.665L197.683,95.665L197.683,160.945L242.803,160.945L242.803,144.241L217.267,144.241Z" style="fill-rule:nonzero;"/>
            <path d="M293.587,95.665L284.563,116.113C283.219,119.089 281.875,122.257 280.723,125.809C279.571,122.257 278.323,119.089 277.075,116.113L268.147,95.665L246.163,95.665L246.163,95.953L277.747,161.137L283.507,161.137L315.091,95.857L315.091,95.665L293.587,95.665Z" style="fill-rule:nonzero;"/>
            <rect x="320.083" y="95.665" width="19.584" height="65.28" style="fill-rule:nonzero;"/>
            <path d="M383.635,162.481C404.851,162.481 419.251,148.273 419.251,128.305C419.251,108.337 404.851,94.129 383.635,94.129C362.419,94.129 348.019,108.337 348.019,128.305C348.019,148.273 362.419,162.481 383.635,162.481ZM383.635,144.817C373.651,144.817 368.179,137.713 368.179,128.305C368.179,118.993 373.555,111.793 383.635,111.793C393.619,111.793 399.091,118.993 399.091,128.305C399.091,137.713 393.619,144.817 383.635,144.817Z" style="fill-rule:nonzero;"/>
            <path d="M454.291,162.481C471.571,162.481 482.419,152.785 482.419,137.329L482.419,95.665L462.835,95.665L462.835,135.217C462.835,141.169 459.859,144.817 454.291,144.817C449.011,144.817 445.843,141.169 445.843,135.217L445.843,95.665L426.259,95.665L426.259,137.329C426.259,152.785 437.107,162.481 454.291,162.481Z" style="fill-rule:nonzero;"/>
            <path d="M514.963,162.481C529.939,162.481 540.979,154.321 540.979,141.073C540.979,130.225 533.683,123.793 520.915,119.953C516.115,118.513 511.027,116.785 511.027,114.097C511.027,112.273 513.043,110.929 517.267,110.929C521.491,110.929 525.715,111.985 531.763,115.153L539.635,100.849C531.379,96.049 524.371,94.129 516.403,94.129C502.483,94.129 491.155,101.521 491.155,114.865C491.155,124.369 496.819,132.049 509.971,135.889C516.595,137.809 521.107,139.537 521.107,142.129C521.107,144.529 518.227,145.489 513.907,145.489C508.147,145.489 502.195,143.281 496.915,139.345L488.563,154.225C497.011,159.985 506.131,162.481 514.963,162.481Z" style="fill-rule:nonzero;"/>
            <path d="M569.011,160.945L588.595,160.945L588.595,141.361L596.083,141.361C610.099,141.361 619.891,132.337 619.891,118.705C619.891,105.073 610.099,95.665 596.083,95.665L569.011,95.665L569.011,160.945ZM588.595,125.425L588.595,111.985L592.723,111.985C597.619,111.985 600.211,114.481 600.211,118.705C600.211,122.929 597.619,125.425 592.723,125.425L588.595,125.425Z" style="fill-rule:nonzero;"/>
            <path d="M653.587,162.481C670.867,162.481 681.715,152.785 681.715,137.329L681.715,95.665L662.131,95.665L662.131,135.217C662.131,141.169 659.155,144.817 653.587,144.817C648.307,144.817 645.139,141.169 645.139,135.217L645.139,95.665L625.555,95.665L625.555,137.329C625.555,152.785 636.403,162.481 653.587,162.481Z" style="fill-rule:nonzero;"/>
            <path d="M686.803,160.945L737.875,160.945L737.875,142.897L720.691,142.897C718.675,142.897 716.659,142.897 714.547,142.993C715.699,141.073 716.755,139.153 717.811,137.329L738.355,101.425L738.355,95.665L688.243,95.665L688.243,113.713L703.987,113.713C706.099,113.713 708.307,113.713 710.515,113.617C709.171,115.825 708.019,118.033 706.771,120.145L686.803,155.185L686.803,160.945Z" style="fill-rule:nonzero;"/>
            <path d="M742.483,160.945L793.555,160.945L793.555,142.897L776.371,142.897C774.355,142.897 772.339,142.897 770.227,142.993C771.379,141.073 772.435,139.153 773.491,137.329L794.035,101.425L794.035,95.665L743.923,95.665L743.923,113.713L759.667,113.713C761.779,113.713 763.987,113.713 766.195,113.617C764.851,115.825 763.699,118.033 762.451,120.145L742.483,155.185L742.483,160.945Z" style="fill-rule:nonzero;"/>
            <path d="M801.427,160.945L843.667,160.945L843.667,142.897L821.011,142.897L821.011,95.665L801.427,95.665L801.427,160.945Z" style="fill-rule:nonzero;"/>
            <path d="M870.259,144.241L870.259,136.369L891.571,136.369L891.571,120.145L870.259,120.145L870.259,112.369L894.931,112.369L894.931,95.665L850.675,95.665L850.675,160.945L895.795,160.945L895.795,144.241L870.259,144.241Z" style="fill-rule:nonzero;"/>
            <path d="M928.051,162.481C943.027,162.481 954.067,154.321 954.067,141.073C954.067,130.225 946.771,123.793 934.003,119.953C929.203,118.513 924.115,116.785 924.115,114.097C924.115,112.273 926.131,110.929 930.355,110.929C934.579,110.929 938.803,111.985 944.851,115.153L952.723,100.849C944.467,96.049 937.459,94.129 929.491,94.129C915.571,94.129 904.243,101.521 904.243,114.865C904.243,124.369 909.907,132.049 923.059,135.889C929.683,137.809 934.195,139.537 934.195,142.129C934.195,144.529 931.315,145.489 926.995,145.489C921.235,145.489 915.283,143.281 910.003,139.345L901.651,154.225C910.099,159.985 919.219,162.481 928.051,162.481Z" style="fill-rule:nonzero;"/>
        </g>
    </g>
</svg>
