<?xml version="1.0" encoding="UTF-8" standalone="no"?>
<!DOCTYPE svg PUBLIC "-//W3C//DTD SVG 1.1//EN" "http://www.w3.org/Graphics/SVG/1.1/DTD/svg11.dtd">
<svg width="100%" height="100%" viewBox="0 0 466 69" version="1.1" xmlns="http://www.w3.org/2000/svg" xmlns:xlink="http://www.w3.org/1999/xlink" xml:space="preserve" xmlns:serif="http://www.serif.com/" style="fill-rule:evenodd;clip-rule:evenodd;stroke-linejoin:round;stroke-miterlimit:2;">
    <g transform="matrix(1,0,0,1,-72.5496,-197.558)">
        <g transform="matrix(1,0,0,1,-6.66959,103.429)">
            <path d="M119.539,136.849C126.643,132.817 131.059,125.905 131.059,117.937C131.059,105.073 121.843,95.665 106.579,95.665L79.219,95.665L79.219,160.945L98.803,160.945L98.803,140.305L101.395,140.305L111.859,160.945L133.843,160.945L133.843,160.657L119.539,136.849ZM103.891,125.233L98.803,125.233L98.803,111.793L103.891,111.793C108.403,111.793 111.283,114.481 111.283,118.417C111.283,122.545 108.403,125.233 103.891,125.233Z" style="fill-rule:nonzero;"/>
            <path d="M171.955,162.481C193.171,162.481 207.571,148.273 207.571,128.305C207.571,108.337 193.171,94.129 171.955,94.129C150.739,94.129 136.339,108.337 136.339,128.305C136.339,148.273 150.739,162.481 171.955,162.481ZM171.955,144.817C161.971,144.817 156.499,137.713 156.499,128.305C156.499,118.993 161.875,111.793 171.955,111.793C181.939,111.793 187.411,118.993 187.411,128.305C187.411,137.713 181.939,144.817 171.955,144.817Z" style="fill-rule:nonzero;"/>
            <path d="M242.995,95.473L237.235,95.473L205.939,160.657L205.939,160.945L226.483,160.945L229.459,153.745L250.771,153.745L253.747,160.945L274.195,160.945L274.195,160.561L242.995,95.473ZM240.115,124.657C242.035,130.609 243.379,134.065 245.011,138.193L245.779,140.209L234.355,140.209L235.219,138.193C236.851,134.257 238.195,130.609 240.115,124.657Z" style="fill-rule:nonzero;"/>
            <path d="M278.515,160.945L305.683,160.945C325.747,160.945 338.899,147.313 338.899,128.401C338.899,109.393 325.363,95.665 305.587,95.665L278.515,95.665L278.515,160.945ZM298.099,144.817L298.099,111.793L304.243,111.793C313.843,111.793 318.931,117.937 318.931,128.401C318.931,138.961 314.035,144.817 304.339,144.817L298.099,144.817Z" style="fill-rule:nonzero;"/>
            <path d="M409.939,95.473L404.179,95.473L385.363,121.297C383.827,123.409 382.387,125.521 381.235,127.441C380.083,125.521 378.643,123.409 377.107,121.297L358.291,95.473L352.531,95.473L342.355,160.945L361.555,160.945L364.723,140.209C365.107,137.521 365.395,135.601 365.491,133.105C366.835,135.505 368.083,137.521 369.811,139.825L379.315,152.305L383.059,152.305L392.659,139.825C394.387,137.617 395.731,135.601 396.787,133.777C396.979,135.601 397.267,137.617 397.651,140.113L400.915,160.945L420.115,160.945L409.939,95.473Z" style="fill-rule:nonzero;"/>
            <path d="M458.611,95.473L452.851,95.473L421.555,160.657L421.555,160.945L442.099,160.945L445.075,153.745L466.387,153.745L469.363,160.945L489.811,160.945L489.811,160.561L458.611,95.473ZM455.731,124.657C457.651,130.609 458.995,134.065 460.627,138.193L461.395,140.209L449.971,140.209L450.835,138.193C452.467,134.257 453.811,130.609 455.731,124.657Z" style="fill-rule:nonzero;"/>
            <path d="M494.131,160.945L513.715,160.945L513.715,141.361L521.203,141.361C535.123,141.361 545.011,132.337 545.011,118.705C545.011,105.073 535.123,95.665 521.203,95.665L494.131,95.665L494.131,160.945ZM513.715,125.425L513.715,111.985L517.843,111.985C522.739,111.985 525.331,114.481 525.331,118.705C525.331,122.929 522.739,125.425 517.843,125.425L513.715,125.425Z" style="fill-rule:nonzero;"/>
        </g>
    </g>
</svg>
