<?xml version="1.0" encoding="UTF-8" standalone="no"?>
<!DOCTYPE svg PUBLIC "-//W3C//DTD SVG 1.1//EN" "http://www.w3.org/Graphics/SVG/1.1/DTD/svg11.dtd">
<svg width="100%" height="100%" viewBox="0 0 297 68" version="1.1" xmlns="http://www.w3.org/2000/svg" xmlns:xlink="http://www.w3.org/1999/xlink" xml:space="preserve" xmlns:serif="http://www.serif.com/" style="fill-rule:evenodd;clip-rule:evenodd;stroke-linejoin:round;stroke-miterlimit:2;">
    <g transform="matrix(1,0,0,1,-71.4803,-359.222)">
        <g transform="matrix(1,0,0,1,-7.83492,264.709)">
            <path d="M101.779,162.097C113.779,162.097 123.379,155.281 123.379,143.857C123.379,132.913 114.067,128.017 103.315,124.273C95.443,121.489 87.475,118.609 87.475,110.545C87.475,103.633 94.387,100.273 101.395,100.273C107.539,100.273 112.819,102.097 118.003,105.745L120.883,101.041C114.643,96.433 108.403,94.513 101.107,94.513C90.547,94.513 81.235,100.561 81.235,110.833C81.235,121.873 91.411,126.673 101.011,129.937C109.555,133.009 117.139,136.177 117.139,144.145C117.139,151.921 109.939,156.337 101.779,156.337C94.291,156.337 87.475,153.649 82.579,149.233L79.315,154.225C84.883,158.929 92.947,162.097 101.779,162.097Z" style="fill-rule:nonzero;"/>
            <path d="M166.579,162.097C178.099,162.097 187.027,156.721 192.403,148.945L187.891,145.393C183.091,151.921 175.795,156.337 166.579,156.337C150.643,156.337 139.795,143.665 139.795,128.209C139.795,112.369 150.835,100.273 166.579,100.273C175.891,100.273 182.227,103.633 187.411,109.009L191.155,105.169C184.243,98.161 176.851,94.513 166.579,94.513C147.187,94.513 133.459,108.913 133.459,128.209C133.459,146.833 146.899,162.097 166.579,162.097Z" style="fill-rule:nonzero;"/>
            <path d="M231.091,162.097C250.675,162.097 264.115,146.833 264.115,128.209C264.115,108.817 250.675,94.513 231.091,94.513C211.795,94.513 198.067,108.817 198.067,128.209C198.067,146.833 211.795,162.097 231.091,162.097ZM231.091,156.337C215.155,156.337 204.307,143.665 204.307,128.209C204.307,112.081 215.155,100.273 231.091,100.273C247.123,100.273 257.875,112.081 257.875,128.209C257.875,143.665 247.123,156.337 231.091,156.337Z" style="fill-rule:nonzero;"/>
            <path d="M278.803,160.945L285.043,160.945L285.043,134.737L302.419,134.737C316.915,134.737 323.347,124.657 323.347,115.537C323.347,106.321 316.531,95.665 302.803,95.665L278.803,95.665L278.803,160.945ZM285.043,128.977L285.043,101.425L302.803,101.425C311.443,101.425 317.107,107.857 317.107,115.441C317.107,122.257 312.307,128.977 302.419,128.977L285.043,128.977Z" style="fill-rule:nonzero;"/>
            <path d="M341.971,155.185L341.971,130.225L370.675,130.225L370.675,124.657L341.971,124.657L341.971,101.425L374.707,101.425L374.707,95.665L335.731,95.665L335.731,160.945L375.571,160.945L375.571,155.185L341.971,155.185Z" style="fill-rule:nonzero;"/>
        </g>
    </g>
</svg>
