<?xml version="1.0" encoding="UTF-8" standalone="no"?>
<!DOCTYPE svg PUBLIC "-//W3C//DTD SVG 1.1//EN" "http://www.w3.org/Graphics/SVG/1.1/DTD/svg11.dtd">
<svg width="100%" height="100%" viewBox="0 0 408 44" version="1.1" xmlns="http://www.w3.org/2000/svg" xmlns:xlink="http://www.w3.org/1999/xlink" xml:space="preserve" xmlns:serif="http://www.serif.com/" style="fill-rule:evenodd;clip-rule:evenodd;stroke-linejoin:round;stroke-miterlimit:2;">
    <g transform="matrix(1,0,0,1,-289.089,-511.748)">
        <g transform="matrix(1,0,0,1,213.013,385.723)">
            <path d="M95.443,131.113C95.299,131.385 95.091,131.521 94.819,131.521C94.611,131.521 94.343,131.373 94.015,131.077C93.687,130.781 93.243,130.453 92.683,130.093C92.123,129.733 91.423,129.401 90.583,129.097C89.743,128.793 88.707,128.641 87.475,128.641C86.243,128.641 85.159,128.817 84.223,129.169C83.287,129.521 82.503,130.001 81.871,130.609C81.239,131.217 80.759,131.921 80.431,132.721C80.103,133.521 79.939,134.361 79.939,135.241C79.939,136.393 80.183,137.345 80.671,138.097C81.159,138.849 81.803,139.489 82.603,140.017C83.403,140.545 84.311,140.989 85.327,141.349C86.343,141.709 87.387,142.065 88.459,142.417C89.531,142.769 90.575,143.157 91.591,143.581C92.607,144.005 93.515,144.537 94.315,145.177C95.115,145.817 95.759,146.605 96.247,147.541C96.735,148.477 96.979,149.641 96.979,151.033C96.979,152.457 96.735,153.797 96.247,155.053C95.759,156.309 95.051,157.401 94.123,158.329C93.195,159.257 92.059,159.989 90.715,160.525C89.371,161.061 87.835,161.329 86.107,161.329C83.867,161.329 81.939,160.933 80.323,160.141C78.707,159.349 77.291,158.265 76.075,156.889L76.747,155.833C76.939,155.593 77.163,155.473 77.419,155.473C77.563,155.473 77.747,155.569 77.971,155.761C78.195,155.953 78.467,156.189 78.787,156.469C79.107,156.749 79.491,157.053 79.939,157.381C80.387,157.709 80.907,158.013 81.499,158.293C82.091,158.573 82.771,158.809 83.539,159.001C84.307,159.193 85.179,159.289 86.155,159.289C87.499,159.289 88.699,159.085 89.755,158.677C90.811,158.269 91.703,157.713 92.431,157.009C93.159,156.305 93.715,155.469 94.099,154.501C94.483,153.533 94.675,152.497 94.675,151.393C94.675,150.193 94.431,149.205 93.943,148.429C93.455,147.653 92.811,147.005 92.011,146.485C91.211,145.965 90.303,145.529 89.287,145.177C88.271,144.825 87.227,144.481 86.155,144.145C85.083,143.809 84.039,143.433 83.023,143.017C82.007,142.601 81.099,142.069 80.299,141.421C79.499,140.773 78.855,139.965 78.367,138.997C77.879,138.029 77.635,136.817 77.635,135.361C77.635,134.225 77.851,133.129 78.283,132.073C78.715,131.017 79.347,130.085 80.179,129.277C81.011,128.469 82.039,127.821 83.263,127.333C84.487,126.845 85.883,126.601 87.451,126.601C89.211,126.601 90.791,126.881 92.191,127.441C93.591,128.001 94.867,128.857 96.019,130.009L95.443,131.113Z" style="fill-rule:nonzero;"/>
            <path d="M108.979,161.329C107.363,161.329 106.103,160.881 105.199,159.985C104.295,159.089 103.843,157.705 103.843,155.833L103.843,139.513L100.411,139.513C100.235,139.513 100.091,139.465 99.979,139.369C99.867,139.273 99.811,139.137 99.811,138.961L99.811,138.073L103.891,137.785L104.467,129.241C104.499,129.097 104.563,128.969 104.659,128.857C104.755,128.745 104.891,128.689 105.067,128.689L106.147,128.689L106.147,137.809L113.683,137.809L113.683,139.513L106.147,139.513L106.147,155.713C106.147,156.369 106.231,156.933 106.399,157.405C106.567,157.877 106.799,158.265 107.095,158.569C107.391,158.873 107.739,159.097 108.139,159.241C108.539,159.385 108.971,159.457 109.435,159.457C110.011,159.457 110.507,159.373 110.923,159.205C111.339,159.037 111.699,158.853 112.003,158.653C112.307,158.453 112.555,158.269 112.747,158.101C112.939,157.933 113.091,157.849 113.203,157.849C113.331,157.849 113.459,157.929 113.587,158.089L114.211,159.097C113.603,159.769 112.831,160.309 111.895,160.717C110.959,161.125 109.987,161.329 108.979,161.329Z" style="fill-rule:nonzero;"/>
            <path d="M121.075,142.825C121.443,141.849 121.863,140.981 122.335,140.221C122.807,139.461 123.351,138.817 123.967,138.289C124.583,137.761 125.271,137.357 126.031,137.077C126.791,136.797 127.635,136.657 128.563,136.657C129.059,136.657 129.547,136.701 130.027,136.789C130.507,136.877 130.931,137.033 131.299,137.257L131.107,138.841C131.027,139.097 130.875,139.225 130.651,139.225C130.459,139.225 130.167,139.169 129.775,139.057C129.383,138.945 128.867,138.889 128.227,138.889C127.299,138.889 126.479,139.029 125.767,139.309C125.055,139.589 124.415,140.009 123.847,140.569C123.279,141.129 122.783,141.821 122.359,142.645C121.935,143.469 121.547,144.417 121.195,145.489L121.195,160.945L118.891,160.945L118.891,137.065L120.115,137.065C120.387,137.065 120.579,137.121 120.691,137.233C120.803,137.345 120.875,137.537 120.907,137.809L121.075,142.825Z" style="fill-rule:nonzero;"/>
            <path d="M148.723,149.401C146.451,149.481 144.495,149.661 142.855,149.941C141.215,150.221 139.863,150.601 138.799,151.081C137.735,151.561 136.947,152.133 136.435,152.797C135.923,153.461 135.667,154.217 135.667,155.065C135.667,155.865 135.799,156.557 136.063,157.141C136.327,157.725 136.679,158.205 137.119,158.581C137.559,158.957 138.067,159.233 138.643,159.409C139.219,159.585 139.819,159.673 140.443,159.673C141.371,159.673 142.223,159.573 142.999,159.373C143.775,159.173 144.495,158.893 145.159,158.533C145.823,158.173 146.443,157.745 147.019,157.249C147.595,156.753 148.163,156.217 148.723,155.641L148.723,149.401ZM134.683,140.449C135.931,139.201 137.243,138.257 138.619,137.617C139.995,136.977 141.555,136.657 143.299,136.657C144.579,136.657 145.699,136.861 146.659,137.269C147.619,137.677 148.415,138.261 149.047,139.021C149.679,139.781 150.155,140.701 150.475,141.781C150.795,142.861 150.955,144.065 150.955,145.393L150.955,160.945L150.043,160.945C149.563,160.945 149.267,160.721 149.155,160.273L148.819,157.201C148.163,157.841 147.511,158.417 146.863,158.929C146.215,159.441 145.539,159.873 144.835,160.225C144.131,160.577 143.371,160.849 142.555,161.041C141.739,161.233 140.843,161.329 139.867,161.329C139.051,161.329 138.259,161.209 137.491,160.969C136.723,160.729 136.039,160.361 135.439,159.865C134.839,159.369 134.359,158.733 133.999,157.957C133.639,157.181 133.459,156.249 133.459,155.161C133.459,154.153 133.747,153.217 134.323,152.353C134.899,151.489 135.803,150.737 137.035,150.097C138.267,149.457 139.847,148.945 141.775,148.561C143.703,148.177 146.019,147.953 148.723,147.889L148.723,145.393C148.723,143.185 148.247,141.485 147.295,140.293C146.343,139.101 144.931,138.505 143.059,138.505C141.907,138.505 140.927,138.665 140.119,138.985C139.311,139.305 138.627,139.657 138.067,140.041C137.507,140.425 137.051,140.777 136.699,141.097C136.347,141.417 136.051,141.577 135.811,141.577C135.635,141.577 135.491,141.537 135.379,141.457C135.267,141.377 135.171,141.273 135.091,141.145L134.683,140.449Z" style="fill-rule:nonzero;"/>
            <path d="M164.851,161.329C163.235,161.329 161.975,160.881 161.071,159.985C160.167,159.089 159.715,157.705 159.715,155.833L159.715,139.513L156.283,139.513C156.107,139.513 155.963,139.465 155.851,139.369C155.739,139.273 155.683,139.137 155.683,138.961L155.683,138.073L159.763,137.785L160.339,129.241C160.371,129.097 160.435,128.969 160.531,128.857C160.627,128.745 160.763,128.689 160.939,128.689L162.019,128.689L162.019,137.809L169.555,137.809L169.555,139.513L162.019,139.513L162.019,155.713C162.019,156.369 162.103,156.933 162.271,157.405C162.439,157.877 162.671,158.265 162.967,158.569C163.263,158.873 163.611,159.097 164.011,159.241C164.411,159.385 164.843,159.457 165.307,159.457C165.883,159.457 166.379,159.373 166.795,159.205C167.211,159.037 167.571,158.853 167.875,158.653C168.179,158.453 168.427,158.269 168.619,158.101C168.811,157.933 168.963,157.849 169.075,157.849C169.203,157.849 169.331,157.929 169.459,158.089L170.083,159.097C169.475,159.769 168.703,160.309 167.767,160.717C166.831,161.125 165.859,161.329 164.851,161.329Z" style="fill-rule:nonzero;"/>
            <path d="M191.443,146.593C191.443,145.313 191.263,144.165 190.903,143.149C190.543,142.133 190.035,141.273 189.379,140.569C188.723,139.865 187.943,139.325 187.039,138.949C186.135,138.573 185.139,138.385 184.051,138.385C182.819,138.385 181.715,138.577 180.739,138.961C179.763,139.345 178.919,139.897 178.207,140.617C177.495,141.337 176.923,142.201 176.491,143.209C176.059,144.217 175.771,145.345 175.627,146.593L191.443,146.593ZM175.507,148.057L175.507,148.513C175.507,150.305 175.715,151.881 176.131,153.241C176.547,154.601 177.139,155.741 177.907,156.661C178.675,157.581 179.603,158.273 180.691,158.737C181.779,159.201 182.995,159.433 184.339,159.433C185.539,159.433 186.579,159.301 187.459,159.037C188.339,158.773 189.079,158.477 189.679,158.149C190.279,157.821 190.755,157.525 191.107,157.261C191.459,156.997 191.715,156.865 191.875,156.865C192.083,156.865 192.243,156.945 192.355,157.105L192.979,157.873C192.595,158.353 192.087,158.801 191.455,159.217C190.823,159.633 190.119,159.989 189.343,160.285C188.567,160.581 187.735,160.817 186.847,160.993C185.959,161.169 185.067,161.257 184.171,161.257C182.539,161.257 181.051,160.973 179.707,160.405C178.363,159.837 177.211,159.009 176.251,157.921C175.291,156.833 174.551,155.501 174.031,153.925C173.511,152.349 173.251,150.545 173.251,148.513C173.251,146.801 173.495,145.221 173.983,143.773C174.471,142.325 175.175,141.077 176.095,140.029C177.015,138.981 178.143,138.161 179.479,137.569C180.815,136.977 182.331,136.681 184.027,136.681C185.371,136.681 186.619,136.913 187.771,137.377C188.923,137.841 189.923,138.517 190.771,139.405C191.619,140.293 192.287,141.385 192.775,142.681C193.263,143.977 193.507,145.465 193.507,147.145C193.507,147.497 193.459,147.737 193.363,147.865C193.267,147.993 193.107,148.057 192.883,148.057L175.507,148.057Z" style="fill-rule:nonzero;"/>
            <path d="M207.523,150.385C208.547,150.385 209.459,150.237 210.259,149.941C211.059,149.645 211.731,149.233 212.275,148.705C212.819,148.177 213.235,147.545 213.523,146.809C213.811,146.073 213.955,145.257 213.955,144.361C213.955,143.465 213.807,142.645 213.511,141.901C213.215,141.157 212.791,140.521 212.239,139.993C211.687,139.465 211.015,139.057 210.223,138.769C209.431,138.481 208.531,138.337 207.523,138.337C206.515,138.337 205.615,138.481 204.823,138.769C204.031,139.057 203.359,139.465 202.807,139.993C202.255,140.521 201.835,141.157 201.547,141.901C201.259,142.645 201.115,143.465 201.115,144.361C201.115,145.257 201.259,146.073 201.547,146.809C201.835,147.545 202.255,148.177 202.807,148.705C203.359,149.233 204.031,149.645 204.823,149.941C205.615,150.237 206.515,150.385 207.523,150.385ZM216.451,162.553C216.451,161.801 216.255,161.197 215.863,160.741C215.471,160.285 214.947,159.929 214.291,159.673C213.635,159.417 212.879,159.237 212.023,159.133C211.167,159.029 210.271,158.953 209.335,158.905C208.399,158.857 207.459,158.809 206.515,158.761C205.571,158.713 204.683,158.617 203.851,158.473C203.243,158.713 202.683,158.989 202.171,159.301C201.659,159.613 201.219,159.969 200.851,160.369C200.483,160.769 200.195,161.205 199.987,161.677C199.779,162.149 199.675,162.657 199.675,163.201C199.675,163.905 199.855,164.557 200.215,165.157C200.575,165.757 201.103,166.277 201.799,166.717C202.495,167.157 203.347,167.505 204.355,167.761C205.363,168.017 206.523,168.145 207.835,168.145C209.051,168.145 210.183,168.009 211.231,167.737C212.279,167.465 213.191,167.081 213.967,166.585C214.743,166.089 215.351,165.497 215.791,164.809C216.231,164.121 216.451,163.369 216.451,162.553ZM218.947,138.121L218.947,138.913C218.947,139.265 218.723,139.481 218.275,139.561L214.627,139.825C215.075,140.433 215.419,141.113 215.659,141.865C215.899,142.617 216.019,143.433 216.019,144.313C216.019,145.465 215.815,146.509 215.407,147.445C214.999,148.381 214.423,149.181 213.679,149.845C212.935,150.509 212.039,151.025 210.991,151.393C209.943,151.761 208.787,151.945 207.523,151.945C206.163,151.945 204.923,151.737 203.803,151.321C203.131,151.705 202.599,152.157 202.207,152.677C201.815,153.197 201.619,153.713 201.619,154.225C201.619,154.913 201.863,155.441 202.351,155.809C202.839,156.177 203.479,156.445 204.271,156.613C205.063,156.781 205.967,156.889 206.983,156.937C207.999,156.985 209.035,157.037 210.091,157.093C211.147,157.149 212.183,157.249 213.199,157.393C214.215,157.537 215.119,157.789 215.911,158.149C216.703,158.509 217.343,159.013 217.831,159.661C218.319,160.309 218.563,161.169 218.563,162.241C218.563,163.233 218.315,164.185 217.819,165.097C217.323,166.009 216.607,166.817 215.671,167.521C214.735,168.225 213.603,168.789 212.275,169.213C210.947,169.637 209.459,169.849 207.811,169.849C206.131,169.849 204.659,169.677 203.395,169.333C202.131,168.989 201.071,168.525 200.215,167.941C199.359,167.357 198.715,166.681 198.283,165.913C197.851,165.145 197.635,164.329 197.635,163.465C197.635,162.201 198.051,161.117 198.883,160.213C199.715,159.309 200.851,158.601 202.291,158.089C201.491,157.817 200.847,157.421 200.359,156.901C199.871,156.381 199.627,155.673 199.627,154.777C199.627,154.441 199.691,154.089 199.819,153.721C199.947,153.353 200.139,152.989 200.395,152.629C200.651,152.269 200.963,151.929 201.331,151.609C201.699,151.289 202.115,151.001 202.579,150.745C201.443,150.089 200.559,149.217 199.927,148.129C199.295,147.041 198.979,145.769 198.979,144.313C198.979,143.161 199.183,142.117 199.591,141.181C199.999,140.245 200.579,139.441 201.331,138.769C202.083,138.097 202.983,137.577 204.031,137.209C205.079,136.841 206.243,136.657 207.523,136.657C208.579,136.657 209.551,136.785 210.439,137.041C211.327,137.297 212.123,137.657 212.827,138.121L218.947,138.121Z" style="fill-rule:nonzero;"/>
            <path d="M226.771,137.065L226.771,160.945L224.491,160.945L224.491,137.065L226.771,137.065ZM227.755,128.833C227.755,129.121 227.695,129.389 227.575,129.637C227.455,129.885 227.299,130.105 227.107,130.297C226.915,130.489 226.691,130.641 226.435,130.753C226.179,130.865 225.907,130.921 225.619,130.921C225.331,130.921 225.059,130.865 224.803,130.753C224.547,130.641 224.323,130.489 224.131,130.297C223.939,130.105 223.787,129.885 223.675,129.637C223.563,129.389 223.507,129.121 223.507,128.833C223.507,128.545 223.563,128.269 223.675,128.005C223.787,127.741 223.939,127.513 224.131,127.321C224.323,127.129 224.547,126.977 224.803,126.865C225.059,126.753 225.331,126.697 225.619,126.697C225.907,126.697 226.179,126.753 226.435,126.865C226.691,126.977 226.915,127.129 227.107,127.321C227.299,127.513 227.455,127.741 227.575,128.005C227.695,128.269 227.755,128.545 227.755,128.833Z" style="fill-rule:nonzero;"/>
            <path d="M250.963,140.257C250.883,140.337 250.807,140.405 250.735,140.461C250.663,140.517 250.563,140.545 250.435,140.545C250.275,140.545 250.059,140.437 249.787,140.221C249.515,140.005 249.147,139.769 248.683,139.513C248.219,139.257 247.639,139.021 246.943,138.805C246.247,138.589 245.403,138.481 244.411,138.481C243.035,138.481 241.815,138.725 240.751,139.213C239.687,139.701 238.787,140.401 238.051,141.313C237.315,142.225 236.759,143.329 236.383,144.625C236.007,145.921 235.819,147.377 235.819,148.993C235.819,150.673 236.015,152.161 236.407,153.457C236.799,154.753 237.355,155.845 238.075,156.733C238.795,157.621 239.667,158.297 240.691,158.761C241.715,159.225 242.851,159.457 244.099,159.457C245.251,159.457 246.215,159.321 246.991,159.049C247.767,158.777 248.407,158.481 248.911,158.161C249.415,157.841 249.811,157.545 250.099,157.273C250.387,157.001 250.627,156.865 250.819,156.865C251.011,156.865 251.171,156.945 251.299,157.105L251.899,157.873C251.531,158.353 251.067,158.801 250.507,159.217C249.947,159.633 249.315,159.993 248.611,160.297C247.907,160.601 247.143,160.837 246.319,161.005C245.495,161.173 244.635,161.257 243.739,161.257C242.219,161.257 240.831,160.981 239.575,160.429C238.319,159.877 237.239,159.077 236.335,158.029C235.431,156.981 234.727,155.697 234.223,154.177C233.719,152.657 233.467,150.929 233.467,148.993C233.467,147.169 233.707,145.505 234.187,144.001C234.667,142.497 235.371,141.201 236.299,140.113C237.227,139.025 238.359,138.181 239.695,137.581C241.031,136.981 242.563,136.681 244.291,136.681C245.843,136.681 247.219,136.929 248.419,137.425C249.619,137.921 250.667,138.593 251.563,139.441L250.963,140.257Z" style="fill-rule:nonzero;"/>
            <path d="M301.819,143.953C301.819,146.577 301.427,148.957 300.643,151.093C299.859,153.229 298.755,155.053 297.331,156.565C295.907,158.077 294.199,159.245 292.207,160.069C290.215,160.893 288.019,161.305 285.619,161.305C283.219,161.305 281.027,160.893 279.043,160.069C277.059,159.245 275.355,158.077 273.931,156.565C272.507,155.053 271.403,153.229 270.619,151.093C269.835,148.957 269.443,146.577 269.443,143.953C269.443,141.345 269.835,138.973 270.619,136.837C271.403,134.701 272.507,132.877 273.931,131.365C275.355,129.853 277.059,128.681 279.043,127.849C281.027,127.017 283.219,126.601 285.619,126.601C288.019,126.601 290.215,127.013 292.207,127.837C294.199,128.661 295.907,129.833 297.331,131.353C298.755,132.873 299.859,134.701 300.643,136.837C301.427,138.973 301.819,141.345 301.819,143.953ZM299.275,143.953C299.275,141.585 298.947,139.457 298.291,137.569C297.635,135.681 296.707,134.081 295.507,132.769C294.307,131.457 292.867,130.453 291.187,129.757C289.507,129.061 287.651,128.713 285.619,128.713C283.603,128.713 281.755,129.061 280.075,129.757C278.395,130.453 276.951,131.457 275.743,132.769C274.535,134.081 273.599,135.681 272.935,137.569C272.271,139.457 271.939,141.585 271.939,143.953C271.939,146.337 272.271,148.469 272.935,150.349C273.599,152.229 274.535,153.825 275.743,155.137C276.951,156.449 278.395,157.449 280.075,158.137C281.755,158.825 283.603,159.169 285.619,159.169C287.651,159.169 289.507,158.825 291.187,158.137C292.867,157.449 294.307,156.449 295.507,155.137C296.707,153.825 297.635,152.229 298.291,150.349C298.947,148.469 299.275,146.337 299.275,143.953Z" style="fill-rule:nonzero;"/>
            <path d="M310.339,155.737C311.267,157.113 312.287,158.077 313.399,158.629C314.511,159.181 315.763,159.457 317.155,159.457C318.579,159.457 319.823,159.201 320.887,158.689C321.951,158.177 322.839,157.445 323.551,156.493C324.263,155.541 324.795,154.385 325.147,153.025C325.499,151.665 325.675,150.137 325.675,148.441C325.675,145.145 325.019,142.665 323.707,141.001C322.395,139.337 320.555,138.505 318.187,138.505C316.491,138.505 315.011,138.913 313.747,139.729C312.483,140.545 311.347,141.681 310.339,143.137L310.339,155.737ZM310.339,141.217C311.379,139.809 312.595,138.701 313.987,137.893C315.379,137.085 316.995,136.681 318.835,136.681C320.275,136.681 321.563,136.945 322.699,137.473C323.835,138.001 324.799,138.761 325.591,139.753C326.383,140.745 326.987,141.965 327.403,143.413C327.819,144.861 328.027,146.505 328.027,148.345C328.027,150.281 327.795,152.045 327.331,153.637C326.867,155.229 326.191,156.589 325.303,157.717C324.415,158.845 323.331,159.717 322.051,160.333C320.771,160.949 319.307,161.257 317.659,161.257C315.963,161.257 314.519,160.933 313.327,160.285C312.135,159.637 311.107,158.673 310.243,157.393L310.075,160.345C310.027,160.745 309.811,160.945 309.427,160.945L308.035,160.945L308.035,126.025L310.339,126.025L310.339,141.217Z" style="fill-rule:nonzero;"/>
            <path d="M337.027,137.065L337.027,163.993C337.027,164.825 336.907,165.593 336.667,166.297C336.427,167.001 336.071,167.613 335.599,168.133C335.127,168.653 334.535,169.061 333.823,169.357C333.111,169.653 332.275,169.801 331.315,169.801C330.851,169.801 330.435,169.761 330.067,169.681C329.699,169.601 329.339,169.473 328.987,169.297L329.107,168.145C329.155,168.001 329.219,167.917 329.299,167.893C329.379,167.869 329.487,167.869 329.623,167.893C329.759,167.917 329.931,167.949 330.139,167.989C330.347,168.029 330.611,168.049 330.931,168.049C332.227,168.049 333.187,167.697 333.811,166.993C334.435,166.289 334.747,165.289 334.747,163.993L334.747,137.065L337.027,137.065ZM338.011,128.833C338.011,129.121 337.951,129.389 337.831,129.637C337.711,129.885 337.551,130.105 337.351,130.297C337.151,130.489 336.923,130.641 336.667,130.753C336.411,130.865 336.139,130.921 335.851,130.921C335.563,130.921 335.291,130.865 335.035,130.753C334.779,130.641 334.555,130.489 334.363,130.297C334.171,130.105 334.019,129.885 333.907,129.637C333.795,129.389 333.739,129.121 333.739,128.833C333.739,128.545 333.795,128.269 333.907,128.005C334.019,127.741 334.171,127.513 334.363,127.321C334.555,127.129 334.779,126.977 335.035,126.865C335.291,126.753 335.563,126.697 335.851,126.697C336.139,126.697 336.411,126.753 336.667,126.865C336.923,126.977 337.151,127.129 337.351,127.321C337.551,127.513 337.711,127.741 337.831,128.005C337.951,128.269 338.011,128.545 338.011,128.833Z" style="fill-rule:nonzero;"/>
            <path d="M361.915,146.593C361.915,145.313 361.735,144.165 361.375,143.149C361.015,142.133 360.507,141.273 359.851,140.569C359.195,139.865 358.415,139.325 357.511,138.949C356.607,138.573 355.611,138.385 354.523,138.385C353.291,138.385 352.187,138.577 351.211,138.961C350.235,139.345 349.391,139.897 348.679,140.617C347.967,141.337 347.395,142.201 346.963,143.209C346.531,144.217 346.243,145.345 346.099,146.593L361.915,146.593ZM345.979,148.057L345.979,148.513C345.979,150.305 346.187,151.881 346.603,153.241C347.019,154.601 347.611,155.741 348.379,156.661C349.147,157.581 350.075,158.273 351.163,158.737C352.251,159.201 353.467,159.433 354.811,159.433C356.011,159.433 357.051,159.301 357.931,159.037C358.811,158.773 359.551,158.477 360.151,158.149C360.751,157.821 361.227,157.525 361.579,157.261C361.931,156.997 362.187,156.865 362.347,156.865C362.555,156.865 362.715,156.945 362.827,157.105L363.451,157.873C363.067,158.353 362.559,158.801 361.927,159.217C361.295,159.633 360.591,159.989 359.815,160.285C359.039,160.581 358.207,160.817 357.319,160.993C356.431,161.169 355.539,161.257 354.643,161.257C353.011,161.257 351.523,160.973 350.179,160.405C348.835,159.837 347.683,159.009 346.723,157.921C345.763,156.833 345.023,155.501 344.503,153.925C343.983,152.349 343.723,150.545 343.723,148.513C343.723,146.801 343.967,145.221 344.455,143.773C344.943,142.325 345.647,141.077 346.567,140.029C347.487,138.981 348.615,138.161 349.951,137.569C351.287,136.977 352.803,136.681 354.499,136.681C355.843,136.681 357.091,136.913 358.243,137.377C359.395,137.841 360.395,138.517 361.243,139.405C362.091,140.293 362.759,141.385 363.247,142.681C363.735,143.977 363.979,145.465 363.979,147.145C363.979,147.497 363.931,147.737 363.835,147.865C363.739,147.993 363.579,148.057 363.355,148.057L345.979,148.057Z" style="fill-rule:nonzero;"/>
            <path d="M386.251,140.257C386.171,140.337 386.095,140.405 386.023,140.461C385.951,140.517 385.851,140.545 385.723,140.545C385.563,140.545 385.347,140.437 385.075,140.221C384.803,140.005 384.435,139.769 383.971,139.513C383.507,139.257 382.927,139.021 382.231,138.805C381.535,138.589 380.691,138.481 379.699,138.481C378.323,138.481 377.103,138.725 376.039,139.213C374.975,139.701 374.075,140.401 373.339,141.313C372.603,142.225 372.047,143.329 371.671,144.625C371.295,145.921 371.107,147.377 371.107,148.993C371.107,150.673 371.303,152.161 371.695,153.457C372.087,154.753 372.643,155.845 373.363,156.733C374.083,157.621 374.955,158.297 375.979,158.761C377.003,159.225 378.139,159.457 379.387,159.457C380.539,159.457 381.503,159.321 382.279,159.049C383.055,158.777 383.695,158.481 384.199,158.161C384.703,157.841 385.099,157.545 385.387,157.273C385.675,157.001 385.915,156.865 386.107,156.865C386.299,156.865 386.459,156.945 386.587,157.105L387.187,157.873C386.819,158.353 386.355,158.801 385.795,159.217C385.235,159.633 384.603,159.993 383.899,160.297C383.195,160.601 382.431,160.837 381.607,161.005C380.783,161.173 379.923,161.257 379.027,161.257C377.507,161.257 376.119,160.981 374.863,160.429C373.607,159.877 372.527,159.077 371.623,158.029C370.719,156.981 370.015,155.697 369.511,154.177C369.007,152.657 368.755,150.929 368.755,148.993C368.755,147.169 368.995,145.505 369.475,144.001C369.955,142.497 370.659,141.201 371.587,140.113C372.515,139.025 373.647,138.181 374.983,137.581C376.319,136.981 377.851,136.681 379.579,136.681C381.131,136.681 382.507,136.929 383.707,137.425C384.907,137.921 385.955,138.593 386.851,139.441L386.251,140.257Z" style="fill-rule:nonzero;"/>
            <path d="M412.651,160.945L410.347,160.945L410.347,139.513L396.523,139.513L396.523,155.713C396.523,156.369 396.607,156.933 396.775,157.405C396.943,157.877 397.175,158.265 397.471,158.569C397.767,158.873 398.115,159.097 398.515,159.241C398.915,159.385 399.347,159.457 399.811,159.457C400.387,159.457 400.883,159.373 401.299,159.205C401.715,159.037 402.075,158.853 402.379,158.653C402.683,158.453 402.931,158.269 403.123,158.101C403.315,157.933 403.467,157.849 403.579,157.849C403.707,157.849 403.835,157.929 403.963,158.089L404.587,159.097C403.979,159.769 403.207,160.309 402.271,160.717C401.335,161.125 400.363,161.329 399.355,161.329C397.739,161.329 396.479,160.881 395.575,159.985C394.671,159.089 394.219,157.705 394.219,155.833L394.219,139.513L390.787,139.513C390.611,139.513 390.467,139.465 390.355,139.369C390.243,139.273 390.187,139.137 390.187,138.961L390.187,138.073L394.267,137.785L394.843,129.241C394.875,129.097 394.939,128.969 395.035,128.857C395.131,128.745 395.267,128.689 395.443,128.689L396.523,128.689L396.523,137.809L412.651,137.809L412.651,160.945ZM413.707,128.545C413.707,128.833 413.647,129.101 413.527,129.349C413.407,129.597 413.247,129.817 413.047,130.009C412.847,130.201 412.619,130.353 412.363,130.465C412.107,130.577 411.835,130.633 411.547,130.633C411.259,130.633 410.987,130.577 410.731,130.465C410.475,130.353 410.251,130.201 410.059,130.009C409.867,129.817 409.715,129.597 409.603,129.349C409.491,129.101 409.435,128.833 409.435,128.545C409.435,128.257 409.491,127.981 409.603,127.717C409.715,127.453 409.867,127.225 410.059,127.033C410.251,126.841 410.475,126.689 410.731,126.577C410.987,126.465 411.259,126.409 411.547,126.409C411.835,126.409 412.107,126.465 412.363,126.577C412.619,126.689 412.847,126.841 413.047,127.033C413.247,127.225 413.407,127.453 413.527,127.717C413.647,127.981 413.707,128.257 413.707,128.545Z" style="fill-rule:nonzero;"/>
            <path d="M439.963,137.065L429.883,160.945L427.867,160.945L417.787,137.065L419.587,137.065C419.811,137.065 419.995,137.125 420.139,137.245C420.283,137.365 420.379,137.497 420.427,137.641L428.323,156.481C428.563,157.185 428.755,157.881 428.899,158.569C429.043,157.881 429.243,157.185 429.499,156.481L437.419,137.641C437.499,137.465 437.607,137.325 437.743,137.221C437.879,137.117 438.043,137.065 438.235,137.065L439.963,137.065Z" style="fill-rule:nonzero;"/>
            <path d="M461.035,146.593C461.035,145.313 460.855,144.165 460.495,143.149C460.135,142.133 459.627,141.273 458.971,140.569C458.315,139.865 457.535,139.325 456.631,138.949C455.727,138.573 454.731,138.385 453.643,138.385C452.411,138.385 451.307,138.577 450.331,138.961C449.355,139.345 448.511,139.897 447.799,140.617C447.087,141.337 446.515,142.201 446.083,143.209C445.651,144.217 445.363,145.345 445.219,146.593L461.035,146.593ZM445.099,148.057L445.099,148.513C445.099,150.305 445.307,151.881 445.723,153.241C446.139,154.601 446.731,155.741 447.499,156.661C448.267,157.581 449.195,158.273 450.283,158.737C451.371,159.201 452.587,159.433 453.931,159.433C455.131,159.433 456.171,159.301 457.051,159.037C457.931,158.773 458.671,158.477 459.271,158.149C459.871,157.821 460.347,157.525 460.699,157.261C461.051,156.997 461.307,156.865 461.467,156.865C461.675,156.865 461.835,156.945 461.947,157.105L462.571,157.873C462.187,158.353 461.679,158.801 461.047,159.217C460.415,159.633 459.711,159.989 458.935,160.285C458.159,160.581 457.327,160.817 456.439,160.993C455.551,161.169 454.659,161.257 453.763,161.257C452.131,161.257 450.643,160.973 449.299,160.405C447.955,159.837 446.803,159.009 445.843,157.921C444.883,156.833 444.143,155.501 443.623,153.925C443.103,152.349 442.843,150.545 442.843,148.513C442.843,146.801 443.087,145.221 443.575,143.773C444.063,142.325 444.767,141.077 445.687,140.029C446.607,138.981 447.735,138.161 449.071,137.569C450.407,136.977 451.923,136.681 453.619,136.681C454.963,136.681 456.211,136.913 457.363,137.377C458.515,137.841 459.515,138.517 460.363,139.405C461.211,140.293 461.879,141.385 462.367,142.681C462.855,143.977 463.099,145.465 463.099,147.145C463.099,147.497 463.051,147.737 462.955,147.865C462.859,147.993 462.699,148.057 462.475,148.057L445.099,148.057Z" style="fill-rule:nonzero;"/>
            <path d="M482.443,140.017C482.315,140.241 482.131,140.353 481.891,140.353C481.715,140.353 481.491,140.253 481.219,140.053C480.947,139.853 480.583,139.629 480.127,139.381C479.671,139.133 479.107,138.909 478.435,138.709C477.763,138.509 476.947,138.409 475.987,138.409C475.123,138.409 474.335,138.533 473.623,138.781C472.911,139.029 472.303,139.361 471.799,139.777C471.295,140.193 470.907,140.677 470.635,141.229C470.363,141.781 470.227,142.361 470.227,142.969C470.227,143.721 470.419,144.345 470.803,144.841C471.187,145.337 471.687,145.761 472.303,146.113C472.919,146.465 473.627,146.769 474.427,147.025C475.227,147.281 476.039,147.537 476.863,147.793C477.687,148.049 478.499,148.333 479.299,148.645C480.099,148.957 480.807,149.345 481.423,149.809C482.039,150.273 482.539,150.841 482.923,151.513C483.307,152.185 483.499,153.001 483.499,153.961C483.499,155.001 483.315,155.969 482.947,156.865C482.579,157.761 482.039,158.537 481.327,159.193C480.615,159.849 479.739,160.369 478.699,160.753C477.659,161.137 476.467,161.329 475.123,161.329C473.443,161.329 471.995,161.061 470.779,160.525C469.563,159.989 468.475,159.289 467.515,158.425L468.043,157.609C468.123,157.481 468.215,157.385 468.319,157.321C468.423,157.257 468.563,157.225 468.739,157.225C468.947,157.225 469.199,157.353 469.495,157.609C469.791,157.865 470.187,158.141 470.683,158.437C471.179,158.733 471.791,159.009 472.519,159.265C473.247,159.521 474.147,159.649 475.219,159.649C476.227,159.649 477.115,159.509 477.883,159.229C478.651,158.949 479.291,158.569 479.803,158.089C480.315,157.609 480.703,157.045 480.967,156.397C481.231,155.749 481.363,155.065 481.363,154.345C481.363,153.545 481.171,152.881 480.787,152.353C480.403,151.825 479.899,151.377 479.275,151.009C478.651,150.641 477.943,150.329 477.151,150.073C476.359,149.817 475.547,149.561 474.715,149.305C473.883,149.049 473.071,148.769 472.279,148.465C471.487,148.161 470.779,147.777 470.155,147.313C469.531,146.849 469.027,146.285 468.643,145.621C468.259,144.957 468.067,144.129 468.067,143.137C468.067,142.289 468.251,141.473 468.619,140.689C468.987,139.905 469.511,139.217 470.191,138.625C470.871,138.033 471.699,137.561 472.675,137.209C473.651,136.857 474.747,136.681 475.963,136.681C477.419,136.681 478.711,136.889 479.839,137.305C480.967,137.721 481.995,138.361 482.923,139.225L482.443,140.017Z" style="fill-rule:nonzero;"/>
        </g>
    </g>
</svg>
