<?xml version="1.0" encoding="UTF-8" standalone="no"?>
<!DOCTYPE svg PUBLIC "-//W3C//DTD SVG 1.1//EN" "http://www.w3.org/Graphics/SVG/1.1/DTD/svg11.dtd">
<svg width="100%" height="100%" viewBox="0 0 233 44" version="1.1" xmlns="http://www.w3.org/2000/svg" xmlns:xlink="http://www.w3.org/1999/xlink" xml:space="preserve" xmlns:serif="http://www.serif.com/" style="fill-rule:evenodd;clip-rule:evenodd;stroke-linejoin:round;stroke-miterlimit:2;">
    <g transform="matrix(1,0,0,1,-50.8781,-580.188)">
        <g transform="matrix(1,0,0,1,-25.1971,454.163)">
            <path d="M95.443,131.113C95.299,131.385 95.091,131.521 94.819,131.521C94.611,131.521 94.343,131.373 94.015,131.077C93.687,130.781 93.243,130.453 92.683,130.093C92.123,129.733 91.423,129.401 90.583,129.097C89.743,128.793 88.707,128.641 87.475,128.641C86.243,128.641 85.159,128.817 84.223,129.169C83.287,129.521 82.503,130.001 81.871,130.609C81.239,131.217 80.759,131.921 80.431,132.721C80.103,133.521 79.939,134.361 79.939,135.241C79.939,136.393 80.183,137.345 80.671,138.097C81.159,138.849 81.803,139.489 82.603,140.017C83.403,140.545 84.311,140.989 85.327,141.349C86.343,141.709 87.387,142.065 88.459,142.417C89.531,142.769 90.575,143.157 91.591,143.581C92.607,144.005 93.515,144.537 94.315,145.177C95.115,145.817 95.759,146.605 96.247,147.541C96.735,148.477 96.979,149.641 96.979,151.033C96.979,152.457 96.735,153.797 96.247,155.053C95.759,156.309 95.051,157.401 94.123,158.329C93.195,159.257 92.059,159.989 90.715,160.525C89.371,161.061 87.835,161.329 86.107,161.329C83.867,161.329 81.939,160.933 80.323,160.141C78.707,159.349 77.291,158.265 76.075,156.889L76.747,155.833C76.939,155.593 77.163,155.473 77.419,155.473C77.563,155.473 77.747,155.569 77.971,155.761C78.195,155.953 78.467,156.189 78.787,156.469C79.107,156.749 79.491,157.053 79.939,157.381C80.387,157.709 80.907,158.013 81.499,158.293C82.091,158.573 82.771,158.809 83.539,159.001C84.307,159.193 85.179,159.289 86.155,159.289C87.499,159.289 88.699,159.085 89.755,158.677C90.811,158.269 91.703,157.713 92.431,157.009C93.159,156.305 93.715,155.469 94.099,154.501C94.483,153.533 94.675,152.497 94.675,151.393C94.675,150.193 94.431,149.205 93.943,148.429C93.455,147.653 92.811,147.005 92.011,146.485C91.211,145.965 90.303,145.529 89.287,145.177C88.271,144.825 87.227,144.481 86.155,144.145C85.083,143.809 84.039,143.433 83.023,143.017C82.007,142.601 81.099,142.069 80.299,141.421C79.499,140.773 78.855,139.965 78.367,138.997C77.879,138.029 77.635,136.817 77.635,135.361C77.635,134.225 77.851,133.129 78.283,132.073C78.715,131.017 79.347,130.085 80.179,129.277C81.011,128.469 82.039,127.821 83.263,127.333C84.487,126.845 85.883,126.601 87.451,126.601C89.211,126.601 90.791,126.881 92.191,127.441C93.591,128.001 94.867,128.857 96.019,130.009L95.443,131.113Z" style="fill-rule:nonzero;"/>
            <path d="M108.979,161.329C107.363,161.329 106.103,160.881 105.199,159.985C104.295,159.089 103.843,157.705 103.843,155.833L103.843,139.513L100.411,139.513C100.235,139.513 100.091,139.465 99.979,139.369C99.867,139.273 99.811,139.137 99.811,138.961L99.811,138.073L103.891,137.785L104.467,129.241C104.499,129.097 104.563,128.969 104.659,128.857C104.755,128.745 104.891,128.689 105.067,128.689L106.147,128.689L106.147,137.809L113.683,137.809L113.683,139.513L106.147,139.513L106.147,155.713C106.147,156.369 106.231,156.933 106.399,157.405C106.567,157.877 106.799,158.265 107.095,158.569C107.391,158.873 107.739,159.097 108.139,159.241C108.539,159.385 108.971,159.457 109.435,159.457C110.011,159.457 110.507,159.373 110.923,159.205C111.339,159.037 111.699,158.853 112.003,158.653C112.307,158.453 112.555,158.269 112.747,158.101C112.939,157.933 113.091,157.849 113.203,157.849C113.331,157.849 113.459,157.929 113.587,158.089L114.211,159.097C113.603,159.769 112.831,160.309 111.895,160.717C110.959,161.125 109.987,161.329 108.979,161.329Z" style="fill-rule:nonzero;"/>
            <path d="M138.187,137.065L124.459,168.625C124.363,168.849 124.239,169.033 124.087,169.177C123.935,169.321 123.715,169.393 123.427,169.393L121.795,169.393L125.995,160.057L115.891,137.065L117.787,137.065C118.027,137.065 118.219,137.125 118.363,137.245C118.507,137.365 118.603,137.497 118.651,137.641L126.691,156.217C126.787,156.457 126.871,156.701 126.943,156.949C127.015,157.197 127.083,157.449 127.147,157.705C127.227,157.449 127.311,157.197 127.399,156.949C127.487,156.701 127.579,156.457 127.675,156.217L135.619,137.641C135.699,137.465 135.811,137.325 135.955,137.221C136.099,137.117 136.259,137.065 136.435,137.065L138.187,137.065Z" style="fill-rule:nonzero;"/>
            <rect x="143.179" y="126.025" width="2.304" height="34.92" style="fill-rule:nonzero;"/>
            <path d="M170.323,146.593C170.323,145.313 170.143,144.165 169.783,143.149C169.423,142.133 168.915,141.273 168.259,140.569C167.603,139.865 166.823,139.325 165.919,138.949C165.015,138.573 164.019,138.385 162.931,138.385C161.699,138.385 160.595,138.577 159.619,138.961C158.643,139.345 157.799,139.897 157.087,140.617C156.375,141.337 155.803,142.201 155.371,143.209C154.939,144.217 154.651,145.345 154.507,146.593L170.323,146.593ZM154.387,148.057L154.387,148.513C154.387,150.305 154.595,151.881 155.011,153.241C155.427,154.601 156.019,155.741 156.787,156.661C157.555,157.581 158.483,158.273 159.571,158.737C160.659,159.201 161.875,159.433 163.219,159.433C164.419,159.433 165.459,159.301 166.339,159.037C167.219,158.773 167.959,158.477 168.559,158.149C169.159,157.821 169.635,157.525 169.987,157.261C170.339,156.997 170.595,156.865 170.755,156.865C170.963,156.865 171.123,156.945 171.235,157.105L171.859,157.873C171.475,158.353 170.967,158.801 170.335,159.217C169.703,159.633 168.999,159.989 168.223,160.285C167.447,160.581 166.615,160.817 165.727,160.993C164.839,161.169 163.947,161.257 163.051,161.257C161.419,161.257 159.931,160.973 158.587,160.405C157.243,159.837 156.091,159.009 155.131,157.921C154.171,156.833 153.431,155.501 152.911,153.925C152.391,152.349 152.131,150.545 152.131,148.513C152.131,146.801 152.375,145.221 152.863,143.773C153.351,142.325 154.055,141.077 154.975,140.029C155.895,138.981 157.023,138.161 158.359,137.569C159.695,136.977 161.211,136.681 162.907,136.681C164.251,136.681 165.499,136.913 166.651,137.377C167.803,137.841 168.803,138.517 169.651,139.405C170.499,140.293 171.167,141.385 171.655,142.681C172.143,143.977 172.387,145.465 172.387,147.145C172.387,147.497 172.339,147.737 172.243,147.865C172.147,147.993 171.987,148.057 171.763,148.057L154.387,148.057Z" style="fill-rule:nonzero;"/>
            <path d="M219.835,145.537L219.835,157.609C218.139,158.809 216.331,159.729 214.411,160.369C212.491,161.009 210.331,161.329 207.931,161.329C205.243,161.329 202.827,160.917 200.683,160.093C198.539,159.269 196.711,158.101 195.199,156.589C193.687,155.077 192.527,153.249 191.719,151.105C190.911,148.961 190.507,146.577 190.507,143.953C190.507,141.329 190.903,138.949 191.695,136.813C192.487,134.677 193.623,132.853 195.103,131.341C196.583,129.829 198.371,128.661 200.467,127.837C202.563,127.013 204.923,126.601 207.547,126.601C208.843,126.601 210.039,126.689 211.135,126.865C212.231,127.041 213.251,127.301 214.195,127.645C215.139,127.989 216.019,128.413 216.835,128.917C217.651,129.421 218.435,130.001 219.187,130.657L218.515,131.713C218.291,132.097 217.955,132.185 217.507,131.977C217.267,131.881 216.923,131.657 216.475,131.305C216.027,130.953 215.411,130.585 214.627,130.201C213.843,129.817 212.871,129.473 211.711,129.169C210.551,128.865 209.139,128.713 207.475,128.713C205.267,128.713 203.271,129.065 201.487,129.769C199.703,130.473 198.183,131.481 196.927,132.793C195.671,134.105 194.703,135.705 194.023,137.593C193.343,139.481 193.003,141.601 193.003,143.953C193.003,146.337 193.343,148.481 194.023,150.385C194.703,152.289 195.687,153.905 196.975,155.233C198.263,156.561 199.827,157.577 201.667,158.281C203.507,158.985 205.579,159.337 207.883,159.337C208.891,159.337 209.823,159.273 210.679,159.145C211.535,159.017 212.351,158.837 213.127,158.605C213.903,158.373 214.655,158.085 215.383,157.741C216.111,157.397 216.851,157.009 217.603,156.577L217.603,147.433L211.099,147.433C210.923,147.433 210.775,147.377 210.655,147.265C210.535,147.153 210.475,147.025 210.475,146.881L210.475,145.537L219.835,145.537Z" style="fill-rule:nonzero;"/>
            <path d="M244.987,137.065L244.987,160.945L243.715,160.945C243.315,160.945 243.083,160.737 243.019,160.321L242.803,156.769C241.699,158.145 240.423,159.249 238.975,160.081C237.527,160.913 235.915,161.329 234.139,161.329C232.811,161.329 231.651,161.121 230.659,160.705C229.667,160.289 228.843,159.689 228.187,158.905C227.531,158.121 227.035,157.177 226.699,156.073C226.363,154.969 226.195,153.721 226.195,152.329L226.195,137.065L228.499,137.065L228.499,152.329C228.499,154.569 229.011,156.325 230.035,157.597C231.059,158.869 232.619,159.505 234.715,159.505C236.267,159.505 237.719,159.109 239.071,158.317C240.423,157.525 241.627,156.425 242.683,155.017L242.683,137.065L244.987,137.065Z" style="fill-rule:nonzero;"/>
            <path d="M255.379,137.065L255.379,160.945L253.099,160.945L253.099,137.065L255.379,137.065ZM256.363,128.833C256.363,129.121 256.303,129.389 256.183,129.637C256.063,129.885 255.907,130.105 255.715,130.297C255.523,130.489 255.299,130.641 255.043,130.753C254.787,130.865 254.515,130.921 254.227,130.921C253.939,130.921 253.667,130.865 253.411,130.753C253.155,130.641 252.931,130.489 252.739,130.297C252.547,130.105 252.395,129.885 252.283,129.637C252.171,129.389 252.115,129.121 252.115,128.833C252.115,128.545 252.171,128.269 252.283,128.005C252.395,127.741 252.547,127.513 252.739,127.321C252.931,127.129 253.155,126.977 253.411,126.865C253.667,126.753 253.939,126.697 254.227,126.697C254.515,126.697 254.787,126.753 255.043,126.865C255.299,126.977 255.523,127.129 255.715,127.321C255.907,127.513 256.063,127.741 256.183,128.005C256.303,128.269 256.363,128.545 256.363,128.833Z" style="fill-rule:nonzero;"/>
            <path d="M279.811,142.201C278.899,140.825 277.887,139.857 276.775,139.297C275.663,138.737 274.395,138.457 272.971,138.457C271.563,138.457 270.331,138.713 269.275,139.225C268.219,139.737 267.335,140.461 266.623,141.397C265.911,142.333 265.375,143.453 265.015,144.757C264.655,146.061 264.475,147.497 264.475,149.065C264.475,152.617 265.127,155.229 266.431,156.901C267.735,158.573 269.619,159.409 272.083,159.409C273.651,159.409 275.083,159.001 276.379,158.185C277.675,157.369 278.819,156.225 279.811,154.753L279.811,142.201ZM282.091,126.025L282.091,160.945L280.843,160.945C280.427,160.945 280.187,160.737 280.123,160.321L279.883,156.553C278.827,157.993 277.595,159.137 276.187,159.985C274.779,160.833 273.195,161.257 271.435,161.257C268.491,161.257 266.203,160.241 264.571,158.209C262.939,156.177 262.123,153.129 262.123,149.065C262.123,147.321 262.351,145.693 262.807,144.181C263.263,142.669 263.931,141.357 264.811,140.245C265.691,139.133 266.775,138.257 268.063,137.617C269.351,136.977 270.835,136.657 272.515,136.657C274.131,136.657 275.531,136.953 276.715,137.545C277.899,138.137 278.931,139.017 279.811,140.185L279.811,126.025L282.091,126.025Z" style="fill-rule:nonzero;"/>
            <path d="M306.715,146.593C306.715,145.313 306.535,144.165 306.175,143.149C305.815,142.133 305.307,141.273 304.651,140.569C303.995,139.865 303.215,139.325 302.311,138.949C301.407,138.573 300.411,138.385 299.323,138.385C298.091,138.385 296.987,138.577 296.011,138.961C295.035,139.345 294.191,139.897 293.479,140.617C292.767,141.337 292.195,142.201 291.763,143.209C291.331,144.217 291.043,145.345 290.899,146.593L306.715,146.593ZM290.779,148.057L290.779,148.513C290.779,150.305 290.987,151.881 291.403,153.241C291.819,154.601 292.411,155.741 293.179,156.661C293.947,157.581 294.875,158.273 295.963,158.737C297.051,159.201 298.267,159.433 299.611,159.433C300.811,159.433 301.851,159.301 302.731,159.037C303.611,158.773 304.351,158.477 304.951,158.149C305.551,157.821 306.027,157.525 306.379,157.261C306.731,156.997 306.987,156.865 307.147,156.865C307.355,156.865 307.515,156.945 307.627,157.105L308.251,157.873C307.867,158.353 307.359,158.801 306.727,159.217C306.095,159.633 305.391,159.989 304.615,160.285C303.839,160.581 303.007,160.817 302.119,160.993C301.231,161.169 300.339,161.257 299.443,161.257C297.811,161.257 296.323,160.973 294.979,160.405C293.635,159.837 292.483,159.009 291.523,157.921C290.563,156.833 289.823,155.501 289.303,153.925C288.783,152.349 288.523,150.545 288.523,148.513C288.523,146.801 288.767,145.221 289.255,143.773C289.743,142.325 290.447,141.077 291.367,140.029C292.287,138.981 293.415,138.161 294.751,137.569C296.087,136.977 297.603,136.681 299.299,136.681C300.643,136.681 301.891,136.913 303.043,137.377C304.195,137.841 305.195,138.517 306.043,139.405C306.891,140.293 307.559,141.385 308.047,142.681C308.535,143.977 308.779,145.465 308.779,147.145C308.779,147.497 308.731,147.737 308.635,147.865C308.539,147.993 308.379,148.057 308.155,148.057L290.779,148.057Z" style="fill-rule:nonzero;"/>
        </g>
    </g>
</svg>
