<?xml version="1.0" encoding="UTF-8" standalone="no"?>
<!DOCTYPE svg PUBLIC "-//W3C//DTD SVG 1.1//EN" "http://www.w3.org/Graphics/SVG/1.1/DTD/svg11.dtd">
<svg width="100%" height="100%" viewBox="0 0 217 35" version="1.1" xmlns="http://www.w3.org/2000/svg" xmlns:xlink="http://www.w3.org/1999/xlink" xml:space="preserve" xmlns:serif="http://www.serif.com/" style="fill-rule:evenodd;clip-rule:evenodd;stroke-linejoin:round;stroke-miterlimit:2;">
    <g transform="matrix(1,0,0,1,-72.353,-460.157)">
        <g transform="matrix(1,0,0,1,-6.43426,333.58)">
            <path d="M90.979,161.521C97.555,161.521 103.123,157.633 103.123,150.289L103.123,128.305L101.011,128.305L101.011,150.289C101.011,156.241 96.787,159.553 90.979,159.553C85.123,159.553 80.899,156.241 80.899,150.289L80.899,128.305L78.787,128.305L78.787,150.289C78.787,157.633 84.355,161.521 90.979,161.521Z" style="fill-rule:nonzero;"/>
            <path d="M117.043,161.281C120.979,161.281 123.955,159.073 123.955,155.665C123.955,152.257 121.027,150.673 117.331,149.233C114.547,148.177 112.195,147.121 112.195,144.817C112.195,142.561 114.307,141.457 116.899,141.457C118.819,141.457 120.595,142.033 122.179,142.993L123.091,141.505C121.315,140.353 119.155,139.585 116.851,139.585C113.395,139.585 110.179,141.361 110.179,144.817C110.179,148.225 113.251,149.713 116.611,151.009C119.587,152.161 121.939,153.361 121.939,155.665C121.939,157.873 119.971,159.409 117.043,159.409C114.643,159.409 112.483,158.689 110.515,157.249L109.459,158.881C111.667,160.465 114.163,161.281 117.043,161.281Z" style="fill-rule:nonzero;"/>
            <path d="M138.787,139.393C132.403,139.393 128.275,144.433 128.275,150.385C128.275,156.769 132.595,161.425 138.979,161.425C142.483,161.425 144.931,160.273 147.091,158.257L145.939,156.769C144.115,158.593 142.195,159.553 138.931,159.553C134.515,159.553 130.675,156.481 130.339,151.297L148.099,151.297C148.147,150.673 148.195,150.097 148.195,149.521C148.195,143.665 144.883,139.393 138.787,139.393ZM138.739,141.265C143.587,141.265 146.227,144.529 146.227,149.521L130.339,149.521C130.771,144.625 134.227,141.265 138.739,141.265Z" style="fill-rule:nonzero;"/>
            <path d="M162.595,139.489C159.235,139.489 157.315,141.313 156.307,143.521L155.923,139.873L154.339,139.873L154.339,160.945L156.355,160.945L156.355,148.945C156.355,144.385 158.707,141.409 162.403,141.409C163.651,141.409 164.419,141.601 165.235,141.937L165.859,140.161C164.947,139.729 163.891,139.489 162.595,139.489Z" style="fill-rule:nonzero;"/>
            <path d="M190.723,139.489C186.643,139.489 183.955,141.745 182.851,144.001L182.419,139.873L180.835,139.873L180.835,160.945L182.851,160.945L182.851,149.377C182.851,144.481 186.211,141.409 190.531,141.409C194.755,141.409 196.147,144.097 196.147,148.033L196.147,160.945L198.163,160.945L198.163,148.033C198.163,142.849 195.907,139.489 190.723,139.489Z" style="fill-rule:nonzero;"/>
            <path d="M214.867,139.393C208.483,139.393 204.355,144.433 204.355,150.385C204.355,156.769 208.675,161.425 215.059,161.425C218.563,161.425 221.011,160.273 223.171,158.257L222.019,156.769C220.195,158.593 218.275,159.553 215.011,159.553C210.595,159.553 206.755,156.481 206.419,151.297L224.179,151.297C224.227,150.673 224.275,150.097 224.275,149.521C224.275,143.665 220.963,139.393 214.867,139.393ZM214.819,141.265C219.667,141.265 222.307,144.529 222.307,149.521L206.419,149.521C206.851,144.625 210.307,141.265 214.819,141.265Z" style="fill-rule:nonzero;"/>
            <path d="M239.251,139.393C232.867,139.393 228.739,144.433 228.739,150.385C228.739,156.769 233.059,161.425 239.443,161.425C242.947,161.425 245.395,160.273 247.555,158.257L246.403,156.769C244.579,158.593 242.659,159.553 239.395,159.553C234.979,159.553 231.139,156.481 230.803,151.297L248.563,151.297C248.611,150.673 248.659,150.097 248.659,149.521C248.659,143.665 245.347,139.393 239.251,139.393ZM239.203,141.265C244.051,141.265 246.691,144.529 246.691,149.521L230.803,149.521C231.235,144.625 234.691,141.265 239.203,141.265Z" style="fill-rule:nonzero;"/>
            <path d="M272.371,126.577L272.371,139.249C272.371,141.121 272.419,142.705 272.467,144.529C270.787,141.409 267.571,139.489 263.635,139.489C257.299,139.489 253.123,144.289 253.123,150.385C253.123,156.529 257.347,161.329 263.635,161.329C267.667,161.329 270.835,159.409 272.467,156.289L272.803,160.945L274.387,160.945L274.387,126.577L272.371,126.577ZM263.731,159.457C258.547,159.457 255.139,155.473 255.139,150.433C255.139,145.345 258.499,141.409 263.731,141.409C269.107,141.409 272.419,145.441 272.419,150.433C272.419,155.377 269.155,159.457 263.731,159.457Z" style="fill-rule:nonzero;"/>
            <path d="M288.307,161.281C292.243,161.281 295.219,159.073 295.219,155.665C295.219,152.257 292.291,150.673 288.595,149.233C285.811,148.177 283.459,147.121 283.459,144.817C283.459,142.561 285.571,141.457 288.163,141.457C290.083,141.457 291.859,142.033 293.443,142.993L294.355,141.505C292.579,140.353 290.419,139.585 288.115,139.585C284.659,139.585 281.443,141.361 281.443,144.817C281.443,148.225 284.515,149.713 287.875,151.009C290.851,152.161 293.203,153.361 293.203,155.665C293.203,157.873 291.235,159.409 288.307,159.409C285.907,159.409 283.747,158.689 281.779,157.249L280.723,158.881C282.931,160.465 285.427,161.281 288.307,161.281Z" style="fill-rule:nonzero;"/>
        </g>
    </g>
</svg>
