<?xml version="1.0" encoding="UTF-8" standalone="no"?>
<!DOCTYPE svg PUBLIC "-//W3C//DTD SVG 1.1//EN" "http://www.w3.org/Graphics/SVG/1.1/DTD/svg11.dtd">
<svg width="100%" height="100%" viewBox="0 0 225 36" version="1.1" xmlns="http://www.w3.org/2000/svg" xmlns:xlink="http://www.w3.org/1999/xlink" xml:space="preserve" xmlns:serif="http://www.serif.com/" style="fill-rule:evenodd;clip-rule:evenodd;stroke-linejoin:round;stroke-miterlimit:2;">
    <g transform="matrix(1,0,0,1,-51.2832,-510.729)">
        <g transform="matrix(1,0,0,1,-27.24,384.704)">
            <path d="M91.387,159.193C93.019,159.193 94.479,158.909 95.767,158.341C97.055,157.773 98.147,156.985 99.043,155.977C99.939,154.969 100.623,153.781 101.095,152.413C101.567,151.045 101.803,149.569 101.803,147.985L101.803,126.985L104.251,126.985L104.251,147.985C104.251,149.857 103.955,151.605 103.363,153.229C102.771,154.853 101.919,156.269 100.807,157.477C99.695,158.685 98.343,159.633 96.751,160.321C95.159,161.009 93.371,161.353 91.387,161.353C89.403,161.353 87.615,161.009 86.023,160.321C84.431,159.633 83.079,158.685 81.967,157.477C80.855,156.269 80.003,154.853 79.411,153.229C78.819,151.605 78.523,149.857 78.523,147.985L78.523,126.985L80.995,126.985L80.995,147.961C80.995,149.545 81.231,151.021 81.703,152.389C82.175,153.757 82.855,154.945 83.743,155.953C84.631,156.961 85.719,157.753 87.007,158.329C88.295,158.905 89.755,159.193 91.387,159.193Z" style="fill-rule:nonzero;"/>
            <path d="M124.627,140.017C124.499,140.241 124.315,140.353 124.075,140.353C123.899,140.353 123.675,140.253 123.403,140.053C123.131,139.853 122.767,139.629 122.311,139.381C121.855,139.133 121.291,138.909 120.619,138.709C119.947,138.509 119.131,138.409 118.171,138.409C117.307,138.409 116.519,138.533 115.807,138.781C115.095,139.029 114.487,139.361 113.983,139.777C113.479,140.193 113.091,140.677 112.819,141.229C112.547,141.781 112.411,142.361 112.411,142.969C112.411,143.721 112.603,144.345 112.987,144.841C113.371,145.337 113.871,145.761 114.487,146.113C115.103,146.465 115.811,146.769 116.611,147.025C117.411,147.281 118.223,147.537 119.047,147.793C119.871,148.049 120.683,148.333 121.483,148.645C122.283,148.957 122.991,149.345 123.607,149.809C124.223,150.273 124.723,150.841 125.107,151.513C125.491,152.185 125.683,153.001 125.683,153.961C125.683,155.001 125.499,155.969 125.131,156.865C124.763,157.761 124.223,158.537 123.511,159.193C122.799,159.849 121.923,160.369 120.883,160.753C119.843,161.137 118.651,161.329 117.307,161.329C115.627,161.329 114.179,161.061 112.963,160.525C111.747,159.989 110.659,159.289 109.699,158.425L110.227,157.609C110.307,157.481 110.399,157.385 110.503,157.321C110.607,157.257 110.747,157.225 110.923,157.225C111.131,157.225 111.383,157.353 111.679,157.609C111.975,157.865 112.371,158.141 112.867,158.437C113.363,158.733 113.975,159.009 114.703,159.265C115.431,159.521 116.331,159.649 117.403,159.649C118.411,159.649 119.299,159.509 120.067,159.229C120.835,158.949 121.475,158.569 121.987,158.089C122.499,157.609 122.887,157.045 123.151,156.397C123.415,155.749 123.547,155.065 123.547,154.345C123.547,153.545 123.355,152.881 122.971,152.353C122.587,151.825 122.083,151.377 121.459,151.009C120.835,150.641 120.127,150.329 119.335,150.073C118.543,149.817 117.731,149.561 116.899,149.305C116.067,149.049 115.255,148.769 114.463,148.465C113.671,148.161 112.963,147.777 112.339,147.313C111.715,146.849 111.211,146.285 110.827,145.621C110.443,144.957 110.251,144.129 110.251,143.137C110.251,142.289 110.435,141.473 110.803,140.689C111.171,139.905 111.695,139.217 112.375,138.625C113.055,138.033 113.883,137.561 114.859,137.209C115.835,136.857 116.931,136.681 118.147,136.681C119.603,136.681 120.895,136.889 122.023,137.305C123.151,137.721 124.179,138.361 125.107,139.225L124.627,140.017Z" style="fill-rule:nonzero;"/>
            <path d="M148.651,146.593C148.651,145.313 148.471,144.165 148.111,143.149C147.751,142.133 147.243,141.273 146.587,140.569C145.931,139.865 145.151,139.325 144.247,138.949C143.343,138.573 142.347,138.385 141.259,138.385C140.027,138.385 138.923,138.577 137.947,138.961C136.971,139.345 136.127,139.897 135.415,140.617C134.703,141.337 134.131,142.201 133.699,143.209C133.267,144.217 132.979,145.345 132.835,146.593L148.651,146.593ZM132.715,148.057L132.715,148.513C132.715,150.305 132.923,151.881 133.339,153.241C133.755,154.601 134.347,155.741 135.115,156.661C135.883,157.581 136.811,158.273 137.899,158.737C138.987,159.201 140.203,159.433 141.547,159.433C142.747,159.433 143.787,159.301 144.667,159.037C145.547,158.773 146.287,158.477 146.887,158.149C147.487,157.821 147.963,157.525 148.315,157.261C148.667,156.997 148.923,156.865 149.083,156.865C149.291,156.865 149.451,156.945 149.563,157.105L150.187,157.873C149.803,158.353 149.295,158.801 148.663,159.217C148.031,159.633 147.327,159.989 146.551,160.285C145.775,160.581 144.943,160.817 144.055,160.993C143.167,161.169 142.275,161.257 141.379,161.257C139.747,161.257 138.259,160.973 136.915,160.405C135.571,159.837 134.419,159.009 133.459,157.921C132.499,156.833 131.759,155.501 131.239,153.925C130.719,152.349 130.459,150.545 130.459,148.513C130.459,146.801 130.703,145.221 131.191,143.773C131.679,142.325 132.383,141.077 133.303,140.029C134.223,138.981 135.351,138.161 136.687,137.569C138.023,136.977 139.539,136.681 141.235,136.681C142.579,136.681 143.827,136.913 144.979,137.377C146.131,137.841 147.131,138.517 147.979,139.405C148.827,140.293 149.495,141.385 149.983,142.681C150.471,143.977 150.715,145.465 150.715,147.145C150.715,147.497 150.667,147.737 150.571,147.865C150.475,147.993 150.315,148.057 150.091,148.057L132.715,148.057Z" style="fill-rule:nonzero;"/>
            <path d="M159.115,142.825C159.483,141.849 159.903,140.981 160.375,140.221C160.847,139.461 161.391,138.817 162.007,138.289C162.623,137.761 163.311,137.357 164.071,137.077C164.831,136.797 165.675,136.657 166.603,136.657C167.099,136.657 167.587,136.701 168.067,136.789C168.547,136.877 168.971,137.033 169.339,137.257L169.147,138.841C169.067,139.097 168.915,139.225 168.691,139.225C168.499,139.225 168.207,139.169 167.815,139.057C167.423,138.945 166.907,138.889 166.267,138.889C165.339,138.889 164.519,139.029 163.807,139.309C163.095,139.589 162.455,140.009 161.887,140.569C161.319,141.129 160.823,141.821 160.399,142.645C159.975,143.469 159.587,144.417 159.235,145.489L159.235,160.945L156.931,160.945L156.931,137.065L158.155,137.065C158.427,137.065 158.619,137.121 158.731,137.233C158.843,137.345 158.915,137.537 158.947,137.809L159.115,142.825Z" style="fill-rule:nonzero;"/>
            <path d="M188.083,141.241C189.187,139.865 190.463,138.761 191.911,137.929C193.359,137.097 194.971,136.681 196.747,136.681C198.059,136.681 199.215,136.889 200.215,137.305C201.215,137.721 202.043,138.321 202.699,139.105C203.355,139.889 203.851,140.833 204.187,141.937C204.523,143.041 204.691,144.289 204.691,145.681L204.691,160.945L202.387,160.945L202.387,145.681C202.387,143.441 201.875,141.685 200.851,140.413C199.827,139.141 198.267,138.505 196.171,138.505C194.619,138.505 193.167,138.901 191.815,139.693C190.463,140.485 189.259,141.585 188.203,142.993L188.203,160.945L185.899,160.945L185.899,137.065L187.171,137.065C187.571,137.065 187.803,137.265 187.867,137.665L188.083,141.241Z" style="fill-rule:nonzero;"/>
            <path d="M229.051,146.593C229.051,145.313 228.871,144.165 228.511,143.149C228.151,142.133 227.643,141.273 226.987,140.569C226.331,139.865 225.551,139.325 224.647,138.949C223.743,138.573 222.747,138.385 221.659,138.385C220.427,138.385 219.323,138.577 218.347,138.961C217.371,139.345 216.527,139.897 215.815,140.617C215.103,141.337 214.531,142.201 214.099,143.209C213.667,144.217 213.379,145.345 213.235,146.593L229.051,146.593ZM213.115,148.057L213.115,148.513C213.115,150.305 213.323,151.881 213.739,153.241C214.155,154.601 214.747,155.741 215.515,156.661C216.283,157.581 217.211,158.273 218.299,158.737C219.387,159.201 220.603,159.433 221.947,159.433C223.147,159.433 224.187,159.301 225.067,159.037C225.947,158.773 226.687,158.477 227.287,158.149C227.887,157.821 228.363,157.525 228.715,157.261C229.067,156.997 229.323,156.865 229.483,156.865C229.691,156.865 229.851,156.945 229.963,157.105L230.587,157.873C230.203,158.353 229.695,158.801 229.063,159.217C228.431,159.633 227.727,159.989 226.951,160.285C226.175,160.581 225.343,160.817 224.455,160.993C223.567,161.169 222.675,161.257 221.779,161.257C220.147,161.257 218.659,160.973 217.315,160.405C215.971,159.837 214.819,159.009 213.859,157.921C212.899,156.833 212.159,155.501 211.639,153.925C211.119,152.349 210.859,150.545 210.859,148.513C210.859,146.801 211.103,145.221 211.591,143.773C212.079,142.325 212.783,141.077 213.703,140.029C214.623,138.981 215.751,138.161 217.087,137.569C218.423,136.977 219.939,136.681 221.635,136.681C222.979,136.681 224.227,136.913 225.379,137.377C226.531,137.841 227.531,138.517 228.379,139.405C229.227,140.293 229.895,141.385 230.383,142.681C230.871,143.977 231.115,145.465 231.115,147.145C231.115,147.497 231.067,147.737 230.971,147.865C230.875,147.993 230.715,148.057 230.491,148.057L213.115,148.057Z" style="fill-rule:nonzero;"/>
            <path d="M254.083,146.593C254.083,145.313 253.903,144.165 253.543,143.149C253.183,142.133 252.675,141.273 252.019,140.569C251.363,139.865 250.583,139.325 249.679,138.949C248.775,138.573 247.779,138.385 246.691,138.385C245.459,138.385 244.355,138.577 243.379,138.961C242.403,139.345 241.559,139.897 240.847,140.617C240.135,141.337 239.563,142.201 239.131,143.209C238.699,144.217 238.411,145.345 238.267,146.593L254.083,146.593ZM238.147,148.057L238.147,148.513C238.147,150.305 238.355,151.881 238.771,153.241C239.187,154.601 239.779,155.741 240.547,156.661C241.315,157.581 242.243,158.273 243.331,158.737C244.419,159.201 245.635,159.433 246.979,159.433C248.179,159.433 249.219,159.301 250.099,159.037C250.979,158.773 251.719,158.477 252.319,158.149C252.919,157.821 253.395,157.525 253.747,157.261C254.099,156.997 254.355,156.865 254.515,156.865C254.723,156.865 254.883,156.945 254.995,157.105L255.619,157.873C255.235,158.353 254.727,158.801 254.095,159.217C253.463,159.633 252.759,159.989 251.983,160.285C251.207,160.581 250.375,160.817 249.487,160.993C248.599,161.169 247.707,161.257 246.811,161.257C245.179,161.257 243.691,160.973 242.347,160.405C241.003,159.837 239.851,159.009 238.891,157.921C237.931,156.833 237.191,155.501 236.671,153.925C236.151,152.349 235.891,150.545 235.891,148.513C235.891,146.801 236.135,145.221 236.623,143.773C237.111,142.325 237.815,141.077 238.735,140.029C239.655,138.981 240.783,138.161 242.119,137.569C243.455,136.977 244.971,136.681 246.667,136.681C248.011,136.681 249.259,136.913 250.411,137.377C251.563,137.841 252.563,138.517 253.411,139.405C254.259,140.293 254.927,141.385 255.415,142.681C255.903,143.977 256.147,145.465 256.147,147.145C256.147,147.497 256.099,147.737 256.003,147.865C255.907,147.993 255.747,148.057 255.523,148.057L238.147,148.057Z" style="fill-rule:nonzero;"/>
            <path d="M278.659,142.201C277.747,140.825 276.735,139.857 275.623,139.297C274.511,138.737 273.243,138.457 271.819,138.457C270.411,138.457 269.179,138.713 268.123,139.225C267.067,139.737 266.183,140.461 265.471,141.397C264.759,142.333 264.223,143.453 263.863,144.757C263.503,146.061 263.323,147.497 263.323,149.065C263.323,152.617 263.975,155.229 265.279,156.901C266.583,158.573 268.467,159.409 270.931,159.409C272.499,159.409 273.931,159.001 275.227,158.185C276.523,157.369 277.667,156.225 278.659,154.753L278.659,142.201ZM280.939,126.025L280.939,160.945L279.691,160.945C279.275,160.945 279.035,160.737 278.971,160.321L278.731,156.553C277.675,157.993 276.443,159.137 275.035,159.985C273.627,160.833 272.043,161.257 270.283,161.257C267.339,161.257 265.051,160.241 263.419,158.209C261.787,156.177 260.971,153.129 260.971,149.065C260.971,147.321 261.199,145.693 261.655,144.181C262.111,142.669 262.779,141.357 263.659,140.245C264.539,139.133 265.623,138.257 266.911,137.617C268.199,136.977 269.683,136.657 271.363,136.657C272.979,136.657 274.379,136.953 275.563,137.545C276.747,138.137 277.779,139.017 278.659,140.185L278.659,126.025L280.939,126.025Z" style="fill-rule:nonzero;"/>
            <path d="M301.939,140.017C301.811,140.241 301.627,140.353 301.387,140.353C301.211,140.353 300.987,140.253 300.715,140.053C300.443,139.853 300.079,139.629 299.623,139.381C299.167,139.133 298.603,138.909 297.931,138.709C297.259,138.509 296.443,138.409 295.483,138.409C294.619,138.409 293.831,138.533 293.119,138.781C292.407,139.029 291.799,139.361 291.295,139.777C290.791,140.193 290.403,140.677 290.131,141.229C289.859,141.781 289.723,142.361 289.723,142.969C289.723,143.721 289.915,144.345 290.299,144.841C290.683,145.337 291.183,145.761 291.799,146.113C292.415,146.465 293.123,146.769 293.923,147.025C294.723,147.281 295.535,147.537 296.359,147.793C297.183,148.049 297.995,148.333 298.795,148.645C299.595,148.957 300.303,149.345 300.919,149.809C301.535,150.273 302.035,150.841 302.419,151.513C302.803,152.185 302.995,153.001 302.995,153.961C302.995,155.001 302.811,155.969 302.443,156.865C302.075,157.761 301.535,158.537 300.823,159.193C300.111,159.849 299.235,160.369 298.195,160.753C297.155,161.137 295.963,161.329 294.619,161.329C292.939,161.329 291.491,161.061 290.275,160.525C289.059,159.989 287.971,159.289 287.011,158.425L287.539,157.609C287.619,157.481 287.711,157.385 287.815,157.321C287.919,157.257 288.059,157.225 288.235,157.225C288.443,157.225 288.695,157.353 288.991,157.609C289.287,157.865 289.683,158.141 290.179,158.437C290.675,158.733 291.287,159.009 292.015,159.265C292.743,159.521 293.643,159.649 294.715,159.649C295.723,159.649 296.611,159.509 297.379,159.229C298.147,158.949 298.787,158.569 299.299,158.089C299.811,157.609 300.199,157.045 300.463,156.397C300.727,155.749 300.859,155.065 300.859,154.345C300.859,153.545 300.667,152.881 300.283,152.353C299.899,151.825 299.395,151.377 298.771,151.009C298.147,150.641 297.439,150.329 296.647,150.073C295.855,149.817 295.043,149.561 294.211,149.305C293.379,149.049 292.567,148.769 291.775,148.465C290.983,148.161 290.275,147.777 289.651,147.313C289.027,146.849 288.523,146.285 288.139,145.621C287.755,144.957 287.563,144.129 287.563,143.137C287.563,142.289 287.747,141.473 288.115,140.689C288.483,139.905 289.007,139.217 289.687,138.625C290.367,138.033 291.195,137.561 292.171,137.209C293.147,136.857 294.243,136.681 295.459,136.681C296.915,136.681 298.207,136.889 299.335,137.305C300.463,137.721 301.491,138.361 302.419,139.225L301.939,140.017Z" style="fill-rule:nonzero;"/>
        </g>
    </g>
</svg>
