<?xml version="1.0" encoding="UTF-8" standalone="no"?>
<!DOCTYPE svg PUBLIC "-//W3C//DTD SVG 1.1//EN" "http://www.w3.org/Graphics/SVG/1.1/DTD/svg11.dtd">
<svg width="100%" height="100%" viewBox="0 0 713 87" version="1.1" xmlns="http://www.w3.org/2000/svg" xmlns:xlink="http://www.w3.org/1999/xlink" xml:space="preserve" xmlns:serif="http://www.serif.com/" style="fill-rule:evenodd;clip-rule:evenodd;stroke-linejoin:round;stroke-miterlimit:2;">
    <g transform="matrix(1,0,0,1,-69.2692,-21.454)">
        <g transform="matrix(1,0,0,1,-7.358,-70.083)">
            <path d="M167.971,93.457L146.611,160.945L144.259,160.945L122.851,98.641C122.627,98.001 122.451,97.361 122.323,96.721C122.195,97.361 122.019,98.001 121.795,98.641L100.291,160.945L97.987,160.945L76.627,93.457L78.787,93.457C79.331,93.457 79.683,93.729 79.843,94.273L98.467,154.225C98.787,155.313 99.059,156.465 99.283,157.681C99.411,157.041 99.547,156.433 99.691,155.857C99.835,155.281 99.987,154.737 100.147,154.225L120.931,94.273C121.091,93.729 121.475,93.457 122.083,93.457L122.707,93.457C123.251,93.457 123.603,93.729 123.763,94.273L144.547,154.225C144.867,155.217 145.155,156.353 145.411,157.633C145.539,156.993 145.667,156.393 145.795,155.833C145.923,155.273 146.067,154.737 146.227,154.225L164.851,94.273C165.011,93.729 165.395,93.457 166.003,93.457L167.971,93.457Z" style="fill-rule:nonzero;"/>
            <path d="M181.555,122.641C183.763,119.665 186.387,117.289 189.427,115.513C192.467,113.737 195.779,112.849 199.363,112.849C201.987,112.849 204.283,113.257 206.251,114.073C208.219,114.889 209.851,116.057 211.147,117.577C212.443,119.097 213.419,120.961 214.075,123.169C214.731,125.377 215.059,127.873 215.059,130.657L215.059,160.945L212.515,160.945L212.515,130.657C212.515,128.193 212.243,125.985 211.699,124.033C211.155,122.081 210.315,120.425 209.179,119.065C208.043,117.705 206.627,116.665 204.931,115.945C203.235,115.225 201.235,114.865 198.931,114.865C195.475,114.865 192.283,115.769 189.355,117.577C186.427,119.385 183.827,121.889 181.555,125.089L181.555,160.945L179.011,160.945L179.011,91.537L181.555,91.537L181.555,122.641Z" style="fill-rule:nonzero;"/>
            <path d="M258.355,137.233C248.691,137.553 241.547,138.753 236.923,140.833C232.299,142.913 229.987,145.841 229.987,149.617C229.987,151.377 230.283,152.897 230.875,154.177C231.467,155.457 232.251,156.521 233.227,157.369C234.203,158.217 235.315,158.841 236.563,159.241C237.811,159.641 239.091,159.841 240.403,159.841C242.451,159.841 244.323,159.609 246.019,159.145C247.715,158.681 249.283,158.049 250.723,157.249C252.163,156.449 253.507,155.505 254.755,154.417C256.003,153.329 257.203,152.177 258.355,150.961L258.355,137.233ZM230.035,120.337C232.403,117.905 234.883,116.049 237.475,114.769C240.067,113.489 243.027,112.849 246.355,112.849C248.819,112.849 250.963,113.241 252.787,114.025C254.611,114.809 256.123,115.937 257.323,117.409C258.523,118.881 259.411,120.665 259.987,122.761C260.563,124.857 260.851,127.217 260.851,129.841L260.851,160.945L259.987,160.945C259.347,160.945 258.979,160.609 258.883,159.937L258.403,152.929C257.091,154.273 255.779,155.489 254.467,156.577C253.155,157.665 251.763,158.585 250.291,159.337C248.819,160.089 247.235,160.673 245.539,161.089C243.843,161.505 241.971,161.713 239.923,161.713C238.419,161.713 236.931,161.489 235.459,161.041C233.987,160.593 232.659,159.889 231.475,158.929C230.291,157.969 229.339,156.729 228.619,155.209C227.899,153.689 227.539,151.857 227.539,149.713C227.539,147.633 228.139,145.745 229.339,144.049C230.539,142.353 232.403,140.889 234.931,139.657C237.459,138.425 240.659,137.449 244.531,136.729C248.403,136.009 253.011,135.585 258.355,135.457L258.355,129.841C258.355,125.105 257.331,121.425 255.283,118.801C253.235,116.177 250.195,114.865 246.163,114.865C243.763,114.865 241.699,115.209 239.971,115.897C238.243,116.585 236.803,117.353 235.651,118.201C234.499,119.049 233.579,119.817 232.891,120.505C232.203,121.193 231.683,121.537 231.331,121.537C231.011,121.537 230.723,121.361 230.467,121.009L230.035,120.337Z" style="fill-rule:nonzero;"/>
            <path d="M288.883,161.713C285.939,161.713 283.635,160.905 281.971,159.289C280.307,157.673 279.475,155.073 279.475,151.489L279.475,117.361L272.083,117.361C271.475,117.361 271.171,117.121 271.171,116.641L271.171,115.777L279.475,115.441L280.195,97.201C280.227,97.009 280.307,96.825 280.435,96.649C280.563,96.473 280.739,96.385 280.963,96.385L282.019,96.385L282.019,115.441L297.667,115.441L297.667,117.361L282.019,117.361L282.019,151.393C282.019,152.865 282.211,154.121 282.595,155.161C282.979,156.201 283.491,157.057 284.131,157.729C284.771,158.401 285.531,158.889 286.411,159.193C287.291,159.497 288.243,159.649 289.267,159.649C290.515,159.649 291.611,159.457 292.555,159.073C293.499,158.689 294.307,158.273 294.979,157.825C295.651,157.377 296.195,156.961 296.611,156.577C297.027,156.193 297.331,156.001 297.523,156.001C297.683,156.001 297.859,156.097 298.051,156.289L298.675,157.201C298.131,157.873 297.499,158.481 296.779,159.025C296.059,159.569 295.267,160.041 294.403,160.441C293.539,160.841 292.643,161.153 291.715,161.377C290.787,161.601 289.843,161.713 288.883,161.713Z" style="fill-rule:nonzero;"/>
            <path d="M310.675,93.457L310.675,107.521L310.435,114.865C310.371,115.473 310.083,115.777 309.571,115.777C309.059,115.777 308.771,115.473 308.707,114.865L308.515,107.521L308.515,93.457L310.675,93.457Z" style="fill-rule:nonzero;"/>
            <path d="M352.195,118.465C352.035,118.753 351.795,118.897 351.475,118.897C351.187,118.897 350.779,118.681 350.251,118.249C349.723,117.817 348.995,117.353 348.067,116.857C347.139,116.361 345.979,115.897 344.587,115.465C343.195,115.033 341.475,114.817 339.427,114.817C337.539,114.817 335.819,115.097 334.267,115.657C332.715,116.217 331.379,116.961 330.259,117.889C329.139,118.817 328.275,119.905 327.667,121.153C327.059,122.401 326.755,123.697 326.755,125.041C326.755,126.641 327.147,127.985 327.931,129.073C328.715,130.161 329.747,131.081 331.027,131.833C332.307,132.585 333.763,133.225 335.395,133.753C337.027,134.281 338.691,134.809 340.387,135.337C342.083,135.865 343.747,136.433 345.379,137.041C347.011,137.649 348.467,138.401 349.747,139.297C351.027,140.193 352.059,141.297 352.843,142.609C353.627,143.921 354.019,145.537 354.019,147.457C354.019,149.441 353.667,151.297 352.963,153.025C352.259,154.753 351.227,156.265 349.867,157.561C348.507,158.857 346.843,159.873 344.875,160.609C342.907,161.345 340.659,161.713 338.131,161.713C336.435,161.713 334.899,161.577 333.523,161.305C332.147,161.033 330.867,160.649 329.683,160.153C328.499,159.657 327.395,159.057 326.371,158.353C325.347,157.649 324.355,156.865 323.395,156.001L324.019,155.185C324.147,155.025 324.267,154.905 324.379,154.825C324.491,154.745 324.675,154.705 324.931,154.705C325.251,154.705 325.707,154.969 326.299,155.497C326.891,156.025 327.691,156.609 328.699,157.249C329.707,157.889 330.979,158.473 332.515,159.001C334.051,159.529 335.939,159.793 338.179,159.793C340.387,159.793 342.331,159.481 344.011,158.857C345.691,158.233 347.099,157.377 348.235,156.289C349.371,155.201 350.227,153.929 350.803,152.473C351.379,151.017 351.667,149.473 351.667,147.841C351.667,146.113 351.275,144.673 350.491,143.521C349.707,142.369 348.675,141.401 347.395,140.617C346.115,139.833 344.659,139.169 343.027,138.625C341.395,138.081 339.731,137.553 338.035,137.041C336.339,136.529 334.675,135.977 333.043,135.385C331.411,134.793 329.955,134.057 328.675,133.177C327.395,132.297 326.363,131.217 325.579,129.937C324.795,128.657 324.403,127.057 324.403,125.137C324.403,123.537 324.763,121.993 325.483,120.505C326.203,119.017 327.219,117.705 328.531,116.569C329.843,115.433 331.419,114.529 333.259,113.857C335.099,113.185 337.155,112.849 339.427,112.849C342.179,112.849 344.611,113.233 346.723,114.001C348.835,114.769 350.835,115.985 352.723,117.649L352.195,118.465Z" style="fill-rule:nonzero;"/>
            <path d="M406.387,161.713C403.443,161.713 401.139,160.905 399.475,159.289C397.811,157.673 396.979,155.073 396.979,151.489L396.979,117.361L389.587,117.361C388.979,117.361 388.675,117.121 388.675,116.641L388.675,115.777L396.979,115.441L397.699,97.201C397.731,97.009 397.811,96.825 397.939,96.649C398.067,96.473 398.243,96.385 398.467,96.385L399.523,96.385L399.523,115.441L415.171,115.441L415.171,117.361L399.523,117.361L399.523,151.393C399.523,152.865 399.715,154.121 400.099,155.161C400.483,156.201 400.995,157.057 401.635,157.729C402.275,158.401 403.035,158.889 403.915,159.193C404.795,159.497 405.747,159.649 406.771,159.649C408.019,159.649 409.115,159.457 410.059,159.073C411.003,158.689 411.811,158.273 412.483,157.825C413.155,157.377 413.699,156.961 414.115,156.577C414.531,156.193 414.835,156.001 415.027,156.001C415.187,156.001 415.363,156.097 415.555,156.289L416.179,157.201C415.635,157.873 415.003,158.481 414.283,159.025C413.563,159.569 412.771,160.041 411.907,160.441C411.043,160.841 410.147,161.153 409.219,161.377C408.291,161.601 407.347,161.713 406.387,161.713Z" style="fill-rule:nonzero;"/>
            <path d="M428.899,122.641C431.107,119.665 433.731,117.289 436.771,115.513C439.811,113.737 443.123,112.849 446.707,112.849C449.331,112.849 451.627,113.257 453.595,114.073C455.563,114.889 457.195,116.057 458.491,117.577C459.787,119.097 460.763,120.961 461.419,123.169C462.075,125.377 462.403,127.873 462.403,130.657L462.403,160.945L459.859,160.945L459.859,130.657C459.859,128.193 459.587,125.985 459.043,124.033C458.499,122.081 457.659,120.425 456.523,119.065C455.387,117.705 453.971,116.665 452.275,115.945C450.579,115.225 448.579,114.865 446.275,114.865C442.819,114.865 439.627,115.769 436.699,117.577C433.771,119.385 431.171,121.889 428.899,125.089L428.899,160.945L426.355,160.945L426.355,91.537L428.899,91.537L428.899,122.641Z" style="fill-rule:nonzero;"/>
            <path d="M512.803,132.721C512.803,129.873 512.395,127.337 511.579,125.113C510.763,122.889 509.643,121.009 508.219,119.473C506.795,117.937 505.107,116.769 503.155,115.969C501.203,115.169 499.091,114.769 496.819,114.769C494.131,114.769 491.723,115.193 489.595,116.041C487.467,116.889 485.635,118.097 484.099,119.665C482.563,121.233 481.323,123.121 480.379,125.329C479.435,127.537 478.819,130.001 478.531,132.721L512.803,132.721ZM513.859,155.137C513.219,155.937 512.323,156.721 511.171,157.489C510.019,158.257 508.699,158.937 507.211,159.529C505.723,160.121 504.107,160.601 502.363,160.969C500.619,161.337 498.835,161.521 497.011,161.521C493.779,161.521 490.859,160.953 488.251,159.817C485.643,158.681 483.419,157.041 481.579,154.897C479.739,152.753 478.323,150.121 477.331,147.001C476.339,143.881 475.843,140.321 475.843,136.321C475.843,132.865 476.315,129.705 477.259,126.841C478.203,123.977 479.571,121.505 481.363,119.425C483.155,117.345 485.347,115.729 487.939,114.577C490.531,113.425 493.475,112.849 496.771,112.849C499.331,112.849 501.723,113.297 503.947,114.193C506.171,115.089 508.115,116.409 509.779,118.153C511.443,119.897 512.747,122.049 513.691,124.609C514.635,127.169 515.107,130.097 515.107,133.393C515.107,134.065 514.819,134.401 514.243,134.401L478.387,134.401C478.355,134.721 478.339,135.033 478.339,135.337L478.339,136.321C478.339,140.097 478.787,143.425 479.683,146.305C480.579,149.185 481.843,151.601 483.475,153.553C485.107,155.505 487.083,156.985 489.403,157.993C491.723,159.001 494.307,159.505 497.155,159.505C499.683,159.505 501.875,159.225 503.731,158.665C505.587,158.105 507.139,157.489 508.387,156.817C509.635,156.145 510.603,155.529 511.291,154.969C511.979,154.409 512.419,154.129 512.611,154.129C512.867,154.129 513.075,154.225 513.235,154.417L513.859,155.137Z" style="fill-rule:nonzero;"/>
            <path d="M580.483,118.465C580.323,118.753 580.083,118.897 579.763,118.897C579.475,118.897 579.067,118.681 578.539,118.249C578.011,117.817 577.283,117.353 576.355,116.857C575.427,116.361 574.267,115.897 572.875,115.465C571.483,115.033 569.763,114.817 567.715,114.817C565.827,114.817 564.107,115.097 562.555,115.657C561.003,116.217 559.667,116.961 558.547,117.889C557.427,118.817 556.563,119.905 555.955,121.153C555.347,122.401 555.043,123.697 555.043,125.041C555.043,126.641 555.435,127.985 556.219,129.073C557.003,130.161 558.035,131.081 559.315,131.833C560.595,132.585 562.051,133.225 563.683,133.753C565.315,134.281 566.979,134.809 568.675,135.337C570.371,135.865 572.035,136.433 573.667,137.041C575.299,137.649 576.755,138.401 578.035,139.297C579.315,140.193 580.347,141.297 581.131,142.609C581.915,143.921 582.307,145.537 582.307,147.457C582.307,149.441 581.955,151.297 581.251,153.025C580.547,154.753 579.515,156.265 578.155,157.561C576.795,158.857 575.131,159.873 573.163,160.609C571.195,161.345 568.947,161.713 566.419,161.713C564.723,161.713 563.187,161.577 561.811,161.305C560.435,161.033 559.155,160.649 557.971,160.153C556.787,159.657 555.683,159.057 554.659,158.353C553.635,157.649 552.643,156.865 551.683,156.001L552.307,155.185C552.435,155.025 552.555,154.905 552.667,154.825C552.779,154.745 552.963,154.705 553.219,154.705C553.539,154.705 553.995,154.969 554.587,155.497C555.179,156.025 555.979,156.609 556.987,157.249C557.995,157.889 559.267,158.473 560.803,159.001C562.339,159.529 564.227,159.793 566.467,159.793C568.675,159.793 570.619,159.481 572.299,158.857C573.979,158.233 575.387,157.377 576.523,156.289C577.659,155.201 578.515,153.929 579.091,152.473C579.667,151.017 579.955,149.473 579.955,147.841C579.955,146.113 579.563,144.673 578.779,143.521C577.995,142.369 576.963,141.401 575.683,140.617C574.403,139.833 572.947,139.169 571.315,138.625C569.683,138.081 568.019,137.553 566.323,137.041C564.627,136.529 562.963,135.977 561.331,135.385C559.699,134.793 558.243,134.057 556.963,133.177C555.683,132.297 554.651,131.217 553.867,129.937C553.083,128.657 552.691,127.057 552.691,125.137C552.691,123.537 553.051,121.993 553.771,120.505C554.491,119.017 555.507,117.705 556.819,116.569C558.131,115.433 559.707,114.529 561.547,113.857C563.387,113.185 565.443,112.849 567.715,112.849C570.467,112.849 572.899,113.233 575.011,114.001C577.123,114.769 579.123,115.985 581.011,117.649L580.483,118.465Z" style="fill-rule:nonzero;"/>
            <path d="M607.843,161.713C604.899,161.713 602.595,160.905 600.931,159.289C599.267,157.673 598.435,155.073 598.435,151.489L598.435,117.361L591.043,117.361C590.435,117.361 590.131,117.121 590.131,116.641L590.131,115.777L598.435,115.441L599.155,97.201C599.187,97.009 599.267,96.825 599.395,96.649C599.523,96.473 599.699,96.385 599.923,96.385L600.979,96.385L600.979,115.441L616.627,115.441L616.627,117.361L600.979,117.361L600.979,151.393C600.979,152.865 601.171,154.121 601.555,155.161C601.939,156.201 602.451,157.057 603.091,157.729C603.731,158.401 604.491,158.889 605.371,159.193C606.251,159.497 607.203,159.649 608.227,159.649C609.475,159.649 610.571,159.457 611.515,159.073C612.459,158.689 613.267,158.273 613.939,157.825C614.611,157.377 615.155,156.961 615.571,156.577C615.987,156.193 616.291,156.001 616.483,156.001C616.643,156.001 616.819,156.097 617.011,156.289L617.635,157.201C617.091,157.873 616.459,158.481 615.739,159.025C615.019,159.569 614.227,160.041 613.363,160.441C612.499,160.841 611.603,161.153 610.675,161.377C609.747,161.601 608.803,161.713 607.843,161.713Z" style="fill-rule:nonzero;"/>
            <path d="M645.859,112.849C649.219,112.849 652.203,113.433 654.811,114.601C657.419,115.769 659.619,117.417 661.411,119.545C663.203,121.673 664.563,124.241 665.491,127.249C666.419,130.257 666.883,133.601 666.883,137.281C666.883,140.961 666.419,144.297 665.491,147.289C664.563,150.281 663.203,152.833 661.411,154.945C659.619,157.057 657.419,158.681 654.811,159.817C652.203,160.953 649.219,161.521 645.859,161.521C642.499,161.521 639.515,160.953 636.907,159.817C634.299,158.681 632.099,157.057 630.307,154.945C628.515,152.833 627.155,150.281 626.227,147.289C625.299,144.297 624.835,140.961 624.835,137.281C624.835,133.601 625.299,130.257 626.227,127.249C627.155,124.241 628.515,121.673 630.307,119.545C632.099,117.417 634.299,115.769 636.907,114.601C639.515,113.433 642.499,112.849 645.859,112.849ZM645.859,159.505C648.931,159.505 651.619,158.977 653.923,157.921C656.227,156.865 658.155,155.361 659.707,153.409C661.259,151.457 662.419,149.121 663.187,146.401C663.955,143.681 664.339,140.641 664.339,137.281C664.339,133.921 663.955,130.865 663.187,128.113C662.419,125.361 661.259,123.001 659.707,121.033C658.155,119.065 656.227,117.545 653.923,116.473C651.619,115.401 648.931,114.865 645.859,114.865C642.787,114.865 640.099,115.401 637.795,116.473C635.491,117.545 633.563,119.065 632.011,121.033C630.459,123.001 629.299,125.361 628.531,128.113C627.763,130.865 627.379,133.921 627.379,137.281C627.379,140.641 627.763,143.681 628.531,146.401C629.299,149.121 630.459,151.457 632.011,153.409C633.563,155.361 635.491,156.865 637.795,157.921C640.099,158.977 642.787,159.505 645.859,159.505Z" style="fill-rule:nonzero;"/>
            <path d="M683.347,126.289C684.051,124.145 684.883,122.241 685.843,120.577C686.803,118.913 687.915,117.505 689.179,116.353C690.443,115.201 691.875,114.329 693.475,113.737C695.075,113.145 696.883,112.849 698.899,112.849C699.827,112.849 700.779,112.921 701.755,113.065C702.731,113.209 703.603,113.505 704.371,113.953L704.083,115.441C703.955,115.793 703.731,115.969 703.411,115.969C703.059,115.969 702.523,115.849 701.803,115.609C701.083,115.369 700.019,115.249 698.611,115.249C696.627,115.249 694.859,115.561 693.307,116.185C691.755,116.809 690.379,117.729 689.179,118.945C687.979,120.161 686.915,121.681 685.987,123.505C685.059,125.329 684.211,127.457 683.443,129.889L683.443,160.945L680.899,160.945L680.899,113.617L682.051,113.617C682.691,113.617 683.027,113.969 683.059,114.673L683.347,126.289Z" style="fill-rule:nonzero;"/>
            <path d="M751.075,113.617L723.475,176.833C723.315,177.153 723.123,177.441 722.899,177.697C722.675,177.953 722.355,178.081 721.939,178.081L720.259,178.081L728.419,159.793L708.163,113.617L710.083,113.617C710.435,113.617 710.715,113.713 710.923,113.905C711.131,114.097 711.267,114.289 711.331,114.481L728.995,154.993C729.315,155.697 729.555,156.433 729.715,157.201C729.939,156.529 730.211,155.793 730.531,154.993L748.099,114.481C748.227,114.225 748.395,114.017 748.603,113.857C748.811,113.697 749.043,113.617 749.299,113.617L751.075,113.617Z" style="fill-rule:nonzero;"/>
            <path d="M758.131,99.265C758.931,98.433 759.835,97.625 760.843,96.841C761.851,96.057 762.979,95.353 764.227,94.729C765.475,94.105 766.835,93.609 768.307,93.241C769.779,92.873 771.379,92.689 773.107,92.689C775.187,92.689 777.179,93.009 779.083,93.649C780.987,94.289 782.667,95.209 784.123,96.409C785.579,97.609 786.739,99.073 787.603,100.801C788.467,102.529 788.899,104.481 788.899,106.657C788.899,108.481 788.675,110.113 788.227,111.553C787.779,112.993 787.187,114.289 786.451,115.441C785.715,116.593 784.875,117.633 783.931,118.561C782.987,119.489 782.019,120.345 781.027,121.129C780.035,121.913 779.059,122.641 778.099,123.313C777.139,123.985 776.275,124.665 775.507,125.353C774.739,126.041 774.115,126.737 773.635,127.441C773.155,128.145 772.899,128.929 772.867,129.793L772.483,137.905L770.803,137.905L770.659,129.601C770.627,128.321 770.995,127.185 771.763,126.193C772.531,125.201 773.507,124.241 774.691,123.313C775.875,122.385 777.147,121.425 778.507,120.433C779.867,119.441 781.139,118.313 782.323,117.049C783.507,115.785 784.491,114.321 785.275,112.657C786.059,110.993 786.451,109.025 786.451,106.753C786.451,104.865 786.075,103.177 785.323,101.689C784.571,100.201 783.571,98.945 782.323,97.921C781.075,96.897 779.643,96.113 778.027,95.569C776.411,95.025 774.723,94.753 772.963,94.753C770.755,94.753 768.843,95.057 767.227,95.665C765.611,96.273 764.251,96.945 763.147,97.681C762.043,98.417 761.187,99.089 760.579,99.697C759.971,100.305 759.587,100.609 759.427,100.609C759.139,100.609 758.915,100.497 758.755,100.273L758.131,99.265ZM768.019,158.113C768.019,157.089 768.363,156.217 769.051,155.497C769.739,154.777 770.595,154.417 771.619,154.417C772.643,154.417 773.515,154.777 774.235,155.497C774.955,156.217 775.315,157.089 775.315,158.113C775.315,159.137 774.955,159.993 774.235,160.681C773.515,161.369 772.643,161.713 771.619,161.713C770.595,161.713 769.739,161.369 769.051,160.681C768.363,159.993 768.019,159.137 768.019,158.113Z" style="fill-rule:nonzero;"/>
        </g>
    </g>
</svg>
