<?xml version="1.0" encoding="UTF-8" standalone="no"?>
<!DOCTYPE svg PUBLIC "-//W3C//DTD SVG 1.1//EN" "http://www.w3.org/Graphics/SVG/1.1/DTD/svg11.dtd">
<svg width="100%" height="100%" viewBox="0 0 905 71" version="1.1" xmlns="http://www.w3.org/2000/svg" xmlns:xlink="http://www.w3.org/1999/xlink" xml:space="preserve" xmlns:serif="http://www.serif.com/" style="fill-rule:evenodd;clip-rule:evenodd;stroke-linejoin:round;stroke-miterlimit:2;">
    <g transform="matrix(1,0,0,1,-67.063,-109.911)">
        <g transform="matrix(1,0,0,1,-9.5642,18.3743)">
            <path d="M167.971,93.457L146.611,160.945L144.259,160.945L122.851,98.641C122.627,98.001 122.451,97.361 122.323,96.721C122.195,97.361 122.019,98.001 121.795,98.641L100.291,160.945L97.987,160.945L76.627,93.457L78.787,93.457C79.331,93.457 79.683,93.729 79.843,94.273L98.467,154.225C98.787,155.313 99.059,156.465 99.283,157.681C99.411,157.041 99.547,156.433 99.691,155.857C99.835,155.281 99.987,154.737 100.147,154.225L120.931,94.273C121.091,93.729 121.475,93.457 122.083,93.457L122.707,93.457C123.251,93.457 123.603,93.729 123.763,94.273L144.547,154.225C144.867,155.217 145.155,156.353 145.411,157.633C145.539,156.993 145.667,156.393 145.795,155.833C145.923,155.273 146.067,154.737 146.227,154.225L164.851,94.273C165.011,93.729 165.395,93.457 166.003,93.457L167.971,93.457Z" style="fill-rule:nonzero;"/>
            <path d="M181.555,122.641C183.763,119.665 186.387,117.289 189.427,115.513C192.467,113.737 195.779,112.849 199.363,112.849C201.987,112.849 204.283,113.257 206.251,114.073C208.219,114.889 209.851,116.057 211.147,117.577C212.443,119.097 213.419,120.961 214.075,123.169C214.731,125.377 215.059,127.873 215.059,130.657L215.059,160.945L212.515,160.945L212.515,130.657C212.515,128.193 212.243,125.985 211.699,124.033C211.155,122.081 210.315,120.425 209.179,119.065C208.043,117.705 206.627,116.665 204.931,115.945C203.235,115.225 201.235,114.865 198.931,114.865C195.475,114.865 192.283,115.769 189.355,117.577C186.427,119.385 183.827,121.889 181.555,125.089L181.555,160.945L179.011,160.945L179.011,91.537L181.555,91.537L181.555,122.641Z" style="fill-rule:nonzero;"/>
            <path d="M249.523,112.849C252.883,112.849 255.867,113.433 258.475,114.601C261.083,115.769 263.283,117.417 265.075,119.545C266.867,121.673 268.227,124.241 269.155,127.249C270.083,130.257 270.547,133.601 270.547,137.281C270.547,140.961 270.083,144.297 269.155,147.289C268.227,150.281 266.867,152.833 265.075,154.945C263.283,157.057 261.083,158.681 258.475,159.817C255.867,160.953 252.883,161.521 249.523,161.521C246.163,161.521 243.179,160.953 240.571,159.817C237.963,158.681 235.763,157.057 233.971,154.945C232.179,152.833 230.819,150.281 229.891,147.289C228.963,144.297 228.499,140.961 228.499,137.281C228.499,133.601 228.963,130.257 229.891,127.249C230.819,124.241 232.179,121.673 233.971,119.545C235.763,117.417 237.963,115.769 240.571,114.601C243.179,113.433 246.163,112.849 249.523,112.849ZM249.523,159.505C252.595,159.505 255.283,158.977 257.587,157.921C259.891,156.865 261.819,155.361 263.371,153.409C264.923,151.457 266.083,149.121 266.851,146.401C267.619,143.681 268.003,140.641 268.003,137.281C268.003,133.921 267.619,130.865 266.851,128.113C266.083,125.361 264.923,123.001 263.371,121.033C261.819,119.065 259.891,117.545 257.587,116.473C255.283,115.401 252.595,114.865 249.523,114.865C246.451,114.865 243.763,115.401 241.459,116.473C239.155,117.545 237.227,119.065 235.675,121.033C234.123,123.001 232.963,125.361 232.195,128.113C231.427,130.865 231.043,133.921 231.043,137.281C231.043,140.641 231.427,143.681 232.195,146.401C232.963,149.121 234.123,151.457 235.675,153.409C237.227,155.361 239.155,156.865 241.459,157.921C243.763,158.977 246.451,159.505 249.523,159.505Z" style="fill-rule:nonzero;"/>
            <path d="M313.843,122.785C316.051,119.745 318.683,117.329 321.739,115.537C324.795,113.745 328.131,112.849 331.747,112.849C334.371,112.849 336.667,113.257 338.635,114.073C340.603,114.889 342.235,116.057 343.531,117.577C344.827,119.097 345.803,120.961 346.459,123.169C347.115,125.377 347.443,127.873 347.443,130.657L347.443,160.945L344.899,160.945L344.899,130.657C344.899,128.193 344.627,125.985 344.083,124.033C343.539,122.081 342.699,120.425 341.563,119.065C340.427,117.705 339.011,116.665 337.315,115.945C335.619,115.225 333.619,114.865 331.315,114.865C327.859,114.865 324.667,115.769 321.739,117.577C318.811,119.385 316.211,121.889 313.939,125.089L313.939,160.945L311.395,160.945L311.395,113.617L312.595,113.617C313.203,113.617 313.523,113.937 313.555,114.577L313.843,122.785Z" style="fill-rule:nonzero;"/>
            <path d="M397.843,132.721C397.843,129.873 397.435,127.337 396.619,125.113C395.803,122.889 394.683,121.009 393.259,119.473C391.835,117.937 390.147,116.769 388.195,115.969C386.243,115.169 384.131,114.769 381.859,114.769C379.171,114.769 376.763,115.193 374.635,116.041C372.507,116.889 370.675,118.097 369.139,119.665C367.603,121.233 366.363,123.121 365.419,125.329C364.475,127.537 363.859,130.001 363.571,132.721L397.843,132.721ZM398.899,155.137C398.259,155.937 397.363,156.721 396.211,157.489C395.059,158.257 393.739,158.937 392.251,159.529C390.763,160.121 389.147,160.601 387.403,160.969C385.659,161.337 383.875,161.521 382.051,161.521C378.819,161.521 375.899,160.953 373.291,159.817C370.683,158.681 368.459,157.041 366.619,154.897C364.779,152.753 363.363,150.121 362.371,147.001C361.379,143.881 360.883,140.321 360.883,136.321C360.883,132.865 361.355,129.705 362.299,126.841C363.243,123.977 364.611,121.505 366.403,119.425C368.195,117.345 370.387,115.729 372.979,114.577C375.571,113.425 378.515,112.849 381.811,112.849C384.371,112.849 386.763,113.297 388.987,114.193C391.211,115.089 393.155,116.409 394.819,118.153C396.483,119.897 397.787,122.049 398.731,124.609C399.675,127.169 400.147,130.097 400.147,133.393C400.147,134.065 399.859,134.401 399.283,134.401L363.427,134.401C363.395,134.721 363.379,135.033 363.379,135.337L363.379,136.321C363.379,140.097 363.827,143.425 364.723,146.305C365.619,149.185 366.883,151.601 368.515,153.553C370.147,155.505 372.123,156.985 374.443,157.993C376.763,159.001 379.347,159.505 382.195,159.505C384.723,159.505 386.915,159.225 388.771,158.665C390.627,158.105 392.179,157.489 393.427,156.817C394.675,156.145 395.643,155.529 396.331,154.969C397.019,154.409 397.459,154.129 397.651,154.129C397.907,154.129 398.115,154.225 398.275,154.417L398.899,155.137Z" style="fill-rule:nonzero;"/>
            <path d="M447.571,132.721C447.571,129.873 447.163,127.337 446.347,125.113C445.531,122.889 444.411,121.009 442.987,119.473C441.563,117.937 439.875,116.769 437.923,115.969C435.971,115.169 433.859,114.769 431.587,114.769C428.899,114.769 426.491,115.193 424.363,116.041C422.235,116.889 420.403,118.097 418.867,119.665C417.331,121.233 416.091,123.121 415.147,125.329C414.203,127.537 413.587,130.001 413.299,132.721L447.571,132.721ZM448.627,155.137C447.987,155.937 447.091,156.721 445.939,157.489C444.787,158.257 443.467,158.937 441.979,159.529C440.491,160.121 438.875,160.601 437.131,160.969C435.387,161.337 433.603,161.521 431.779,161.521C428.547,161.521 425.627,160.953 423.019,159.817C420.411,158.681 418.187,157.041 416.347,154.897C414.507,152.753 413.091,150.121 412.099,147.001C411.107,143.881 410.611,140.321 410.611,136.321C410.611,132.865 411.083,129.705 412.027,126.841C412.971,123.977 414.339,121.505 416.131,119.425C417.923,117.345 420.115,115.729 422.707,114.577C425.299,113.425 428.243,112.849 431.539,112.849C434.099,112.849 436.491,113.297 438.715,114.193C440.939,115.089 442.883,116.409 444.547,118.153C446.211,119.897 447.515,122.049 448.459,124.609C449.403,127.169 449.875,130.097 449.875,133.393C449.875,134.065 449.587,134.401 449.011,134.401L413.155,134.401C413.123,134.721 413.107,135.033 413.107,135.337L413.107,136.321C413.107,140.097 413.555,143.425 414.451,146.305C415.347,149.185 416.611,151.601 418.243,153.553C419.875,155.505 421.851,156.985 424.171,157.993C426.491,159.001 429.075,159.505 431.923,159.505C434.451,159.505 436.643,159.225 438.499,158.665C440.355,158.105 441.907,157.489 443.155,156.817C444.403,156.145 445.371,155.529 446.059,154.969C446.747,154.409 447.187,154.129 447.379,154.129C447.635,154.129 447.843,154.225 448.003,154.417L448.627,155.137Z" style="fill-rule:nonzero;"/>
            <path d="M496.291,123.169C494.307,120.129 492.115,117.977 489.715,116.713C487.315,115.449 484.563,114.817 481.459,114.817C478.355,114.817 475.651,115.385 473.347,116.521C471.043,117.657 469.123,119.233 467.587,121.249C466.051,123.265 464.899,125.649 464.131,128.401C463.363,131.153 462.979,134.145 462.979,137.377C462.979,144.897 464.395,150.465 467.227,154.081C470.059,157.697 474.195,159.505 479.635,159.505C482.963,159.505 486.043,158.593 488.875,156.769C491.707,154.945 494.179,152.417 496.291,149.185L496.291,123.169ZM498.835,91.537L498.835,160.945L497.683,160.945C497.043,160.945 496.707,160.625 496.675,159.985L496.387,151.537C494.275,154.641 491.755,157.081 488.827,158.857C485.899,160.633 482.659,161.521 479.107,161.521C473.091,161.521 468.467,159.537 465.235,155.569C462.003,151.601 460.387,145.537 460.387,137.377C460.387,133.921 460.827,130.705 461.707,127.729C462.587,124.753 463.899,122.161 465.643,119.953C467.387,117.745 469.547,116.009 472.123,114.745C474.699,113.481 477.683,112.849 481.075,112.849C484.467,112.849 487.403,113.497 489.883,114.793C492.363,116.089 494.499,118.033 496.291,120.625L496.291,91.537L498.835,91.537Z" style="fill-rule:nonzero;"/>
            <path d="M540.883,118.465C540.723,118.753 540.483,118.897 540.163,118.897C539.875,118.897 539.467,118.681 538.939,118.249C538.411,117.817 537.683,117.353 536.755,116.857C535.827,116.361 534.667,115.897 533.275,115.465C531.883,115.033 530.163,114.817 528.115,114.817C526.227,114.817 524.507,115.097 522.955,115.657C521.403,116.217 520.067,116.961 518.947,117.889C517.827,118.817 516.963,119.905 516.355,121.153C515.747,122.401 515.443,123.697 515.443,125.041C515.443,126.641 515.835,127.985 516.619,129.073C517.403,130.161 518.435,131.081 519.715,131.833C520.995,132.585 522.451,133.225 524.083,133.753C525.715,134.281 527.379,134.809 529.075,135.337C530.771,135.865 532.435,136.433 534.067,137.041C535.699,137.649 537.155,138.401 538.435,139.297C539.715,140.193 540.747,141.297 541.531,142.609C542.315,143.921 542.707,145.537 542.707,147.457C542.707,149.441 542.355,151.297 541.651,153.025C540.947,154.753 539.915,156.265 538.555,157.561C537.195,158.857 535.531,159.873 533.563,160.609C531.595,161.345 529.347,161.713 526.819,161.713C525.123,161.713 523.587,161.577 522.211,161.305C520.835,161.033 519.555,160.649 518.371,160.153C517.187,159.657 516.083,159.057 515.059,158.353C514.035,157.649 513.043,156.865 512.083,156.001L512.707,155.185C512.835,155.025 512.955,154.905 513.067,154.825C513.179,154.745 513.363,154.705 513.619,154.705C513.939,154.705 514.395,154.969 514.987,155.497C515.579,156.025 516.379,156.609 517.387,157.249C518.395,157.889 519.667,158.473 521.203,159.001C522.739,159.529 524.627,159.793 526.867,159.793C529.075,159.793 531.019,159.481 532.699,158.857C534.379,158.233 535.787,157.377 536.923,156.289C538.059,155.201 538.915,153.929 539.491,152.473C540.067,151.017 540.355,149.473 540.355,147.841C540.355,146.113 539.963,144.673 539.179,143.521C538.395,142.369 537.363,141.401 536.083,140.617C534.803,139.833 533.347,139.169 531.715,138.625C530.083,138.081 528.419,137.553 526.723,137.041C525.027,136.529 523.363,135.977 521.731,135.385C520.099,134.793 518.643,134.057 517.363,133.177C516.083,132.297 515.051,131.217 514.267,129.937C513.483,128.657 513.091,127.057 513.091,125.137C513.091,123.537 513.451,121.993 514.171,120.505C514.891,119.017 515.907,117.705 517.219,116.569C518.531,115.433 520.107,114.529 521.947,113.857C523.787,113.185 525.843,112.849 528.115,112.849C530.867,112.849 533.299,113.233 535.411,114.001C537.523,114.769 539.523,115.985 541.411,117.649L540.883,118.465Z" style="fill-rule:nonzero;"/>
            <path d="M595.075,161.713C592.131,161.713 589.827,160.905 588.163,159.289C586.499,157.673 585.667,155.073 585.667,151.489L585.667,117.361L578.275,117.361C577.667,117.361 577.363,117.121 577.363,116.641L577.363,115.777L585.667,115.441L586.387,97.201C586.419,97.009 586.499,96.825 586.627,96.649C586.755,96.473 586.931,96.385 587.155,96.385L588.211,96.385L588.211,115.441L603.859,115.441L603.859,117.361L588.211,117.361L588.211,151.393C588.211,152.865 588.403,154.121 588.787,155.161C589.171,156.201 589.683,157.057 590.323,157.729C590.963,158.401 591.723,158.889 592.603,159.193C593.483,159.497 594.435,159.649 595.459,159.649C596.707,159.649 597.803,159.457 598.747,159.073C599.691,158.689 600.499,158.273 601.171,157.825C601.843,157.377 602.387,156.961 602.803,156.577C603.219,156.193 603.523,156.001 603.715,156.001C603.875,156.001 604.051,156.097 604.243,156.289L604.867,157.201C604.323,157.873 603.691,158.481 602.971,159.025C602.251,159.569 601.459,160.041 600.595,160.441C599.731,160.841 598.835,161.153 597.907,161.377C596.979,161.601 596.035,161.713 595.075,161.713Z" style="fill-rule:nonzero;"/>
            <path d="M633.091,112.849C636.451,112.849 639.435,113.433 642.043,114.601C644.651,115.769 646.851,117.417 648.643,119.545C650.435,121.673 651.795,124.241 652.723,127.249C653.651,130.257 654.115,133.601 654.115,137.281C654.115,140.961 653.651,144.297 652.723,147.289C651.795,150.281 650.435,152.833 648.643,154.945C646.851,157.057 644.651,158.681 642.043,159.817C639.435,160.953 636.451,161.521 633.091,161.521C629.731,161.521 626.747,160.953 624.139,159.817C621.531,158.681 619.331,157.057 617.539,154.945C615.747,152.833 614.387,150.281 613.459,147.289C612.531,144.297 612.067,140.961 612.067,137.281C612.067,133.601 612.531,130.257 613.459,127.249C614.387,124.241 615.747,121.673 617.539,119.545C619.331,117.417 621.531,115.769 624.139,114.601C626.747,113.433 629.731,112.849 633.091,112.849ZM633.091,159.505C636.163,159.505 638.851,158.977 641.155,157.921C643.459,156.865 645.387,155.361 646.939,153.409C648.491,151.457 649.651,149.121 650.419,146.401C651.187,143.681 651.571,140.641 651.571,137.281C651.571,133.921 651.187,130.865 650.419,128.113C649.651,125.361 648.491,123.001 646.939,121.033C645.387,119.065 643.459,117.545 641.155,116.473C638.851,115.401 636.163,114.865 633.091,114.865C630.019,114.865 627.331,115.401 625.027,116.473C622.723,117.545 620.795,119.065 619.243,121.033C617.691,123.001 616.531,125.361 615.763,128.113C614.995,130.865 614.611,133.921 614.611,137.281C614.611,140.641 614.995,143.681 615.763,146.401C616.531,149.121 617.691,151.457 619.243,153.409C620.795,155.361 622.723,156.865 625.027,157.921C627.331,158.977 630.019,159.505 633.091,159.505Z" style="fill-rule:nonzero;"/>
            <path d="M697.507,122.641C699.715,119.665 702.339,117.289 705.379,115.513C708.419,113.737 711.731,112.849 715.315,112.849C717.939,112.849 720.235,113.257 722.203,114.073C724.171,114.889 725.803,116.057 727.099,117.577C728.395,119.097 729.371,120.961 730.027,123.169C730.683,125.377 731.011,127.873 731.011,130.657L731.011,160.945L728.467,160.945L728.467,130.657C728.467,128.193 728.195,125.985 727.651,124.033C727.107,122.081 726.267,120.425 725.131,119.065C723.995,117.705 722.579,116.665 720.883,115.945C719.187,115.225 717.187,114.865 714.883,114.865C711.427,114.865 708.235,115.769 705.307,117.577C702.379,119.385 699.779,121.889 697.507,125.089L697.507,160.945L694.963,160.945L694.963,91.537L697.507,91.537L697.507,122.641Z" style="fill-rule:nonzero;"/>
            <path d="M781.411,132.721C781.411,129.873 781.003,127.337 780.187,125.113C779.371,122.889 778.251,121.009 776.827,119.473C775.403,117.937 773.715,116.769 771.763,115.969C769.811,115.169 767.699,114.769 765.427,114.769C762.739,114.769 760.331,115.193 758.203,116.041C756.075,116.889 754.243,118.097 752.707,119.665C751.171,121.233 749.931,123.121 748.987,125.329C748.043,127.537 747.427,130.001 747.139,132.721L781.411,132.721ZM782.467,155.137C781.827,155.937 780.931,156.721 779.779,157.489C778.627,158.257 777.307,158.937 775.819,159.529C774.331,160.121 772.715,160.601 770.971,160.969C769.227,161.337 767.443,161.521 765.619,161.521C762.387,161.521 759.467,160.953 756.859,159.817C754.251,158.681 752.027,157.041 750.187,154.897C748.347,152.753 746.931,150.121 745.939,147.001C744.947,143.881 744.451,140.321 744.451,136.321C744.451,132.865 744.923,129.705 745.867,126.841C746.811,123.977 748.179,121.505 749.971,119.425C751.763,117.345 753.955,115.729 756.547,114.577C759.139,113.425 762.083,112.849 765.379,112.849C767.939,112.849 770.331,113.297 772.555,114.193C774.779,115.089 776.723,116.409 778.387,118.153C780.051,119.897 781.355,122.049 782.299,124.609C783.243,127.169 783.715,130.097 783.715,133.393C783.715,134.065 783.427,134.401 782.851,134.401L746.995,134.401C746.963,134.721 746.947,135.033 746.947,135.337L746.947,136.321C746.947,140.097 747.395,143.425 748.291,146.305C749.187,149.185 750.451,151.601 752.083,153.553C753.715,155.505 755.691,156.985 758.011,157.993C760.331,159.001 762.915,159.505 765.763,159.505C768.291,159.505 770.483,159.225 772.339,158.665C774.195,158.105 775.747,157.489 776.995,156.817C778.243,156.145 779.211,155.529 779.899,154.969C780.587,154.409 781.027,154.129 781.219,154.129C781.475,154.129 781.683,154.225 781.843,154.417L782.467,155.137Z" style="fill-rule:nonzero;"/>
            <path d="M824.035,137.233C814.371,137.553 807.227,138.753 802.603,140.833C797.979,142.913 795.667,145.841 795.667,149.617C795.667,151.377 795.963,152.897 796.555,154.177C797.147,155.457 797.931,156.521 798.907,157.369C799.883,158.217 800.995,158.841 802.243,159.241C803.491,159.641 804.771,159.841 806.083,159.841C808.131,159.841 810.003,159.609 811.699,159.145C813.395,158.681 814.963,158.049 816.403,157.249C817.843,156.449 819.187,155.505 820.435,154.417C821.683,153.329 822.883,152.177 824.035,150.961L824.035,137.233ZM795.715,120.337C798.083,117.905 800.563,116.049 803.155,114.769C805.747,113.489 808.707,112.849 812.035,112.849C814.499,112.849 816.643,113.241 818.467,114.025C820.291,114.809 821.803,115.937 823.003,117.409C824.203,118.881 825.091,120.665 825.667,122.761C826.243,124.857 826.531,127.217 826.531,129.841L826.531,160.945L825.667,160.945C825.027,160.945 824.659,160.609 824.563,159.937L824.083,152.929C822.771,154.273 821.459,155.489 820.147,156.577C818.835,157.665 817.443,158.585 815.971,159.337C814.499,160.089 812.915,160.673 811.219,161.089C809.523,161.505 807.651,161.713 805.603,161.713C804.099,161.713 802.611,161.489 801.139,161.041C799.667,160.593 798.339,159.889 797.155,158.929C795.971,157.969 795.019,156.729 794.299,155.209C793.579,153.689 793.219,151.857 793.219,149.713C793.219,147.633 793.819,145.745 795.019,144.049C796.219,142.353 798.083,140.889 800.611,139.657C803.139,138.425 806.339,137.449 810.211,136.729C814.083,136.009 818.691,135.585 824.035,135.457L824.035,129.841C824.035,125.105 823.011,121.425 820.963,118.801C818.915,116.177 815.875,114.865 811.843,114.865C809.443,114.865 807.379,115.209 805.651,115.897C803.923,116.585 802.483,117.353 801.331,118.201C800.179,119.049 799.259,119.817 798.571,120.505C797.883,121.193 797.363,121.537 797.011,121.537C796.691,121.537 796.403,121.361 796.147,121.009L795.715,120.337Z" style="fill-rule:nonzero;"/>
            <path d="M845.395,126.289C846.099,124.145 846.931,122.241 847.891,120.577C848.851,118.913 849.963,117.505 851.227,116.353C852.491,115.201 853.923,114.329 855.523,113.737C857.123,113.145 858.931,112.849 860.947,112.849C861.875,112.849 862.827,112.921 863.803,113.065C864.779,113.209 865.651,113.505 866.419,113.953L866.131,115.441C866.003,115.793 865.779,115.969 865.459,115.969C865.107,115.969 864.571,115.849 863.851,115.609C863.131,115.369 862.067,115.249 860.659,115.249C858.675,115.249 856.907,115.561 855.355,116.185C853.803,116.809 852.427,117.729 851.227,118.945C850.027,120.161 848.963,121.681 848.035,123.505C847.107,125.329 846.259,127.457 845.491,129.889L845.491,160.945L842.947,160.945L842.947,113.617L844.099,113.617C844.739,113.617 845.075,113.969 845.107,114.673L845.395,126.289Z" style="fill-rule:nonzero;"/>
            <path d="M904.099,113.617L904.099,160.945L901.603,160.945L901.603,113.617L904.099,113.617ZM906.163,96.529C906.163,96.977 906.067,97.393 905.875,97.777C905.683,98.161 905.435,98.505 905.131,98.809C904.827,99.113 904.475,99.353 904.075,99.529C903.675,99.705 903.267,99.793 902.851,99.793C901.955,99.793 901.179,99.465 900.523,98.809C899.867,98.153 899.539,97.393 899.539,96.529C899.539,95.633 899.867,94.857 900.523,94.201C901.179,93.545 901.955,93.217 902.851,93.217C903.267,93.217 903.675,93.305 904.075,93.481C904.475,93.657 904.827,93.897 905.131,94.201C905.435,94.505 905.683,94.857 905.875,95.257C906.067,95.657 906.163,96.081 906.163,96.529Z" style="fill-rule:nonzero;"/>
            <path d="M933.667,161.713C930.723,161.713 928.419,160.905 926.755,159.289C925.091,157.673 924.259,155.073 924.259,151.489L924.259,117.361L916.867,117.361C916.259,117.361 915.955,117.121 915.955,116.641L915.955,115.777L924.259,115.441L924.979,97.201C925.011,97.009 925.091,96.825 925.219,96.649C925.347,96.473 925.523,96.385 925.747,96.385L926.803,96.385L926.803,115.441L942.451,115.441L942.451,117.361L926.803,117.361L926.803,151.393C926.803,152.865 926.995,154.121 927.379,155.161C927.763,156.201 928.275,157.057 928.915,157.729C929.555,158.401 930.315,158.889 931.195,159.193C932.075,159.497 933.027,159.649 934.051,159.649C935.299,159.649 936.395,159.457 937.339,159.073C938.283,158.689 939.091,158.273 939.763,157.825C940.435,157.377 940.979,156.961 941.395,156.577C941.811,156.193 942.115,156.001 942.307,156.001C942.467,156.001 942.643,156.097 942.835,156.289L943.459,157.201C942.915,157.873 942.283,158.481 941.563,159.025C940.843,159.569 940.051,160.041 939.187,160.441C938.323,160.841 937.427,161.153 936.499,161.377C935.571,161.601 934.627,161.713 933.667,161.713Z" style="fill-rule:nonzero;"/>
            <path d="M950.035,99.265C950.835,98.433 951.739,97.625 952.747,96.841C953.755,96.057 954.883,95.353 956.131,94.729C957.379,94.105 958.739,93.609 960.211,93.241C961.683,92.873 963.283,92.689 965.011,92.689C967.091,92.689 969.083,93.009 970.987,93.649C972.891,94.289 974.571,95.209 976.027,96.409C977.483,97.609 978.643,99.073 979.507,100.801C980.371,102.529 980.803,104.481 980.803,106.657C980.803,108.481 980.579,110.113 980.131,111.553C979.683,112.993 979.091,114.289 978.355,115.441C977.619,116.593 976.779,117.633 975.835,118.561C974.891,119.489 973.923,120.345 972.931,121.129C971.939,121.913 970.963,122.641 970.003,123.313C969.043,123.985 968.179,124.665 967.411,125.353C966.643,126.041 966.019,126.737 965.539,127.441C965.059,128.145 964.803,128.929 964.771,129.793L964.387,137.905L962.707,137.905L962.563,129.601C962.531,128.321 962.899,127.185 963.667,126.193C964.435,125.201 965.411,124.241 966.595,123.313C967.779,122.385 969.051,121.425 970.411,120.433C971.771,119.441 973.043,118.313 974.227,117.049C975.411,115.785 976.395,114.321 977.179,112.657C977.963,110.993 978.355,109.025 978.355,106.753C978.355,104.865 977.979,103.177 977.227,101.689C976.475,100.201 975.475,98.945 974.227,97.921C972.979,96.897 971.547,96.113 969.931,95.569C968.315,95.025 966.627,94.753 964.867,94.753C962.659,94.753 960.747,95.057 959.131,95.665C957.515,96.273 956.155,96.945 955.051,97.681C953.947,98.417 953.091,99.089 952.483,99.697C951.875,100.305 951.491,100.609 951.331,100.609C951.043,100.609 950.819,100.497 950.659,100.273L950.035,99.265ZM959.923,158.113C959.923,157.089 960.267,156.217 960.955,155.497C961.643,154.777 962.499,154.417 963.523,154.417C964.547,154.417 965.419,154.777 966.139,155.497C966.859,156.217 967.219,157.089 967.219,158.113C967.219,159.137 966.859,159.993 966.139,160.681C965.419,161.369 964.547,161.713 963.523,161.713C962.499,161.713 961.643,161.369 960.955,160.681C960.267,159.993 959.923,159.137 959.923,158.113Z" style="fill-rule:nonzero;"/>
        </g>
    </g>
</svg>
