<?xml version="1.0" encoding="UTF-8" standalone="no"?>
<!DOCTYPE svg PUBLIC "-//W3C//DTD SVG 1.1//EN" "http://www.w3.org/Graphics/SVG/1.1/DTD/svg11.dtd">
<svg width="100%" height="100%" viewBox="0 0 655 90" version="1.1" xmlns="http://www.w3.org/2000/svg" xmlns:xlink="http://www.w3.org/1999/xlink" xml:space="preserve" xmlns:serif="http://www.serif.com/" style="fill-rule:evenodd;clip-rule:evenodd;stroke-linejoin:round;stroke-miterlimit:2;">
    <g transform="matrix(1,0,0,1,-68.6932,-22.702)">
        <g transform="matrix(1,0,0,1,-7.358,-70.083)">
            <path d="M163.603,95.665L144.691,151.441C144.076,153.375 143.46,155.149 142.844,157.131C142.243,155.313 141.634,153.435 140.947,151.633L121.267,99.313L120.307,99.313L100.339,152.593C99.856,153.961 99.306,155.531 98.801,156.907C98.298,155.555 97.749,154.054 97.267,152.689L77.971,95.665L76.051,95.665L76.051,95.857L98.227,161.425L98.995,161.425L119.539,106.801C119.925,105.72 120.373,104.639 120.784,103.457C121.172,104.617 121.572,105.664 122.035,106.897L142.579,161.425L143.347,161.425L165.523,95.857L165.523,95.665L163.603,95.665Z" style="fill-rule:nonzero;"/>
            <path d="M193.747,121.873C185.195,121.873 179.863,127.577 178.291,133.312L178.291,92.785L176.371,92.785L176.371,160.945L178.291,160.945L178.291,141.745C178.291,130.897 185.011,123.697 193.459,123.697C202.387,123.697 205.555,129.457 205.555,137.425L205.555,160.945L207.475,160.945L207.475,137.425C207.475,128.401 203.251,121.873 193.747,121.873L193.747,121.873Z" style="fill-rule:nonzero;"/>
            <path d="M235.795,121.873C231.667,121.873 226.867,122.929 222.163,125.233L222.835,126.865C227.251,124.753 231.859,123.697 235.795,123.697C243.091,123.697 247.891,126.769 247.891,134.545L247.891,138.385C245.875,138.097 243.955,138.001 240.691,138.001C230.419,138.001 220.627,141.745 220.627,151.249C220.627,157.969 225.907,161.617 232.627,161.617C240.045,161.617 246.544,157.76 248.083,149.416L248.083,160.945L249.811,160.945L249.811,134.545C249.811,125.713 244.339,121.873 235.795,121.873ZM232.531,159.793C227.251,159.793 222.547,157.009 222.547,151.153C222.547,143.377 230.419,139.825 240.403,139.825C243.763,139.825 245.107,139.825 247.891,140.209C247.891,153.265 242.323,159.793 232.531,159.793Z" style="fill-rule:nonzero;"/>
            <path d="M277.459,161.617C281.491,161.617 284.947,159.505 287.251,157.489L286.099,156.049C283.699,158.161 280.627,159.793 277.459,159.793C271.795,159.793 269.299,156.241 269.299,150.865L269.299,124.369L285.907,124.369L285.907,122.545L269.299,122.545L269.299,107.761L267.379,107.761L267.379,122.545L259.795,122.545L259.795,124.177L267.379,124.369L267.379,150.865C267.379,157.681 271.219,161.617 277.459,161.617Z" style="fill-rule:nonzero;"/>
            <path d="M295.699,114.769L296.947,114.769L297.619,95.665L295.699,95.665L295.699,114.769Z" style="fill-rule:nonzero;"/>
            <path d="M322.675,161.617C329.587,161.617 334.867,157.681 334.867,151.921C334.867,145.777 329.107,142.801 322.963,140.401C317.299,138.193 312.115,136.081 312.115,131.089C312.115,126.097 316.819,123.697 322.099,123.697C325.939,123.697 329.395,125.041 332.371,126.865L333.235,125.329C330.259,123.313 326.419,121.873 322.099,121.873C316.147,121.873 310.195,124.849 310.195,131.089C310.195,137.329 316.531,139.921 322.195,142.129C328.435,144.529 332.947,146.929 332.947,151.921C332.947,156.433 329.011,159.793 322.675,159.793C318.163,159.793 313.843,158.161 310.003,155.281L308.947,156.913C312.979,159.985 317.683,161.617 322.675,161.617Z" style="fill-rule:nonzero;"/>
            <path d="M381.619,161.617C385.651,161.617 389.107,159.505 391.411,157.489L390.259,156.049C387.859,158.161 384.787,159.793 381.619,159.793C375.955,159.793 373.459,156.241 373.459,150.865L373.459,124.369L390.067,124.369L390.067,122.545L373.459,122.545L373.459,107.761L371.539,107.761L371.539,122.545L363.955,122.545L363.955,124.177L371.539,124.369L371.539,150.865C371.539,157.681 375.379,161.617 381.619,161.617Z" style="fill-rule:nonzero;"/>
            <path d="M419.443,121.873C410.891,121.873 405.559,127.577 403.987,133.312L403.987,92.785L402.067,92.785L402.067,160.945L403.987,160.945L403.987,141.745C403.987,130.897 410.707,123.697 419.155,123.697C428.083,123.697 431.251,129.457 431.251,137.425L431.251,160.945L433.171,160.945L433.171,137.425C433.171,128.401 428.947,121.873 419.443,121.873L419.443,121.873Z" style="fill-rule:nonzero;"/>
            <path d="M465.523,121.585C453.427,121.585 446.419,131.185 446.419,141.745C446.419,152.977 454.003,161.905 465.715,161.905C472.627,161.905 477.043,159.697 480.883,156.241L479.827,154.801C476.179,158.161 472.531,160.081 465.715,160.081C456.58,160.081 448.803,153.474 448.359,142.897L482.995,142.897C483.066,142.043 483.102,141.198 483.102,140.365C483.102,129.978 477.521,121.585 465.523,121.585L465.523,121.585ZM465.523,123.409C476.511,123.409 481.527,131.035 481.201,141.073L448.355,141.073C448.743,130.597 456.178,123.409 465.523,123.409L465.523,123.409Z" style="fill-rule:nonzero;"/>
            <path d="M526.771,161.617C533.683,161.617 538.963,157.681 538.963,151.921C538.963,145.777 533.203,142.801 527.059,140.401C521.395,138.193 516.211,136.081 516.211,131.089C516.211,126.097 520.915,123.697 526.195,123.697C530.035,123.697 533.491,125.041 536.467,126.865L537.331,125.329C534.355,123.313 530.515,121.873 526.195,121.873C520.243,121.873 514.291,124.849 514.291,131.089C514.291,137.329 520.627,139.921 526.291,142.129C532.531,144.529 537.043,146.929 537.043,151.921C537.043,156.433 533.107,159.793 526.771,159.793C522.259,159.793 517.939,158.161 514.099,155.281L513.043,156.913C517.075,159.985 521.779,161.617 526.771,161.617Z" style="fill-rule:nonzero;"/>
            <path d="M563.923,161.617C567.955,161.617 571.411,159.505 573.715,157.489L572.563,156.049C570.163,158.161 567.091,159.793 563.923,159.793C558.259,159.793 555.763,156.241 555.763,150.865L555.763,124.369L572.371,124.369L572.371,122.545L555.763,122.545L555.763,107.761L553.843,107.761L553.843,122.545L546.259,122.545L546.259,124.177L553.843,124.369L553.843,150.865C553.843,157.681 557.683,161.617 563.923,161.617Z" style="fill-rule:nonzero;"/>
            <path d="M598.963,161.809C610.387,161.809 618.547,153.457 618.547,141.745C618.547,129.937 610.387,121.585 598.963,121.585C587.539,121.585 579.379,129.937 579.379,141.745C579.379,153.457 587.539,161.809 598.963,161.809ZM598.963,159.985C588.691,159.985 581.299,152.401 581.299,141.745C581.299,130.993 588.691,123.409 598.963,123.409C609.235,123.409 616.627,130.993 616.627,141.745C616.627,152.401 609.235,159.985 598.963,159.985Z" style="fill-rule:nonzero;"/>
            <path d="M646.387,121.777C638.694,121.777 635.585,126.912 634.283,130.64L634.195,122.545L632.371,122.545L632.371,160.945L634.291,160.945L634.291,139.633C634.291,130.225 638.803,123.601 646.099,123.601C648.403,123.601 649.651,123.985 651.379,124.561L651.955,122.833C650.323,122.161 648.691,121.777 646.387,121.777L646.387,121.777Z" style="fill-rule:nonzero;"/>
            <path d="M692.275,122.545L677.875,154.705C677.297,156.026 676.79,157.134 676.233,158.394C675.646,157.162 675.247,156.373 674.419,154.801L658.291,122.545L656.275,122.545L656.275,122.737L675.301,160.601L665.683,181.873L665.683,182.065L667.699,182.065L694.291,122.737L694.291,122.545L692.275,122.545Z" style="fill-rule:nonzero;"/>
            <path d="M711.475,145.393L713.395,145.393C713.285,144.165 713.23,143.037 713.23,141.994C713.23,134.88 715.738,131.674 719.923,127.153C726.355,120.241 730.387,116.689 730.387,109.009C730.387,101.905 724.627,94.705 714.259,94.705C707.635,94.705 702.259,96.913 697.555,102.193L698.899,103.537C703.219,98.545 708.019,96.529 714.259,96.529C722.419,96.529 728.467,101.809 728.467,109.009C728.467,116.209 724.531,119.377 718.675,125.809C714.43,130.479 711.311,134.098 711.311,142.045C711.311,143.083 711.364,144.195 711.475,145.393L711.475,145.393ZM712.627,161.905C713.683,161.905 714.739,161.233 714.739,159.793C714.739,158.353 713.683,157.681 712.627,157.681C711.571,157.681 710.515,158.353 710.515,159.793C710.515,161.233 711.571,161.905 712.627,161.905Z" style="fill-rule:nonzero;"/>
        </g>
    </g>
</svg>
