<?xml version="1.0" encoding="UTF-8" standalone="no"?>
<!DOCTYPE svg PUBLIC "-//W3C//DTD SVG 1.1//EN" "http://www.w3.org/Graphics/SVG/1.1/DTD/svg11.dtd">
<svg width="100%" height="100%" viewBox="0 0 837 70" version="1.1" xmlns="http://www.w3.org/2000/svg" xmlns:xlink="http://www.w3.org/1999/xlink" xml:space="preserve" xmlns:serif="http://www.serif.com/" style="fill-rule:evenodd;clip-rule:evenodd;stroke-linejoin:round;stroke-miterlimit:2;">
    <g transform="matrix(1,0,0,1,-66.487,-111.159)">
        <g transform="matrix(1,0,0,1,-9.5642,18.3743)">
            <path d="M163.603,95.665L144.691,151.441C144.076,153.375 143.46,155.149 142.844,157.131C142.243,155.313 141.634,153.435 140.947,151.633L121.267,99.313L120.307,99.313L100.339,152.593C99.856,153.961 99.306,155.531 98.801,156.907C98.298,155.555 97.749,154.054 97.267,152.689L77.971,95.665L76.051,95.665L76.051,95.857L98.227,161.425L98.995,161.425L119.539,106.801C119.925,105.72 120.373,104.639 120.784,103.457C121.172,104.617 121.572,105.664 122.035,106.897L142.579,161.425L143.347,161.425L165.523,95.857L165.523,95.665L163.603,95.665Z" style="fill-rule:nonzero;"/>
            <path d="M193.747,121.873C185.195,121.873 179.863,127.577 178.291,133.312L178.291,92.785L176.371,92.785L176.371,160.945L178.291,160.945L178.291,141.745C178.291,130.897 185.011,123.697 193.459,123.697C202.387,123.697 205.555,129.457 205.555,137.425L205.555,160.945L207.475,160.945L207.475,137.425C207.475,128.401 203.251,121.873 193.747,121.873L193.747,121.873Z" style="fill-rule:nonzero;"/>
            <path d="M240.307,161.809C251.731,161.809 259.891,153.457 259.891,141.745C259.891,129.937 251.731,121.585 240.307,121.585C228.883,121.585 220.723,129.937 220.723,141.745C220.723,153.457 228.883,161.809 240.307,161.809ZM240.307,159.985C230.035,159.985 222.643,152.401 222.643,141.745C222.643,130.993 230.035,123.409 240.307,123.409C250.579,123.409 257.971,130.993 257.971,141.745C257.971,152.401 250.579,159.985 240.307,159.985Z" style="fill-rule:nonzero;"/>
            <path d="M312.307,121.873C303.625,121.873 298.115,126.964 296.553,130.92L296.467,122.545L294.643,122.545L294.643,160.945L296.563,160.945L296.563,138.193C296.563,128.785 304.147,123.697 312.211,123.697C321.523,123.697 323.827,129.553 323.827,137.617L323.827,160.945L325.747,160.945L325.747,137.425C325.747,128.497 322.387,121.873 312.307,121.873Z" style="fill-rule:nonzero;"/>
            <path d="M358.099,121.585C346.003,121.585 338.995,131.185 338.995,141.745C338.995,152.977 346.579,161.905 358.291,161.905C365.203,161.905 369.619,159.697 373.459,156.241L372.403,154.801C368.755,158.161 365.107,160.081 358.291,160.081C349.156,160.081 341.379,153.474 340.935,142.897L375.571,142.897C375.642,142.043 375.678,141.198 375.678,140.365C375.678,129.978 370.097,121.585 358.099,121.585L358.099,121.585ZM358.099,123.409C369.087,123.409 374.103,131.035 373.777,141.073L340.931,141.073C341.319,130.597 348.754,123.409 358.099,123.409L358.099,123.409Z" style="fill-rule:nonzero;"/>
            <path d="M404.083,121.585C391.987,121.585 384.979,131.185 384.979,141.745C384.979,152.977 392.563,161.905 404.275,161.905C411.187,161.905 415.603,159.697 419.443,156.241L418.387,154.801C414.739,158.161 411.091,160.081 404.275,160.081C395.14,160.081 387.363,153.474 386.919,142.897L421.555,142.897C421.626,142.043 421.662,141.198 421.662,140.365C421.662,129.978 416.081,121.585 404.083,121.585L404.083,121.585ZM404.083,123.409C415.071,123.409 420.087,131.035 419.761,141.073L386.915,141.073C387.303,130.597 394.738,123.409 404.083,123.409L404.083,123.409Z" style="fill-rule:nonzero;"/>
            <path d="M467.443,92.785L467.443,123.217C467.443,126.735 467.443,129.302 467.571,133.534C464.971,126.65 458.418,121.873 449.971,121.873C437.875,121.873 430.963,131.473 430.963,141.745C430.963,152.113 438.067,161.617 449.971,161.617C458.536,161.617 464.747,156.987 467.555,150.044L467.635,160.945L469.363,160.945L469.363,92.785L467.443,92.785ZM449.971,159.793C439.315,159.793 432.883,151.153 432.883,141.745C432.883,132.433 439.027,123.697 449.971,123.697C461.587,123.697 467.443,132.817 467.443,141.745C467.443,150.673 461.587,159.793 449.971,159.793Z" style="fill-rule:nonzero;"/>
            <path d="M496.627,161.617C503.539,161.617 508.819,157.681 508.819,151.921C508.819,145.777 503.059,142.801 496.915,140.401C491.251,138.193 486.067,136.081 486.067,131.089C486.067,126.097 490.771,123.697 496.051,123.697C499.891,123.697 503.347,125.041 506.323,126.865L507.187,125.329C504.211,123.313 500.371,121.873 496.051,121.873C490.099,121.873 484.147,124.849 484.147,131.089C484.147,137.329 490.483,139.921 496.147,142.129C502.387,144.529 506.899,146.929 506.899,151.921C506.899,156.433 502.963,159.793 496.627,159.793C492.115,159.793 487.795,158.161 483.955,155.281L482.899,156.913C486.931,159.985 491.635,161.617 496.627,161.617Z" style="fill-rule:nonzero;"/>
            <path d="M555.571,161.617C559.603,161.617 563.059,159.505 565.363,157.489L564.211,156.049C561.811,158.161 558.739,159.793 555.571,159.793C549.907,159.793 547.411,156.241 547.411,150.865L547.411,124.369L564.019,124.369L564.019,122.545L547.411,122.545L547.411,107.761L545.491,107.761L545.491,122.545L537.907,122.545L537.907,124.177L545.491,124.369L545.491,150.865C545.491,157.681 549.331,161.617 555.571,161.617Z" style="fill-rule:nonzero;"/>
            <path d="M590.611,161.809C602.035,161.809 610.195,153.457 610.195,141.745C610.195,129.937 602.035,121.585 590.611,121.585C579.187,121.585 571.027,129.937 571.027,141.745C571.027,153.457 579.187,161.809 590.611,161.809ZM590.611,159.985C580.339,159.985 572.947,152.401 572.947,141.745C572.947,130.993 580.339,123.409 590.611,123.409C600.883,123.409 608.275,130.993 608.275,141.745C608.275,152.401 600.883,159.985 590.611,159.985Z" style="fill-rule:nonzero;"/>
            <path d="M662.323,121.873C653.771,121.873 648.439,127.577 646.867,133.312L646.867,92.785L644.947,92.785L644.947,160.945L646.867,160.945L646.867,141.745C646.867,130.897 653.587,123.697 662.035,123.697C670.963,123.697 674.131,129.457 674.131,137.425L674.131,160.945L676.051,160.945L676.051,137.425C676.051,128.401 671.827,121.873 662.323,121.873L662.323,121.873Z" style="fill-rule:nonzero;"/>
            <path d="M708.403,121.585C696.307,121.585 689.299,131.185 689.299,141.745C689.299,152.977 696.883,161.905 708.595,161.905C715.507,161.905 719.923,159.697 723.763,156.241L722.707,154.801C719.059,158.161 715.411,160.081 708.595,160.081C699.46,160.081 691.683,153.474 691.239,142.897L725.875,142.897C725.946,142.043 725.982,141.198 725.982,140.365C725.982,129.978 720.401,121.585 708.403,121.585L708.403,121.585ZM708.403,123.409C719.391,123.409 724.407,131.035 724.081,141.073L691.235,141.073C691.623,130.597 699.058,123.409 708.403,123.409L708.403,123.409Z" style="fill-rule:nonzero;"/>
            <path d="M750.355,121.873C746.227,121.873 741.427,122.929 736.723,125.233L737.395,126.865C741.811,124.753 746.419,123.697 750.355,123.697C757.651,123.697 762.451,126.769 762.451,134.545L762.451,138.385C760.435,138.097 758.515,138.001 755.251,138.001C744.979,138.001 735.187,141.745 735.187,151.249C735.187,157.969 740.467,161.617 747.187,161.617C754.605,161.617 761.104,157.76 762.643,149.416L762.643,160.945L764.371,160.945L764.371,134.545C764.371,125.713 758.899,121.873 750.355,121.873ZM747.091,159.793C741.811,159.793 737.107,157.009 737.107,151.153C737.107,143.377 744.979,139.825 754.963,139.825C758.323,139.825 759.667,139.825 762.451,140.209C762.451,153.265 756.883,159.793 747.091,159.793Z" style="fill-rule:nonzero;"/>
            <path d="M795.283,121.777C787.59,121.777 784.481,126.912 783.179,130.64L783.091,122.545L781.267,122.545L781.267,160.945L783.187,160.945L783.187,139.633C783.187,130.225 787.699,123.601 794.995,123.601C797.299,123.601 798.547,123.985 800.275,124.561L800.851,122.833C799.219,122.161 797.587,121.777 795.283,121.777L795.283,121.777Z" style="fill-rule:nonzero;"/>
            <path d="M832.284,107.639C833.366,107.639 834.217,106.789 834.217,105.706C834.217,104.623 833.366,103.772 832.284,103.772C831.201,103.772 830.35,104.623 830.35,105.706C830.35,106.789 831.201,107.639 832.284,107.639ZM831.283,160.945L833.203,160.945L833.203,122.545L831.283,122.545L831.283,160.945Z" style="fill-rule:nonzero;"/>
            <path d="M863.155,161.617C867.187,161.617 870.643,159.505 872.947,157.489L871.795,156.049C869.395,158.161 866.323,159.793 863.155,159.793C857.491,159.793 854.995,156.241 854.995,150.865L854.995,124.369L871.603,124.369L871.603,122.545L854.995,122.545L854.995,107.761L853.075,107.761L853.075,122.545L845.491,122.545L845.491,124.177L853.075,124.369L853.075,150.865C853.075,157.681 856.915,161.617 863.155,161.617Z" style="fill-rule:nonzero;"/>
            <path d="M893.395,145.393L895.315,145.393C895.205,144.165 895.15,143.037 895.15,141.994C895.15,134.88 897.658,131.674 901.843,127.153C908.275,120.241 912.307,116.689 912.307,109.009C912.307,101.905 906.547,94.705 896.179,94.705C889.555,94.705 884.179,96.913 879.475,102.193L880.819,103.537C885.139,98.545 889.939,96.529 896.179,96.529C904.339,96.529 910.387,101.809 910.387,109.009C910.387,116.209 906.451,119.377 900.595,125.809C896.35,130.479 893.231,134.098 893.231,142.045C893.231,143.083 893.284,144.195 893.395,145.393L893.395,145.393ZM894.547,161.905C895.603,161.905 896.659,161.233 896.659,159.793C896.659,158.353 895.603,157.681 894.547,157.681C893.491,157.681 892.435,158.353 892.435,159.793C892.435,161.233 893.491,161.905 894.547,161.905Z" style="fill-rule:nonzero;"/>
        </g>
    </g>
</svg>
