<?xml version="1.0" encoding="UTF-8" standalone="no"?>
<!DOCTYPE svg PUBLIC "-//W3C//DTD SVG 1.1//EN" "http://www.w3.org/Graphics/SVG/1.1/DTD/svg11.dtd">
<svg width="100%" height="100%" viewBox="0 0 237 35" version="1.1" xmlns="http://www.w3.org/2000/svg" xmlns:xlink="http://www.w3.org/1999/xlink" xml:space="preserve" xmlns:serif="http://www.serif.com/" style="fill-rule:evenodd;clip-rule:evenodd;stroke-linejoin:round;stroke-miterlimit:2;">
    <g transform="matrix(1,0,0,1,-714.922,-510.261)">
        <g transform="matrix(1,0,0,1,639.855,383.708)">
            <path d="M121.603,126.985L110.923,160.945L108.715,160.945L98.683,131.473C98.555,131.073 98.443,130.657 98.347,130.225C98.251,130.657 98.139,131.073 98.011,131.473L87.955,160.945L85.771,160.945L75.067,126.985L77.107,126.985C77.571,126.985 77.867,127.201 77.995,127.633L86.563,155.545C86.739,156.185 86.899,156.913 87.043,157.729C87.123,157.313 87.203,156.925 87.283,156.565C87.363,156.205 87.459,155.865 87.571,155.545L97.171,127.633C97.235,127.457 97.347,127.305 97.507,127.177C97.667,127.049 97.859,126.985 98.083,126.985L98.755,126.985C98.979,126.985 99.163,127.045 99.307,127.165C99.451,127.285 99.563,127.441 99.643,127.633L109.243,155.545C109.355,155.849 109.455,156.185 109.543,156.553C109.631,156.921 109.715,157.305 109.795,157.705C109.875,157.305 109.951,156.925 110.023,156.565C110.095,156.205 110.171,155.865 110.251,155.545L118.819,127.633C118.867,127.457 118.975,127.305 119.143,127.177C119.311,127.049 119.507,126.985 119.731,126.985L121.603,126.985Z" style="fill-rule:nonzero;"/>
            <path d="M129.163,137.065L129.163,160.945L126.883,160.945L126.883,137.065L129.163,137.065ZM130.147,128.833C130.147,129.121 130.087,129.389 129.967,129.637C129.847,129.885 129.691,130.105 129.499,130.297C129.307,130.489 129.083,130.641 128.827,130.753C128.571,130.865 128.299,130.921 128.011,130.921C127.723,130.921 127.451,130.865 127.195,130.753C126.939,130.641 126.715,130.489 126.523,130.297C126.331,130.105 126.179,129.885 126.067,129.637C125.955,129.389 125.899,129.121 125.899,128.833C125.899,128.545 125.955,128.269 126.067,128.005C126.179,127.741 126.331,127.513 126.523,127.321C126.715,127.129 126.939,126.977 127.195,126.865C127.451,126.753 127.723,126.697 128.011,126.697C128.299,126.697 128.571,126.753 128.827,126.865C129.083,126.977 129.307,127.129 129.499,127.321C129.691,127.513 129.847,127.741 129.967,128.005C130.087,128.269 130.147,128.545 130.147,128.833Z" style="fill-rule:nonzero;"/>
            <path d="M139.483,142.825C139.851,141.849 140.271,140.981 140.743,140.221C141.215,139.461 141.759,138.817 142.375,138.289C142.991,137.761 143.679,137.357 144.439,137.077C145.199,136.797 146.043,136.657 146.971,136.657C147.467,136.657 147.955,136.701 148.435,136.789C148.915,136.877 149.339,137.033 149.707,137.257L149.515,138.841C149.435,139.097 149.283,139.225 149.059,139.225C148.867,139.225 148.575,139.169 148.183,139.057C147.791,138.945 147.275,138.889 146.635,138.889C145.707,138.889 144.887,139.029 144.175,139.309C143.463,139.589 142.823,140.009 142.255,140.569C141.687,141.129 141.191,141.821 140.767,142.645C140.343,143.469 139.955,144.417 139.603,145.489L139.603,160.945L137.299,160.945L137.299,137.065L138.523,137.065C138.795,137.065 138.987,137.121 139.099,137.233C139.211,137.345 139.283,137.537 139.315,137.809L139.483,142.825Z" style="fill-rule:nonzero;"/>
            <path d="M169.675,146.593C169.675,145.313 169.495,144.165 169.135,143.149C168.775,142.133 168.267,141.273 167.611,140.569C166.955,139.865 166.175,139.325 165.271,138.949C164.367,138.573 163.371,138.385 162.283,138.385C161.051,138.385 159.947,138.577 158.971,138.961C157.995,139.345 157.151,139.897 156.439,140.617C155.727,141.337 155.155,142.201 154.723,143.209C154.291,144.217 154.003,145.345 153.859,146.593L169.675,146.593ZM153.739,148.057L153.739,148.513C153.739,150.305 153.947,151.881 154.363,153.241C154.779,154.601 155.371,155.741 156.139,156.661C156.907,157.581 157.835,158.273 158.923,158.737C160.011,159.201 161.227,159.433 162.571,159.433C163.771,159.433 164.811,159.301 165.691,159.037C166.571,158.773 167.311,158.477 167.911,158.149C168.511,157.821 168.987,157.525 169.339,157.261C169.691,156.997 169.947,156.865 170.107,156.865C170.315,156.865 170.475,156.945 170.587,157.105L171.211,157.873C170.827,158.353 170.319,158.801 169.687,159.217C169.055,159.633 168.351,159.989 167.575,160.285C166.799,160.581 165.967,160.817 165.079,160.993C164.191,161.169 163.299,161.257 162.403,161.257C160.771,161.257 159.283,160.973 157.939,160.405C156.595,159.837 155.443,159.009 154.483,157.921C153.523,156.833 152.783,155.501 152.263,153.925C151.743,152.349 151.483,150.545 151.483,148.513C151.483,146.801 151.727,145.221 152.215,143.773C152.703,142.325 153.407,141.077 154.327,140.029C155.247,138.981 156.375,138.161 157.711,137.569C159.047,136.977 160.563,136.681 162.259,136.681C163.603,136.681 164.851,136.913 166.003,137.377C167.155,137.841 168.155,138.517 169.003,139.405C169.851,140.293 170.519,141.385 171.007,142.681C171.495,143.977 171.739,145.465 171.739,147.145C171.739,147.497 171.691,147.737 171.595,147.865C171.499,147.993 171.339,148.057 171.115,148.057L153.739,148.057Z" style="fill-rule:nonzero;"/>
            <path d="M179.251,160.945L179.251,139.561L175.891,139.345C175.443,139.297 175.219,139.097 175.219,138.745L175.219,137.809L179.251,137.809L179.251,134.785C179.251,133.425 179.427,132.229 179.779,131.197C180.131,130.165 180.627,129.305 181.267,128.617C181.907,127.929 182.675,127.413 183.571,127.069C184.467,126.725 185.459,126.553 186.547,126.553C187.043,126.553 187.543,126.597 188.047,126.685C188.551,126.773 189.003,126.897 189.403,127.057L189.331,128.161C189.299,128.305 189.231,128.397 189.127,128.437C189.023,128.477 188.875,128.493 188.683,128.485C188.491,128.477 188.243,128.453 187.939,128.413C187.635,128.373 187.283,128.353 186.883,128.353C186.099,128.353 185.375,128.469 184.711,128.701C184.047,128.933 183.475,129.305 182.995,129.817C182.515,130.329 182.143,130.997 181.879,131.821C181.615,132.645 181.483,133.657 181.483,134.857L181.483,137.809L189.235,137.809L189.235,139.513L181.555,139.513L181.555,160.945L179.251,160.945Z" style="fill-rule:nonzero;"/>
            <path d="M196.363,142.825C196.731,141.849 197.151,140.981 197.623,140.221C198.095,139.461 198.639,138.817 199.255,138.289C199.871,137.761 200.559,137.357 201.319,137.077C202.079,136.797 202.923,136.657 203.851,136.657C204.347,136.657 204.835,136.701 205.315,136.789C205.795,136.877 206.219,137.033 206.587,137.257L206.395,138.841C206.315,139.097 206.163,139.225 205.939,139.225C205.747,139.225 205.455,139.169 205.063,139.057C204.671,138.945 204.155,138.889 203.515,138.889C202.587,138.889 201.767,139.029 201.055,139.309C200.343,139.589 199.703,140.009 199.135,140.569C198.567,141.129 198.071,141.821 197.647,142.645C197.223,143.469 196.835,144.417 196.483,145.489L196.483,160.945L194.179,160.945L194.179,137.065L195.403,137.065C195.675,137.065 195.867,137.121 195.979,137.233C196.091,137.345 196.163,137.537 196.195,137.809L196.363,142.825Z" style="fill-rule:nonzero;"/>
            <path d="M224.011,149.401C221.739,149.481 219.783,149.661 218.143,149.941C216.503,150.221 215.151,150.601 214.087,151.081C213.023,151.561 212.235,152.133 211.723,152.797C211.211,153.461 210.955,154.217 210.955,155.065C210.955,155.865 211.087,156.557 211.351,157.141C211.615,157.725 211.967,158.205 212.407,158.581C212.847,158.957 213.355,159.233 213.931,159.409C214.507,159.585 215.107,159.673 215.731,159.673C216.659,159.673 217.511,159.573 218.287,159.373C219.063,159.173 219.783,158.893 220.447,158.533C221.111,158.173 221.731,157.745 222.307,157.249C222.883,156.753 223.451,156.217 224.011,155.641L224.011,149.401ZM209.971,140.449C211.219,139.201 212.531,138.257 213.907,137.617C215.283,136.977 216.843,136.657 218.587,136.657C219.867,136.657 220.987,136.861 221.947,137.269C222.907,137.677 223.703,138.261 224.335,139.021C224.967,139.781 225.443,140.701 225.763,141.781C226.083,142.861 226.243,144.065 226.243,145.393L226.243,160.945L225.331,160.945C224.851,160.945 224.555,160.721 224.443,160.273L224.107,157.201C223.451,157.841 222.799,158.417 222.151,158.929C221.503,159.441 220.827,159.873 220.123,160.225C219.419,160.577 218.659,160.849 217.843,161.041C217.027,161.233 216.131,161.329 215.155,161.329C214.339,161.329 213.547,161.209 212.779,160.969C212.011,160.729 211.327,160.361 210.727,159.865C210.127,159.369 209.647,158.733 209.287,157.957C208.927,157.181 208.747,156.249 208.747,155.161C208.747,154.153 209.035,153.217 209.611,152.353C210.187,151.489 211.091,150.737 212.323,150.097C213.555,149.457 215.135,148.945 217.063,148.561C218.991,148.177 221.307,147.953 224.011,147.889L224.011,145.393C224.011,143.185 223.535,141.485 222.583,140.293C221.631,139.101 220.219,138.505 218.347,138.505C217.195,138.505 216.215,138.665 215.407,138.985C214.599,139.305 213.915,139.657 213.355,140.041C212.795,140.425 212.339,140.777 211.987,141.097C211.635,141.417 211.339,141.577 211.099,141.577C210.923,141.577 210.779,141.537 210.667,141.457C210.555,141.377 210.459,141.273 210.379,141.145L209.971,140.449Z" style="fill-rule:nonzero;"/>
            <path d="M233.875,160.945L233.875,137.065L235.147,137.065C235.547,137.065 235.779,137.265 235.843,137.665L236.059,141.121C236.987,139.793 238.051,138.721 239.251,137.905C240.451,137.089 241.803,136.681 243.307,136.681C245.051,136.681 246.447,137.185 247.495,138.193C248.543,139.201 249.251,140.601 249.619,142.393C249.907,141.417 250.311,140.569 250.831,139.849C251.351,139.129 251.947,138.533 252.619,138.061C253.291,137.589 254.023,137.241 254.815,137.017C255.607,136.793 256.419,136.681 257.251,136.681C258.435,136.681 259.499,136.877 260.443,137.269C261.387,137.661 262.187,138.241 262.843,139.009C263.499,139.777 264.003,140.721 264.355,141.841C264.707,142.961 264.883,144.241 264.883,145.681L264.883,160.945L262.603,160.945L262.603,145.681C262.603,143.345 262.099,141.565 261.091,140.341C260.083,139.117 258.643,138.505 256.771,138.505C255.939,138.505 255.143,138.657 254.383,138.961C253.623,139.265 252.951,139.717 252.367,140.317C251.783,140.917 251.319,141.665 250.975,142.561C250.631,143.457 250.459,144.497 250.459,145.681L250.459,160.945L248.155,160.945L248.155,145.681C248.155,143.361 247.695,141.585 246.775,140.353C245.855,139.121 244.507,138.505 242.731,138.505C241.435,138.505 240.235,138.889 239.131,139.657C238.027,140.425 237.043,141.489 236.179,142.849L236.179,160.945L233.875,160.945Z" style="fill-rule:nonzero;"/>
            <path d="M289.267,146.593C289.267,145.313 289.087,144.165 288.727,143.149C288.367,142.133 287.859,141.273 287.203,140.569C286.547,139.865 285.767,139.325 284.863,138.949C283.959,138.573 282.963,138.385 281.875,138.385C280.643,138.385 279.539,138.577 278.563,138.961C277.587,139.345 276.743,139.897 276.031,140.617C275.319,141.337 274.747,142.201 274.315,143.209C273.883,144.217 273.595,145.345 273.451,146.593L289.267,146.593ZM273.331,148.057L273.331,148.513C273.331,150.305 273.539,151.881 273.955,153.241C274.371,154.601 274.963,155.741 275.731,156.661C276.499,157.581 277.427,158.273 278.515,158.737C279.603,159.201 280.819,159.433 282.163,159.433C283.363,159.433 284.403,159.301 285.283,159.037C286.163,158.773 286.903,158.477 287.503,158.149C288.103,157.821 288.579,157.525 288.931,157.261C289.283,156.997 289.539,156.865 289.699,156.865C289.907,156.865 290.067,156.945 290.179,157.105L290.803,157.873C290.419,158.353 289.911,158.801 289.279,159.217C288.647,159.633 287.943,159.989 287.167,160.285C286.391,160.581 285.559,160.817 284.671,160.993C283.783,161.169 282.891,161.257 281.995,161.257C280.363,161.257 278.875,160.973 277.531,160.405C276.187,159.837 275.035,159.009 274.075,157.921C273.115,156.833 272.375,155.501 271.855,153.925C271.335,152.349 271.075,150.545 271.075,148.513C271.075,146.801 271.319,145.221 271.807,143.773C272.295,142.325 272.999,141.077 273.919,140.029C274.839,138.981 275.967,138.161 277.303,137.569C278.639,136.977 280.155,136.681 281.851,136.681C283.195,136.681 284.443,136.913 285.595,137.377C286.747,137.841 287.747,138.517 288.595,139.405C289.443,140.293 290.111,141.385 290.599,142.681C291.087,143.977 291.331,145.465 291.331,147.145C291.331,147.497 291.283,147.737 291.187,147.865C291.091,147.993 290.931,148.057 290.707,148.057L273.331,148.057Z" style="fill-rule:nonzero;"/>
            <path d="M310.675,140.017C310.547,140.241 310.363,140.353 310.123,140.353C309.947,140.353 309.723,140.253 309.451,140.053C309.179,139.853 308.815,139.629 308.359,139.381C307.903,139.133 307.339,138.909 306.667,138.709C305.995,138.509 305.179,138.409 304.219,138.409C303.355,138.409 302.567,138.533 301.855,138.781C301.143,139.029 300.535,139.361 300.031,139.777C299.527,140.193 299.139,140.677 298.867,141.229C298.595,141.781 298.459,142.361 298.459,142.969C298.459,143.721 298.651,144.345 299.035,144.841C299.419,145.337 299.919,145.761 300.535,146.113C301.151,146.465 301.859,146.769 302.659,147.025C303.459,147.281 304.271,147.537 305.095,147.793C305.919,148.049 306.731,148.333 307.531,148.645C308.331,148.957 309.039,149.345 309.655,149.809C310.271,150.273 310.771,150.841 311.155,151.513C311.539,152.185 311.731,153.001 311.731,153.961C311.731,155.001 311.547,155.969 311.179,156.865C310.811,157.761 310.271,158.537 309.559,159.193C308.847,159.849 307.971,160.369 306.931,160.753C305.891,161.137 304.699,161.329 303.355,161.329C301.675,161.329 300.227,161.061 299.011,160.525C297.795,159.989 296.707,159.289 295.747,158.425L296.275,157.609C296.355,157.481 296.447,157.385 296.551,157.321C296.655,157.257 296.795,157.225 296.971,157.225C297.179,157.225 297.431,157.353 297.727,157.609C298.023,157.865 298.419,158.141 298.915,158.437C299.411,158.733 300.023,159.009 300.751,159.265C301.479,159.521 302.379,159.649 303.451,159.649C304.459,159.649 305.347,159.509 306.115,159.229C306.883,158.949 307.523,158.569 308.035,158.089C308.547,157.609 308.935,157.045 309.199,156.397C309.463,155.749 309.595,155.065 309.595,154.345C309.595,153.545 309.403,152.881 309.019,152.353C308.635,151.825 308.131,151.377 307.507,151.009C306.883,150.641 306.175,150.329 305.383,150.073C304.591,149.817 303.779,149.561 302.947,149.305C302.115,149.049 301.303,148.769 300.511,148.465C299.719,148.161 299.011,147.777 298.387,147.313C297.763,146.849 297.259,146.285 296.875,145.621C296.491,144.957 296.299,144.129 296.299,143.137C296.299,142.289 296.483,141.473 296.851,140.689C297.219,139.905 297.743,139.217 298.423,138.625C299.103,138.033 299.931,137.561 300.907,137.209C301.883,136.857 302.979,136.681 304.195,136.681C305.651,136.681 306.943,136.889 308.071,137.305C309.199,137.721 310.227,138.361 311.155,139.225L310.675,140.017Z" style="fill-rule:nonzero;"/>
        </g>
    </g>
</svg>
