<?xml version="1.0" encoding="UTF-8" standalone="no"?>
<!DOCTYPE svg PUBLIC "-//W3C//DTD SVG 1.1//EN" "http://www.w3.org/Graphics/SVG/1.1/DTD/svg11.dtd">
<svg width="100%" height="100%" viewBox="0 0 229 36" version="1.1" xmlns="http://www.w3.org/2000/svg" xmlns:xlink="http://www.w3.org/1999/xlink" xml:space="preserve" xmlns:serif="http://www.serif.com/" style="fill-rule:evenodd;clip-rule:evenodd;stroke-linejoin:round;stroke-miterlimit:2;">
    <g transform="matrix(1,0,0,1,-736.055,-461.446)">
        <g transform="matrix(1,0,0,1,661.012,335.349)">
            <path d="M117.235,128.305L109.123,152.401L107.731,156.721C107.299,155.281 106.771,153.745 106.195,152.257L97.555,130.081L96.835,130.081L88.003,152.977C87.523,154.129 87.139,155.329 86.707,156.625C86.323,155.281 85.939,154.129 85.555,152.977L77.203,128.305L75.043,128.305L75.043,128.401L86.179,161.185L86.851,161.185L96.259,137.137C96.595,136.321 96.883,135.457 97.219,134.401C97.507,135.409 97.843,136.321 98.179,137.185L107.587,161.185L108.259,161.185L119.443,128.401L119.443,128.305L117.235,128.305Z" style="fill-rule:nonzero;"/>
            <path d="M125.011,133.585C125.971,133.585 126.643,132.913 126.643,132.049C126.643,131.089 125.971,130.369 125.011,130.369C124.051,130.369 123.379,131.089 123.379,132.001C123.379,132.865 124.051,133.585 125.011,133.585ZM124.003,160.945L126.019,160.945L126.019,139.873L124.003,139.873L124.003,160.945Z" style="fill-rule:nonzero;"/>
            <path d="M142.387,139.489C139.027,139.489 137.107,141.313 136.099,143.521L135.715,139.873L134.131,139.873L134.131,160.945L136.147,160.945L136.147,148.945C136.147,144.385 138.499,141.409 142.195,141.409C143.443,141.409 144.211,141.601 145.027,141.937L145.651,140.161C144.739,139.729 143.683,139.489 142.387,139.489Z" style="fill-rule:nonzero;"/>
            <path d="M158.179,139.393C151.795,139.393 147.667,144.433 147.667,150.385C147.667,156.769 151.987,161.425 158.371,161.425C161.875,161.425 164.323,160.273 166.483,158.257L165.331,156.769C163.507,158.593 161.587,159.553 158.323,159.553C153.907,159.553 150.067,156.481 149.731,151.297L167.491,151.297C167.539,150.673 167.587,150.097 167.587,149.521C167.587,143.665 164.275,139.393 158.179,139.393ZM158.131,141.265C162.979,141.265 165.619,144.529 165.619,149.521L149.731,149.521C150.163,144.625 153.619,141.265 158.131,141.265Z" style="fill-rule:nonzero;"/>
            <path d="M174.739,160.945L176.755,160.945L176.755,141.697L184.243,141.697L184.243,139.873L176.755,139.873L176.755,133.633C176.755,129.889 178.579,127.969 181.603,127.969C183.235,127.969 184.483,128.497 185.731,129.457L186.739,128.017C185.251,126.865 183.619,126.097 181.411,126.097C176.851,126.097 174.739,129.409 174.739,133.633L174.739,139.873L170.275,139.873L170.275,141.697L174.739,141.697L174.739,160.945Z" style="fill-rule:nonzero;"/>
            <path d="M197.203,139.489C193.843,139.489 191.923,141.313 190.915,143.521L190.531,139.873L188.947,139.873L188.947,160.945L190.963,160.945L190.963,148.945C190.963,144.385 193.315,141.409 197.011,141.409C198.259,141.409 199.027,141.601 199.843,141.937L200.467,140.161C199.555,139.729 198.499,139.489 197.203,139.489Z" style="fill-rule:nonzero;"/>
            <path d="M211.747,139.585C209.251,139.585 206.515,140.257 203.827,141.553L204.499,143.281C206.899,142.129 209.299,141.505 211.603,141.505C215.155,141.505 217.507,143.089 217.507,146.689L217.507,148.417C216.355,148.273 215.203,148.225 213.379,148.225C207.523,148.225 202.819,150.529 202.819,155.521C202.819,159.121 205.555,161.281 209.443,161.281C213.283,161.281 216.355,159.505 217.699,156.097L217.987,160.945L219.571,160.945L219.571,146.737C219.571,141.937 216.451,139.585 211.747,139.585ZM209.683,159.409C206.899,159.409 204.883,158.017 204.883,155.425C204.883,151.681 208.435,149.953 213.571,149.953C215.251,149.953 216.211,150.001 217.507,150.193C217.411,155.953 214.483,159.409 209.683,159.409Z" style="fill-rule:nonzero;"/>
            <path d="M251.011,139.489C247.219,139.489 244.627,141.601 243.331,144.385C242.467,141.361 240.163,139.489 236.707,139.489C233.107,139.489 230.563,141.649 229.363,144.049L228.931,139.873L227.395,139.873L227.395,160.945L229.411,160.945L229.411,149.857C229.411,144.865 232.339,141.409 236.467,141.409C240.163,141.409 241.795,144.097 241.795,147.505L241.795,160.945L243.811,160.945L243.811,149.953C243.811,144.961 246.691,141.409 250.819,141.409C254.371,141.409 256.147,143.857 256.147,147.505L256.147,160.945L258.163,160.945L258.163,147.601C258.163,142.801 255.715,139.489 251.011,139.489Z" style="fill-rule:nonzero;"/>
            <path d="M274.867,139.393C268.483,139.393 264.355,144.433 264.355,150.385C264.355,156.769 268.675,161.425 275.059,161.425C278.563,161.425 281.011,160.273 283.171,158.257L282.019,156.769C280.195,158.593 278.275,159.553 275.011,159.553C270.595,159.553 266.755,156.481 266.419,151.297L284.179,151.297C284.227,150.673 284.275,150.097 284.275,149.521C284.275,143.665 280.963,139.393 274.867,139.393ZM274.819,141.265C279.667,141.265 282.307,144.529 282.307,149.521L266.419,149.521C266.851,144.625 270.307,141.265 274.819,141.265Z" style="fill-rule:nonzero;"/>
            <path d="M296.179,161.281C300.115,161.281 303.091,159.073 303.091,155.665C303.091,152.257 300.163,150.673 296.467,149.233C293.683,148.177 291.331,147.121 291.331,144.817C291.331,142.561 293.443,141.457 296.035,141.457C297.955,141.457 299.731,142.033 301.315,142.993L302.227,141.505C300.451,140.353 298.291,139.585 295.987,139.585C292.531,139.585 289.315,141.361 289.315,144.817C289.315,148.225 292.387,149.713 295.747,151.009C298.723,152.161 301.075,153.361 301.075,155.665C301.075,157.873 299.107,159.409 296.179,159.409C293.779,159.409 291.619,158.689 289.651,157.249L288.595,158.881C290.803,160.465 293.299,161.281 296.179,161.281Z" style="fill-rule:nonzero;"/>
        </g>
    </g>
</svg>
